<svg width="24" height="20" viewBox="0 0 24 20" fill="none" xmlns="http://www.w3.org/2000/svg">
<path d="M20.317 2.25864C18.7873 1.55705 17.147 1.04015 15.4319 0.744101C15.4007 0.738387 15.3695 0.752666 15.3534 0.781224C15.1424 1.15628 14.9087 1.64558 14.7451 2.03016C12.9004 1.75411 11.0652 1.75411 9.25832 2.03016C9.09465 1.63703 8.85248 1.15628 8.64057 0.781224C8.62449 0.753619 8.59328 0.73934 8.56205 0.744101C6.84791 1.03921 5.20756 1.55611 3.67693 2.25864C3.66368 2.26435 3.65233 2.27388 3.64479 2.28625C0.533392 6.93269 -0.31895 11.4649 0.0991801 15.941C0.101072 15.9629 0.11337 15.9838 0.130398 15.9971C2.18321 17.504 4.17171 18.4189 6.12328 19.0252C6.15451 19.0348 6.18761 19.0233 6.20748 18.9976C6.66913 18.3675 7.08064 17.703 7.43348 17.0043C7.4543 16.9633 7.43442 16.9148 7.39186 16.8986C6.73913 16.6511 6.1176 16.3493 5.51973 16.0066C5.47244 15.979 5.46865 15.9114 5.51216 15.8791C5.63797 15.7848 5.76382 15.6868 5.88396 15.5878C5.90569 15.5697 5.93598 15.5659 5.96153 15.5773C9.88928 17.3698 14.1415 17.3698 18.023 15.5773C18.0485 15.5649 18.0788 15.5687 18.1015 15.5868C18.2216 15.6858 18.3475 15.7848 18.4742 15.8791C18.5177 15.9114 18.5149 15.979 18.4676 16.0066C17.8697 16.356 17.2482 16.6511 16.5945 16.8977C16.552 16.9138 16.533 16.9633 16.5538 17.0043C16.9143 17.702 17.3258 18.3665 17.7789 18.9967C17.7978 19.0233 17.8319 19.0348 17.8631 19.0252C19.8241 18.4189 21.8126 17.504 23.8654 15.9971C23.8834 15.9838 23.8948 15.9638 23.8967 15.9419C24.3971 10.7671 23.0585 6.27205 20.3482 2.2872C20.3416 2.27388 20.3303 2.26435 20.317 2.25864ZM8.02002 13.2155C6.8375 13.2155 5.86313 12.1303 5.86313 10.7976C5.86313 9.46486 6.8186 8.37966 8.02002 8.37966C9.23087 8.37966 10.1958 9.47438 10.1769 10.7976C10.1769 12.1303 9.22141 13.2155 8.02002 13.2155ZM15.9947 13.2155C14.8123 13.2155 13.8379 12.1303 13.8379 10.7976C13.8379 9.46486 14.7933 8.37966 15.9947 8.37966C17.2056 8.37966 18.1705 9.47438 18.1516 10.7976C18.1516 12.1303 17.2056 13.2155 15.9947 13.2155Z" fill="#A7A7A7"/>
</svg>
