<svg width="24" height="24" viewBox="0 0 24 24" fill="none" xmlns="http://www.w3.org/2000/svg">
<path d="M18.5 0H15.12C11.34 0 8.9 2.31832 8.9 5.90859V8.63969H5.5C5.22386 8.63969 5 8.85458 5 9.11967V13.0651C5 13.3302 5.22386 13.5451 5.5 13.5451H8.9V23.5192C8.89975 23.6516 8.95653 23.7783 9.05689 23.8692C9.15725 23.96 9.29227 24.0071 9.43 23.9991H13.84C13.9777 24.0071 14.1128 23.96 14.2131 23.8692C14.3135 23.7783 14.3702 23.6516 14.37 23.5192V13.5547H18.32C18.5961 13.5547 18.82 13.3398 18.82 13.0747V9.11967C18.8195 8.98903 18.7635 8.86423 18.665 8.77408C18.5638 8.68175 18.4296 8.63021 18.29 8.63009H14.34V6.32137C14.34 5.21261 14.625 4.64623 16.185 4.64623H18.5C18.7761 4.64623 19 4.43134 19 4.16625V0.479983C19 0.214896 18.7761 0 18.5 0Z" fill="#656464"/>
</svg>
