<svg width="24" height="24" viewBox="0 0 24 24" fill="none" xmlns="http://www.w3.org/2000/svg">
<path d="M21.5376 6.77033C21.5376 6.98035 21.5376 7.19038 21.5376 7.4004C21.5376 13.8109 16.584 21.1999 7.5312 21.1999C4.86564 21.2071 2.25323 20.4587 0 19.0424C0.393742 19.0849 0.78955 19.1056 1.1856 19.1045C3.39989 19.1103 5.55251 18.3794 7.3008 17.0281C5.20838 17 3.36231 15.66 2.6976 13.6868C3.0043 13.7325 3.31388 13.7565 3.624 13.7584C4.06114 13.7586 4.49656 13.7041 4.92 13.5961C2.61764 13.1521 0.956232 11.1455 0.96 8.81329V8.75601C1.64486 9.12896 2.40704 9.33968 3.1872 9.37177C1.81883 8.48059 0.992733 6.96495 0.9888 5.33835C0.987327 4.47838 1.21951 3.634 1.6608 2.89443C4.17723 5.92817 7.86286 7.76679 11.8128 7.95888C11.7323 7.59349 11.6905 7.22074 11.688 6.8467C11.7147 4.84914 12.9553 3.06664 14.8259 2.33827C16.6966 1.6099 18.8245 2.08078 20.208 3.52927C21.3093 3.3204 22.3663 2.92483 23.3328 2.35982C22.9626 3.48324 22.1928 4.4337 21.168 5.03286C22.1445 4.92308 23.099 4.66889 24 4.27868C23.3253 5.24047 22.4929 6.08274 21.5376 6.77033Z" fill="#656464"/>
</svg>
