<svg width="24" height="20" viewBox="0 0 24 20" fill="none" xmlns="http://www.w3.org/2000/svg">
<path fill-rule="evenodd" clip-rule="evenodd" d="M18.384 19.4966C18.706 19.7214 19.121 19.7775 19.491 19.6395C19.8609 19.5006 20.1329 19.1891 20.2149 18.8115C21.0839 14.7859 23.1919 4.59654 23.9829 0.934604C24.0429 0.658604 23.9429 0.371761 23.7229 0.187432C23.5029 0.00310324 23.1979 -0.0501254 22.9259 0.0494319C18.733 1.57926 5.82027 6.35505 0.542386 8.28016C0.207393 8.40238 -0.0106019 8.71978 0.000397845 9.06774C0.0123976 9.41669 0.250392 9.7193 0.593384 9.82083C2.96033 10.5187 6.06726 11.4896 6.06726 11.4896C6.06726 11.4896 7.51923 15.812 8.27621 18.0102C8.37121 18.2862 8.5902 18.503 8.8792 18.5779C9.16719 18.6519 9.47518 18.574 9.69018 18.3739C10.9061 17.2423 12.7861 15.4926 12.7861 15.4926C12.7861 15.4926 16.358 18.0742 18.384 19.4966ZM7.37423 10.9436L9.05319 16.4025L9.42619 12.9456C9.42619 12.9456 15.913 7.17815 19.611 3.89079C19.719 3.79419 19.734 3.63253 19.644 3.51918C19.555 3.40582 19.391 3.3792 19.268 3.45609C14.9821 6.15399 7.37423 10.9436 7.37423 10.9436Z" fill="#656464"/>
</svg>
