<svg width="24" height="24" viewBox="0 0 24 24" fill="none" xmlns="http://www.w3.org/2000/svg">
<path d="M2.8466 5.91915C2.8719 5.62553 2.75804 5.33191 2.54296 5.12766L0.303637 2.40851V2H7.26199L12.6389 13.8979L17.3706 2H24V2.40851L22.0896 4.25957C21.9251 4.38723 21.8366 4.59149 21.8745 4.79574V18.4043C21.8366 18.6085 21.9251 18.8255 22.0896 18.9404L23.962 20.7915V21.2H14.5493V20.7915L16.485 18.8894C16.6747 18.6979 16.6747 18.6468 16.6747 18.3532V7.37447L11.2725 21.1745H10.5387L4.27623 7.37447V16.6298C4.22562 17.0128 4.35214 17.4085 4.61782 17.6894L7.13548 20.7787V21.1872H0V20.7787L2.51766 17.6894C2.78334 17.4085 2.90986 17.0128 2.8466 16.6298V5.91915Z" fill="#656464"/>
</svg>
