<svg width="24" height="24" viewBox="0 0 24 24" fill="none" xmlns="http://www.w3.org/2000/svg">
<path fill-rule="evenodd" clip-rule="evenodd" d="M20.996 8.10366C22.6573 8.11966 23.9935 9.4873 23.9855 11.1636H23.9999C24.0091 12.2964 23.3893 13.3392 22.3946 13.8646V14.2235C22.3946 18.4375 17.7086 21.8708 11.9459 21.8708C6.18324 21.8708 1.49717 18.4375 1.49717 14.2235V13.8113C0.326055 13.1173 -0.245004 11.7224 0.0993692 10.3969C0.443742 9.07135 1.61957 8.13843 2.97749 8.11336C3.60637 8.1102 4.21904 8.31455 4.72215 8.69528C6.71475 7.38881 9.03157 6.67459 11.4076 6.63432L13.133 2.47362C13.2718 2.1308 13.6349 1.93841 13.9933 2.01778L18.2517 3.06038C18.8434 2.12171 20.0204 1.75124 21.0362 2.18392C22.052 2.61659 22.6098 3.72597 22.3559 4.80856C22.1019 5.89114 21.1105 6.63058 20.0102 6.55796C18.91 6.48535 18.0224 5.62191 17.9104 4.51518L14.2625 3.6423L13.0129 6.65372C15.2142 6.77876 17.3427 7.49351 19.1793 8.72437C19.6984 8.31712 20.3385 8.09843 20.996 8.10366ZM20.1405 3.52104C20.4945 3.52293 20.7983 3.77593 20.8673 4.12628C20.9362 4.47663 20.7513 4.82755 20.4248 4.96577C20.0984 5.10398 19.7206 4.99131 19.5212 4.69623C19.3217 4.40115 19.3555 4.00518 19.6022 3.74896C19.7441 3.6032 19.938 3.52107 20.1405 3.52104ZM15.6611 14.9897C15.0465 14.9994 14.4866 14.6344 14.2429 14.0651C13.9992 13.4957 14.1197 12.8342 14.5481 12.3895C14.9765 11.9447 15.6284 11.8044 16.1994 12.0339C16.7704 12.2635 17.148 12.8177 17.1558 13.4379C17.1599 13.8383 17.006 14.2238 16.7281 14.5096C16.4491 14.7964 16.069 14.9602 15.6707 14.9654L15.6611 14.9897ZM15.3775 18.5297C13.3328 20.0669 10.5302 20.0669 8.48542 18.5297C8.14535 18.2791 8.06822 17.7992 8.3124 17.4531C8.42643 17.2902 8.60034 17.18 8.79536 17.1472C8.99037 17.1144 9.19029 17.1617 9.35054 17.2786C10.8797 18.4207 12.9689 18.4207 14.498 17.2786C14.6509 17.1563 14.8458 17.1004 15.0396 17.1231C15.2334 17.1459 15.4103 17.2454 15.5313 17.3998L15.565 17.4483C15.681 17.6181 15.7274 17.8266 15.6948 18.0302C15.6588 18.2325 15.5447 18.4121 15.3775 18.5297ZM8.23844 11.9735C7.41551 11.9637 6.73957 12.627 6.72634 13.4573C6.7236 14.2934 7.38766 14.9764 8.21627 14.9897C9.03926 14.9922 9.70947 14.3231 9.71557 13.4927C9.72168 12.6624 9.06138 11.9833 8.23844 11.9735Z" fill="#656464"/>
</svg>
