<svg width="43" height="24" viewBox="0 0 43 24" fill="none" xmlns="http://www.w3.org/2000/svg">
<path d="M23.8938 12C23.8938 18.6372 18.531 24 11.9469 24C5.36283 24 0 18.6903 0 12C0 5.30973 5.36283 0 11.9469 0C18.531 0 23.8938 5.36283 23.8938 12Z" fill="#A7A7A7"/>
<path d="M37.0089 12C37.0089 18.2655 34.3541 23.3097 31.062 23.3097C27.77 23.3097 25.1151 18.2655 25.1151 12C25.1151 5.73448 27.77 0.69023 31.062 0.69023C34.301 0.69023 37.0089 5.78758 37.0089 12Z" fill="#A7A7A7"/>
<path d="M42.3186 12C42.3186 17.5752 41.3629 22.1416 40.1947 22.1416C39.0266 22.1416 38.0708 17.5752 38.0708 12C38.0708 6.42478 39.0266 1.85841 40.1947 1.85841C41.416 1.85841 42.3186 6.42478 42.3186 12Z" fill="#A7A7A7"/>
</svg>
