<svg width="24" height="20" viewBox="0 0 24 20" fill="none" xmlns="http://www.w3.org/2000/svg">
<path d="M21.6357 4.99385C21.77 7.55282 21.1979 10.0994 19.9819 12.355C18.7659 14.6106 16.953 16.4884 14.7415 17.7827C12.5299 19.0771 10.005 19.7383 7.44289 19.6939C4.88078 19.6496 2.38024 18.9013 0.214844 17.5312C2.71698 17.6957 5.19172 16.9303 7.1641 15.3819C6.22434 15.2699 5.33545 14.8943 4.60016 14.2985C3.86487 13.7026 3.31319 12.9109 3.00887 12.0147C3.75056 12.1339 4.50955 12.085 5.22977 11.8715C4.11453 11.6616 3.10344 11.0797 2.36171 10.2209C1.61998 9.36203 1.19146 8.27701 1.14619 7.14311C1.78328 7.39853 2.46603 7.52045 3.15216 7.50132C2.19665 6.76213 1.54009 5.70287 1.30317 4.51828C1.06625 3.33369 1.2649 2.10338 1.8626 1.05356C3.09208 2.57188 4.62634 3.81545 6.36631 4.70395C8.10628 5.59244 10.0133 6.10611 11.9641 6.21176C11.6365 5.1472 11.6893 4.00185 12.1135 2.97197C12.5377 1.94208 13.3069 1.09177 14.2892 0.566735C15.2715 0.0417034 16.4058 -0.125366 17.4978 0.0941548C18.5898 0.313675 19.5714 0.90612 20.2745 1.76997C21.3722 1.57297 22.4195 1.15892 23.3551 0.552063C22.9987 1.7147 22.2016 2.69178 21.1342 3.27445C22.1043 3.17627 23.0499 2.90959 23.9283 2.48639C23.5072 3.5811 22.6884 4.47658 21.6357 4.99385Z" fill="#A7A7A7"/>
</svg>
