<svg width="53" height="60" viewBox="0 0 53 60" fill="none" xmlns="http://www.w3.org/2000/svg">
<path fill-rule="evenodd" clip-rule="evenodd" d="M43.0732 35.3117C43.2629 35.485 43.4633 35.6585 43.6476 35.8318C43.8319 36.005 44.0212 36.1786 44.2108 36.3518L44.7745 36.8876C44.8666 36.9798 44.9641 37.0608 45.0563 37.1533C45.1484 37.2344 45.2567 37.3266 45.3488 37.408C46.0968 38.1177 46.849 38.8275 47.5866 39.5375C46.8225 38.8385 46.0746 38.1445 45.3106 37.4352L45.0452 37.1694C44.9531 37.0776 44.8555 36.9962 44.7634 36.904L44.2001 36.384C44.0105 36.2107 43.8261 36.0372 43.6365 35.8482C43.4468 35.6593 43.2625 35.4853 43.0729 35.3124L43.0732 35.3117ZM52.9996 35.4189C52.9996 35.4189 50.2797 35.1374 48.9521 34.9478C47.7223 34.7742 43.8751 34.1837 43.8751 34.1837L52.9996 35.4189ZM52.9996 35.4189C52.2356 35.3539 51.4716 35.2728 50.7076 35.1914C50.3176 35.1535 49.9436 35.1103 49.5696 35.0724L48.9956 35.007C48.806 34.9803 48.6217 34.9531 48.432 34.926L46.156 34.5631L45.0184 34.3734C44.6445 34.3084 44.2705 34.2377 43.8804 34.1727C44.2544 34.2105 44.6445 34.2648 45.0184 34.3191L46.156 34.4816L48.432 34.8174C48.6217 34.8445 48.806 34.8827 48.9956 34.9095L49.57 34.9756C49.944 35.0135 50.334 35.0678 50.708 35.1113C51.472 35.2031 52.236 35.301 53 35.4199L52.9996 35.4189ZM44.1458 33.4751C44.1458 33.4751 47.0501 32.7379 48.0309 32.4561C48.9953 32.1907 51.916 31.302 51.916 31.302L44.1462 33.4747L44.1458 33.4751Z" fill="#CFB66C"/>
<path fill-rule="evenodd" clip-rule="evenodd" d="M44.1462 33.4751C44.7909 33.2854 45.432 33.1011 46.086 32.9275L48.0259 32.4074C48.6706 32.2178 49.3117 32.0335 49.9547 31.8438L50.9191 31.5784C51.2387 31.4863 51.5638 31.4052 51.8942 31.3127C51.5748 31.4198 51.2495 31.5295 50.9298 31.6216L49.9654 31.9303C49.3207 32.131 48.6795 32.3207 48.0366 32.521C47.3812 32.6835 46.7361 32.8571 46.0807 33.0143C45.4578 33.1715 44.802 33.3283 44.1462 33.4747L44.1462 33.4751ZM51.5095 29.5139C51.1902 29.6332 47.5055 31.3505 46.6493 31.7517C46.2207 31.9524 44.9748 32.3946 44.9748 32.3946L51.5095 29.5139Z" fill="#CFB66C"/>
<path fill-rule="evenodd" clip-rule="evenodd" d="M51.5092 29.5139C51.2277 29.6211 50.962 29.7522 50.6912 29.8768L49.8893 30.2508L48.2799 31.0255C47.7441 31.2802 47.2233 31.5613 46.6708 31.8006C46.389 31.9196 46.1071 32.0171 45.8257 32.1092L45.3971 32.2446C45.251 32.2825 45.1153 32.326 44.9685 32.3639C45.5042 32.1092 46.0682 31.8924 46.6047 31.6435C47.1405 31.3777 47.6884 31.1609 48.2413 30.9227L49.8776 30.2022C50.4269 29.9797 50.9627 29.7415 51.5095 29.5139L51.5092 29.5139ZM51.152 28.0138C51.152 28.0138 47.8145 29.9697 46.6658 30.5983C46.0643 30.9341 44.1191 31.8988 44.1191 31.8988L51.152 28.0138Z" fill="#CFB66C"/>
<path fill-rule="evenodd" clip-rule="evenodd" d="M51.1519 28.013C50.5886 28.3599 50.0142 28.712 49.4399 29.0696L48.5826 29.59C48.2901 29.7632 48.0083 29.9257 47.7101 30.099C47.4175 30.2726 47.1357 30.4458 46.8378 30.6083C46.696 30.6959 46.5474 30.772 46.3935 30.8358L45.9384 31.0634C45.3369 31.3559 44.7354 31.6541 44.1014 31.9088C44.6758 31.5456 45.2666 31.2366 45.857 30.9173C46.1495 30.7548 46.4478 30.6083 46.7403 30.4458C47.0328 30.2833 47.3147 30.1097 47.6129 29.9525C47.9054 29.7793 48.1872 29.6168 48.4851 29.4596L49.3684 28.9774L51.1511 28.013L51.1519 28.013ZM44.1461 31.4702C44.1461 31.4702 46.2213 29.8772 46.8932 29.3678C47.565 28.8585 49.5428 27.428 49.5428 27.428L44.1461 31.4702Z" fill="#CFB66C"/>
<path fill-rule="evenodd" clip-rule="evenodd" d="M32.2364 18.6231L33.2983 20.6333L32.6808 23.1475L28.2757 24.8488L30.1505 28.6956L29.224 32.5807L27.4845 36.0596L22.1093 36.9047L18.1595 40.6705L9.63076 40.0258L7.95665 30.9066L11.1806 19.425L13.0172 13.4808L20.4623 13.1989L23.9191 15.5938L27.9667 17.2847L32.2364 18.6231Z" fill="#E2CC85"/>
<path fill-rule="evenodd" clip-rule="evenodd" d="M19.1775 18.6881C19.1775 18.6881 20.2073 18.2166 21.9635 18.3252C22.4718 19.0078 26.0315 19.3275 26.0315 19.3275C26.0315 19.3275 26.4758 19.4628 27.2616 19.1378C28.0524 18.8163 28.8003 18.856 29.4993 18.6828C30.1983 18.5095 30.8923 19.4196 31.4281 19.6093C31.9639 19.8097 32.6743 20.2919 32.6743 20.2919L34.1745 20.4383L37.187 21.7117L41.9728 26.4797L43.2733 24.4437L43.6744 21.9242L42.2275 18.9385L38.3317 15.3895L30.7352 13.4608L26.2326 14.7873L20.5919 17.1715L19.1775 18.6885L19.1775 18.6881Z" fill="#F1D789"/>
<path fill-rule="evenodd" clip-rule="evenodd" d="M46.1669 35.5392L45.2025 38.4596L44.0535 40.3455L40.3531 40.6544L41.4639 37.4141L44.5575 31.9089L43.2734 26.9944L45.549 25.8568L46.2484 26.9294L46.8116 29.3893L46.8495 32.1528L46.1669 35.5392Z" fill="#F4ECB4"/>
<path fill-rule="evenodd" clip-rule="evenodd" d="M42.0165 18.8885L42.7262 19.8801C42.7262 19.8801 42.9159 20.3515 42.8073 20.7634C42.7001 21.1806 42.7155 21.2077 42.7694 21.3649C42.8233 21.522 43.2788 22.0639 43.2516 22.53C43.2248 23.0015 43.2895 23.1586 42.943 23.5322C42.5801 23.8951 42.6883 24.5238 42.6883 24.5238L42.2169 24.2312L42.1097 24.3938C42.1097 24.3938 41.9365 24.2584 41.9365 24.0469C41.8986 24.3395 42.0558 25.6943 41.6982 26.0029C41.3407 26.3115 40.7067 24.5563 40.7067 24.5563L41.0967 27.103L42.0993 29.7143L43.882 32.0985L43.9892 34.7267L43.9892 34.9542C43.9892 34.9542 44.8075 33.6969 45.035 32.7039C45.1975 32.0214 44.8075 31.1924 44.8886 30.2115C44.9539 29.2361 45.035 29.3122 44.7968 28.9257C44.5585 28.5392 43.9785 27.7445 44.206 27.1701C44.4064 26.6769 45.0893 27.0237 45.0893 27.0237C45.0893 27.0237 45.2247 26.6229 45.409 26.4765C45.474 26.7147 45.5444 26.8665 45.6744 27.0123C45.6854 26.9201 45.7122 26.7954 45.7122 26.7954C45.7122 26.7954 45.8315 27.1694 45.9508 27.6409C46.113 28.2692 46.2866 29.0982 46.4437 29.5425C46.5087 29.2879 46.6713 28.5131 46.6713 28.5131L46.5791 27.3209L46.1348 25.6846L45.7062 24.6131L45.289 23.3019L44.9264 22.421L44.6339 21.7492L44.3792 20.2372L43.1495 18.9371L42.4937 18.6442L42.0172 18.8882L42.0165 18.8885Z" fill="#F3E19D"/>
<path fill-rule="evenodd" clip-rule="evenodd" d="M45.5222 37.9234C45.5222 37.9234 46.4055 36.4233 46.6598 34.911C46.9141 33.3986 47.142 31.8006 46.9813 29.7418C46.8188 27.6662 46.5098 26.3932 46.2605 25.4828C45.8319 23.9708 44.7217 21.8685 44.7217 21.8685L44.6839 21.9499C44.8705 22.3036 45.0194 22.6759 45.1282 23.0607C45.2747 23.6351 45.3289 24.3177 45.4643 24.6266C45.5836 24.9352 45.784 25.201 45.8815 25.5803C45.9737 25.9432 45.9887 26.5175 46.2716 26.9454C46.3909 27.119 46.5373 27.5741 46.5805 28.0291C46.6348 28.7121 46.5534 29.4761 46.6184 30.1044C46.7377 31.1502 46.8188 31.8599 46.7105 32.4075C46.6023 32.955 46.0383 34.5095 45.6915 35.745C45.464 36.5361 45.5997 37.2026 45.1825 37.8909C44.7653 38.5735 44.5103 39.175 44.4185 39.5922C44.3113 39.9715 45.5236 37.9234 45.5236 37.9234L45.5222 37.9234Z" fill="#F2E8B0"/>
<path fill-rule="evenodd" clip-rule="evenodd" d="M41.3338 38.5249C41.3338 38.5249 41.7888 38.3892 42.0056 38.1509C42.2224 37.9234 42.3146 37.7337 42.6071 37.3491C42.8996 36.9644 42.9161 36.6501 43.1547 36.1679C43.3929 35.6964 43.9187 34.9867 43.9837 34.732C44.0487 34.4773 44.1569 33.2854 44.2923 32.7218C44.4116 32.1581 44.1569 31.4645 44.1569 31.4645L43.8483 31.5299C43.8483 31.5299 43.8483 31.1287 43.5393 30.8576C43.2307 30.5923 43.1765 31.7574 43.1765 31.7574L42.0224 35.6532L40.2833 36.8344L40.0936 37.788L41.3345 38.5249L41.3338 38.5249Z" fill="#F5EEC0"/>
<path fill-rule="evenodd" clip-rule="evenodd" d="M40.4886 36.7583C40.4886 36.7583 41.3069 36.7044 41.7077 36.4115C41.8702 36.2925 41.9352 36.195 42.1084 36.0486C42.4281 35.7832 42.7535 35.5392 42.9103 35.1913C43.0839 34.8449 43.2736 34.3191 43.4036 33.3276C43.4579 32.9104 43.4579 32.5257 43.4957 32.1896C43.55 31.7345 43.6311 31.3716 43.5879 31.118C43.5336 30.598 42.9971 30.3269 42.9449 29.7365L41.8341 30.2997L40.7883 34.4234L38.5666 35.8164L39.8239 37.2251L40.49 36.7608L40.4886 36.7583Z" fill="#E6DB9D"/>
<path fill-rule="evenodd" clip-rule="evenodd" d="M46.3489 8.99065C46.3442 9.03136 46.3396 9.07209 46.335 9.11388C46.1728 10.5069 46.1453 11.5627 46.0264 12.2239C45.8531 13.1611 45.7338 13.5097 45.761 13.8605C45.7988 14.4237 45.842 14.8356 45.7878 15.2692C45.7067 15.8435 45.143 16.5261 45.1591 16.9976C45.1702 17.3716 45.3598 17.6152 45.5224 17.8427C45.6849 18.0702 45.8149 18.2599 45.8149 18.2599C45.8149 18.2599 44.7041 19.0239 44.7148 22.1017C44.6921 22.0953 44.6703 22.0862 44.6498 22.0746L44.1026 20.5198L43.7286 20.0647L42.2927 17.388L40.445 15.5942L37.7144 13.7576L36.002 11.8942L35.8288 6.92542L38.0666 4.02118L38.433 3.35753C41.3445 4.81917 44.0144 6.71912 46.3492 8.991L46.3489 8.99065Z" fill="#E5CB7A"/>
<path fill-rule="evenodd" clip-rule="evenodd" d="M39.5132 4.23726C39.5132 4.23726 39.4753 4.85483 38.966 5.25595C38.8845 5.12058 38.8306 4.9902 38.8467 4.89305C38.7545 5.05521 38.1098 6.09568 36.6522 6.36678C35.1945 6.63217 34.8423 7.69407 34.8423 7.69407L31.7488 10.5062L28.2105 13.7626L23.9083 15.2745L21.8977 15.7678C21.8977 15.7678 21.8598 15.6214 21.9356 15.2963C21.562 15.3231 20.7329 15.5128 19.8714 15.8164C19.5246 15.9518 19.1992 16.006 19.026 15.8271C18.7713 15.5889 18.7334 15.0252 18.7174 14.6895C18.3002 14.7816 17.818 15.1824 17.4315 15.1445C16.8136 15.0795 16.2664 14.3534 15.6377 14.3534C14.8087 14.3534 14.4351 14.8627 13.855 15.2638C13.5082 15.5021 13.01 15.7996 12.7281 16.0007C12.0563 16.4939 4.94729 18.6667 4.94729 18.6667L2.45488 18.5042L2.05376 15.8274L2.26807 8.83026C2.29451 8.8049 2.32094 8.77847 2.34773 8.75311L13.6804 2.83425L29.3892 0.426137C32.9081 1.00105 36.3038 2.16907 39.4317 3.88044L39.5121 4.23762L39.5132 4.23726Z" fill="#D8C173"/>
<path fill-rule="evenodd" clip-rule="evenodd" d="M45.3965 8.10055C45.1732 8.56739 44.9725 8.95778 44.9371 9.09744C44.9093 8.81598 44.8582 8.19842 44.7553 7.54192C44.9713 7.72551 45.185 7.91184 45.3965 8.10091L45.3965 8.10055Z" fill="#F1D789"/>
<path fill-rule="evenodd" clip-rule="evenodd" d="M33.9211 1.51552L31.8894 2.08058L31.7162 2.02629C31.7162 2.02629 31.624 1.972 31.624 1.78805C31.3694 1.93414 31.1526 1.90735 30.9954 2.0045C30.9143 1.83127 30.8332 1.25692 30.4754 1.18656C30.1017 1.10512 29.7006 1.34908 29.2942 1.65768C28.8934 1.97736 28.4369 2.37847 28.0915 2.54099C27.9648 2.30798 27.8525 2.06737 27.7554 1.82055C27.3004 2.18345 26.5092 3.65718 25.3823 3.63039C25.0566 4.40012 24.5124 5.05751 23.8171 5.52131C22.7713 6.23103 22.1159 6.28533 21.2976 6.22032C20.9726 6.64251 20.572 7.00075 20.1164 7.27686C19.981 7.22257 19.607 6.99505 19.1409 7.21186C18.6694 7.42831 18.1386 8.2684 17.4396 8.37663C17.063 8.42846 16.68 8.34805 16.356 8.1491C16.356 8.1491 14.32 10.1704 12.9152 10.8423C12.9695 11.0048 13.0777 11.617 11.4308 12.9718C11.3386 12.8903 11.4036 12.6628 11.3386 12.6503C11.3118 12.6503 10.91 12.8235 10.4014 13.2139C9.77274 13.6851 9.0198 14.1783 8.56475 14.3137C7.70751 14.5684 6.79813 14.0483 6.79813 14.0483C6.7208 14.1025 6.63462 14.1429 6.54346 14.1676C6.327 14.2055 6.16984 14.2326 6.05054 14.2748C6.06126 13.993 5.9041 13.5108 6.05054 13.0936C5.88091 12.9982 5.70122 12.9219 5.51477 12.866C5.60657 12.6657 5.80731 12.1563 6.14306 11.9124C5.8616 11.777 5.82373 11.6198 5.42262 11.4837C5.58514 11.2562 5.85124 10.8658 5.96982 10.6265C6.08912 10.3718 6.51738 9.3153 6.70704 8.91454C6.90742 8.51342 7.17817 7.77656 7.30854 7.62868C7.43891 7.48081 7.91003 6.85396 8.27293 6.54535C7.95147 6.66465 6.63632 7.06541 6.0784 7.21721C6.24449 6.97362 7.08637 5.72455 7.89575 4.52335C11.771 2.20062 16.0968 0.730492 20.5848 0.21092C25.0729 -0.308653 29.6202 0.134268 33.9236 1.51017L33.9211 1.51552Z" fill="#E0CD81"/>
<path fill-rule="evenodd" clip-rule="evenodd" d="M40.3547 36.9047C40.3547 36.9047 40.8258 36.9047 40.918 36.8397C41.0101 36.7747 40.4465 36.639 40.2733 36.574C40.1 36.509 39.7261 36.2111 39.6286 35.9725C39.5364 35.745 36.2421 34.4177 36.2421 34.4177L33.9122 34.537L33.1089 35.6467L34.637 36.9851L33.5654 40.144L34.9848 39.9165L38.3984 37.8806L40.1108 37.2248L40.3547 36.9047Z" fill="#DFC57C"/>
<path fill-rule="evenodd" clip-rule="evenodd" d="M35.2381 35.8589C35.2044 35.8044 35.157 35.7597 35.1006 35.7292C35.0441 35.6988 34.9807 35.6838 34.9166 35.6857C34.4344 35.6857 33.9905 35.5664 33.8062 35.3228C33.4972 34.9324 32.641 33.6862 32.641 33.6862L30.5929 32.9493L30.4608 35.361L32.6985 36.9158L35.2452 35.9786L35.2452 35.8593L35.2395 35.8593L35.2381 35.8589Z" fill="#E5CC7C"/>
<path fill-rule="evenodd" clip-rule="evenodd" d="M35.6398 34.9649C35.6398 34.9649 35.2662 34.9378 34.7947 35.1113C34.3232 35.2849 33.5485 35.6585 33.2124 35.5121C32.7413 35.3117 32.8388 34.6831 32.3291 34.1191C32.0205 33.7723 31.4569 33.783 31.1372 33.409C30.8175 33.035 29.7177 33.2086 29.7177 33.2086L29.3006 30.9584L30.9747 28.8124L31.5222 26.1468L33.786 26.1468L35.8541 26.9672L36.8728 29.4318L36.3635 31.9242L35.6398 34.9649Z" fill="#D2C281"/>
<path fill-rule="evenodd" clip-rule="evenodd" d="M31.2605 34.8567C31.2044 34.8394 31.146 34.8302 31.0873 34.8295C31.1523 34.7753 31.288 34.6563 31.2337 34.3474C31.1795 34.0384 31.0062 33.6484 31.1523 33.4101C31.0357 33.2826 30.9487 33.1309 30.8976 32.9658C30.8055 32.7 30.7783 32.4564 30.1772 32.4182C30.264 32.3648 30.3439 32.3011 30.4154 32.2286C30.4154 32.2286 29.9983 31.8657 29.7868 31.5299C29.5703 31.5392 28.996 31.7178 28.996 31.7178L28.8767 31.6363L28.622 31.7435C28.622 31.7435 28.8603 31.8357 28.687 32.4154C28.5245 32.9247 28.3781 32.8976 28.3656 32.9354C28.3531 32.9733 28.2463 33.5098 28.2463 33.7266C28.1652 34.008 28.1002 34.8642 28.1002 34.8642L28.2734 36.7551L29.2485 37.3459L30.0415 38.1113L30.7894 36.7026L31.282 36.2115L31.3198 34.9924L31.2605 34.8567Z" fill="#E2C270"/>
<path fill-rule="evenodd" clip-rule="evenodd" d="M28.915 36.4386C28.915 36.4386 28.7418 35.9457 28.6764 35.5664C28.6534 35.6401 28.6407 35.7167 28.6386 35.7939C28.6386 35.7939 28.5032 35.046 28.4764 34.737C28.4221 34.7481 28.3693 34.7641 28.3571 34.7102C28.345 34.6563 28.2214 34.0544 28.25 33.7187C28.0243 34.0909 27.7121 34.4031 27.3399 34.6288C27.1231 34.7645 26.8684 34.9106 26.6026 34.9217C26.1855 34.9324 25.8822 34.6559 25.3836 34.6559C24.181 34.6559 23.0915 35.5392 22.2897 35.81C21.6993 36.0107 21.1899 36.1568 20.8324 36.4822C20.6588 36.6283 20.3498 36.9533 20.0684 37.4359C19.6944 38.0788 19.3044 38.6385 18.914 38.7089C19.0906 38.6764 19.2703 38.6637 19.4497 38.671C19.4497 38.671 19.3304 38.7903 19.1283 38.9528C18.9261 39.1153 18.6839 39.3157 18.3375 39.3157C17.7195 39.3157 17.4109 39.2239 17.0641 39.2239C16.7173 39.2346 16.5169 39.3157 16.5169 39.3157C16.5169 39.3157 16.1537 39.061 15.3357 39.061C14.5174 39.0503 13.9702 38.98 13.5419 38.9417C13.1137 38.9035 11.6782 39.061 11.2663 39.0489C10.9978 39.0385 10.7342 38.974 10.4913 38.8592L11.8189 42.7168L16.588 46.8851L19.4272 44.8749L23.7948 40.5076L28.021 38.9417L28.9043 37.9502L28.9043 36.4386L28.915 36.4386Z" fill="#CCB360"/>
<path fill-rule="evenodd" clip-rule="evenodd" d="M19.4324 38.6495C19.4324 38.6495 19.3131 38.7685 19.1131 38.931C18.9131 39.0935 18.6684 39.2943 18.322 39.2943C17.7044 39.2943 17.3954 39.2021 17.0486 39.2021C16.7018 39.2128 16.5014 39.2943 16.5014 39.2943C16.5014 39.2943 16.1378 39.0399 15.3202 39.0399C14.5019 39.0292 13.9547 38.9589 13.5264 38.921C13.0982 38.8831 11.6627 39.0399 11.2508 39.0281C10.9824 39.018 10.7188 38.9535 10.4761 38.8385L11.0776 40.578L11.7763 41.9052L13.7704 44.0891C13.7704 44.0891 16.1635 45.4978 16.1817 45.5085C16.1924 45.5192 17.0107 45.736 17.0107 45.736L19.1781 44.4248L21.1448 39.3368L21.1826 38.2652L19.9096 37.6637C19.5899 38.1995 19.2374 38.6281 18.907 38.6824C19.2053 38.6499 19.4328 38.6499 19.4328 38.6499L19.4324 38.6495Z" fill="#D5B457"/>
<path fill-rule="evenodd" clip-rule="evenodd" d="M19.4594 38.2863C19.6491 38.2756 19.8059 38.3135 19.8495 38.4489C20.012 38.9039 20.142 38.9689 20.2781 38.9689C20.4142 38.9689 20.5978 38.6764 20.7067 38.6496C20.8156 38.6228 20.9449 38.9853 20.9449 38.9853L21.0642 39.0396C21.0642 39.0396 21.7632 38.5846 22.2561 38.0481C22.7491 37.5116 23.5566 36.6012 23.9195 36.439C24.2824 36.2768 25.529 36.2222 25.9555 36.13C26.3819 36.0379 26.8549 35.7289 26.9199 35.6586C26.9849 35.5882 26.7298 35.5125 26.692 35.4421C26.6541 35.3771 27.1095 35.4042 27.1474 35.335C27.1742 35.2807 27.0402 34.9721 26.9738 34.8149C26.8575 34.8727 26.73 34.9042 26.6002 34.907C26.183 34.9178 25.8794 34.6413 25.3811 34.6413C24.1781 34.6413 23.0891 35.5246 22.2872 35.7957C21.6964 35.9961 21.1871 36.1425 20.8296 36.4676C20.6563 36.6137 20.3474 36.9391 20.0656 37.4213C19.8598 37.7516 19.6591 38.0606 19.4583 38.2881L19.4594 38.2863Z" fill="#D2B257"/>
<path fill-rule="evenodd" clip-rule="evenodd" d="M36.7114 11.4706C36.7114 11.4706 36.8186 11.8717 37.8115 12.9064C38.0934 13.199 38.2666 13.4422 38.4563 13.6162C38.9277 14.0609 39.2042 14.1798 39.5399 14.4345C40.2768 14.9817 41.0787 14.9817 41.6963 15.6535C42.3138 16.3254 43.0335 17.6091 43.5336 18.921C44.0265 20.2323 44.1622 20.6494 44.1622 20.6873C44.1622 20.7252 44.0265 20.9798 43.8533 20.942C43.68 20.9041 43.68 20.5684 43.6365 20.4869C43.5502 20.354 43.4523 20.229 43.3439 20.1133C43.0893 19.8204 42.7264 19.4704 42.5421 18.9482C42.5799 19.3925 42.7317 19.8854 42.7317 19.8854C42.7317 19.8854 41.778 19.2839 40.9655 18.6557C40.1472 18.027 39.8114 17.8102 39.5724 17.4094C39.3335 17.0087 38.7706 15.9518 38.5009 15.6428C38.2312 15.3339 34.5362 14.1691 34.5362 14.1691L32.7785 12.8586L31.9059 10.9459L32.5888 9.87433L33.9001 9.59252L36.0296 10.5462L36.7114 11.4709L36.7114 11.4706Z" fill="#D2B159"/>
<path fill-rule="evenodd" clip-rule="evenodd" d="M41.4421 18.0595C41.4421 18.0595 40.9978 17.3497 39.9141 16.6779C38.9387 16.0871 37.3946 15.5506 36.018 15.2309C35.2272 15.0413 34.436 14.8952 33.7263 14.8841C31.8136 14.8573 30.497 15.4042 28.8658 15.5831C27.9825 15.6753 26.8988 15.7456 25.7719 16.0117C24.3253 16.3586 23.4691 16.749 22.304 17.2976C21.4589 17.6876 20.6838 17.9802 20.0555 18.3541C19.1722 18.8742 18.5275 19.4539 17.7796 19.6271C17.8717 19.3725 17.9692 18.9174 18.7061 18.4459C18.3161 18.457 17.7796 18.4838 17.7796 18.4838C17.7796 18.4838 18.2996 18.1752 19.2155 17.4815C19.7791 17.0529 20.5267 16.3275 21.2907 15.8453C21.7839 15.5363 22.3204 15.3095 22.6726 15.1245C23.5298 14.653 23.8756 14.4148 24.4389 13.8386C24.2385 13.8494 24.2221 13.8386 24.2221 13.8386C24.2221 13.8386 24.9321 13.7465 25.4411 13.4758C25.5483 13.4758 25.734 13.5136 26.059 13.4215C26.3137 13.3404 26.6498 13.1557 26.9963 13.0586C27.4896 12.9121 27.6517 12.9771 27.6517 12.9771L27.5706 12.8146C27.5706 12.8146 28.2136 12.8257 28.4279 12.8039C28.39 12.7932 28.4007 12.7767 28.4007 12.7767C28.4384 12.7704 28.4746 12.7576 28.5079 12.7389C28.611 12.6721 28.7244 12.6227 28.8436 12.5928C28.9086 12.5821 28.9629 12.5821 29.0444 12.5657C29.0172 12.5006 28.8058 12.137 28.7083 11.9227C28.7893 11.8684 30.0088 10.9473 30.0088 10.9473C29.9709 10.8877 29.94 10.8241 29.9166 10.7576C29.8787 10.6387 29.8623 10.4651 29.8245 10.384C29.7327 10.2215 29.6784 10.1943 29.6784 10.1943C29.6784 10.1943 29.8245 10.1672 30.0795 10.1022C30.2959 10.0479 30.5617 9.95608 30.9367 9.90179C31.0518 9.88683 31.1675 9.87776 31.2835 9.87464C31.2292 9.75535 30.991 9.3003 31.43 8.77488C31.869 8.24947 32.0043 8.17303 32.1397 7.83728C32.2078 7.88881 32.2804 7.93423 32.3565 7.97301C32.5026 8.03802 32.7033 8.13517 32.7737 8.26554C32.8147 8.09184 32.8691 7.92156 32.9362 7.7562C33.0716 7.39331 33.272 7.03541 33.3098 6.76466C33.4563 6.92718 33.727 7.24686 34.101 7.18185C34.475 7.11684 34.7728 6.60751 34.8379 6.46106C34.8379 6.55321 34.9029 6.62358 34.9189 6.51535C34.93 6.39605 35.1357 5.1502 36.2844 4.14224C36.2952 4.39691 36.2952 4.96054 36.3223 5.14449C36.4295 5.03733 36.5605 4.8791 37.341 4.54299C38.105 4.20724 37.9839 3.87114 37.9839 3.87114C37.9839 3.87114 38.0489 4.40691 37.6371 4.97126C37.2199 5.53453 36.9652 5.80027 36.9652 5.84349C36.972 5.88751 36.9908 5.9288 37.0195 5.96279C37.0738 6.01708 37.182 6.08209 37.182 6.12531C37.117 6.1521 36.4723 6.46106 36.5102 7.10077C36.548 7.67477 36.7916 7.97301 36.9652 8.1841C36.992 8.21125 36.7102 8.41163 36.7484 8.47663C36.7756 8.5145 37.122 8.76952 37.1656 8.90525C37.1554 8.98625 37.1372 9.06605 37.1113 9.14349C37.0735 9.26279 37.0463 9.34423 37.057 9.42531C37.0842 9.56068 37.2306 9.93465 37.2738 9.97251C37.236 9.9618 36.9652 9.97251 36.9652 9.97251C36.9652 9.97251 37.1817 10.3193 37.2199 10.4819C37.2581 10.6444 37.3392 11.0726 37.3824 11.1537C37.2903 11.143 37.0627 11.1269 37.0627 11.1537C37.0517 11.2352 37.2631 11.3705 37.1699 11.4752C37.1049 11.4645 36.9802 11.4102 36.8613 11.2584C36.9263 11.432 37.0345 11.7677 37.2624 11.9031C37.1552 11.9409 36.7909 12.0388 36.4712 11.8491C36.1516 11.6595 36.0426 11.3941 36.0426 11.3941C36.0426 11.3941 35.853 11.2477 35.5601 11.0308C35.2243 10.7655 34.7964 10.3879 34.1135 10.1207C33.967 10.0393 33.5934 10.0393 33.3223 10.0936C33.2043 10.1217 33.0911 10.1674 32.9866 10.229C32.9488 10.2512 32.9089 10.2694 32.8673 10.2833C32.9255 10.4002 32.9925 10.5125 33.0677 10.6194C32.9755 10.6194 32.8673 10.6083 32.8673 10.6083C32.8673 10.6083 32.8023 10.7547 33.0948 11.0369C33.0298 11.1019 32.9484 11.1441 32.9484 11.2537C33.0405 11.2644 33.203 11.3998 33.2409 11.4541C33.187 11.492 33.1055 11.6166 33.0134 11.6545C33.0948 11.7195 33.2952 11.9906 33.3873 12.0174C33.2993 12.0501 33.2141 12.09 33.1327 12.1367C33.1327 12.1367 33.5877 12.256 33.7342 12.3535C33.8806 12.4606 34.0971 12.646 34.2271 12.7003C34.3628 12.7546 34.601 12.7814 34.6986 12.89C34.6068 12.8628 34.4603 12.89 34.3517 12.89C34.2707 12.89 34.2324 12.8793 34.2056 12.8793C34.2164 12.9171 34.2164 12.9986 34.0049 13.0253C33.9032 13.0407 33.8045 13.0718 33.7124 13.1175C33.7124 13.1175 33.9131 13.1282 34.141 13.345C34.3689 13.5618 34.5582 13.7351 34.6882 13.7622C34.8236 13.7894 35.0782 13.6701 35.2354 13.6811C35.4522 13.7079 35.5444 13.8165 35.5444 13.8165C35.5444 13.8165 36.2648 13.7515 37.8632 14.7266C39.2451 15.5721 39.8466 16.3196 39.8466 16.3196C39.9759 16.3666 40.1009 16.4247 40.2202 16.4932C40.7403 16.764 41.4611 17.3276 41.4393 18.0648L41.4421 18.0595Z" fill="#C2A44D"/>
<path fill-rule="evenodd" clip-rule="evenodd" d="M21.5081 50.5809C21.3827 50.5401 21.2713 50.465 21.1866 50.364C20.9319 50.0715 20.7694 49.5189 21.3491 48.9282C21.1216 48.8471 21.0277 48.821 20.8291 48.8471C21.0295 48.6085 21.4845 48.0992 21.5116 47.6548C21.5388 47.2919 21.3113 47.1833 21.3113 47.1833C21.3113 47.1833 21.6581 46.7826 21.6742 46.1118C21.5104 46.2965 21.3311 46.4669 21.1384 46.6211C20.7373 46.9408 20.1847 47.3037 19.8107 47.5312C19.8158 47.4359 19.803 47.3404 19.7729 47.2498C19.7729 47.2498 19.0742 47.8241 18.487 47.5691C18.2216 47.4498 18.3409 47.0762 18.3409 47.0762C18.3409 47.0762 17.9777 47.2116 17.723 46.9569C17.4684 46.7022 17.1083 46.0454 16.9237 45.7907C16.8426 45.6714 16.6311 45.4439 16.4147 45.0917C16.119 44.5986 15.872 44.0779 15.6774 43.5369C15.6667 43.8187 15.5964 44.2573 14.7941 43.9812C13.9923 43.6994 13.0822 43.1086 12.3182 41.9453C11.5541 40.7819 11.3648 39.4686 10.9801 38.9685C10.5901 38.4863 10.189 37.6844 10.1618 37.3483C10.1347 37.0122 10.2811 35.9289 9.47927 32.9975C9.25175 33.9076 8.90492 35.9289 8.90492 35.9289L8.71526 37.7116L8.49845 43.2276L14.2584 48.0127L18.761 51.2802L21.6924 50.9984L21.5084 50.5812L21.5081 50.5809Z" fill="#CAA13E"/>
<path fill-rule="evenodd" clip-rule="evenodd" d="M10.8062 42.3721C10.8062 42.3721 10.8876 42.9079 12.242 43.8187C13.5968 44.7181 14.6534 44.7181 15.6285 45.4821C16.3764 46.0836 17.1565 47.4655 17.6644 47.9206C18.1577 48.3703 18.2388 49.6708 18.2388 49.6708L16.5754 51.0638L14.1015 54.6395L12.0102 56.9423L11.008 55.5493L9.61498 53.913L8.84025 50.6294L8.55844 45.8232L10.8087 42.3717L10.8062 42.3721Z" fill="#B59544"/>
<path fill-rule="evenodd" clip-rule="evenodd" d="M9.13205 36.6112C9.09105 37.34 9.18106 38.0704 9.3978 38.7675C9.75498 39.8783 10.5354 41.8507 10.898 42.5893C11.0444 43.4076 10.9358 43.4726 10.7787 43.5648C10.6215 43.6569 10.0307 43.9934 9.70711 45.1739C9.3835 46.3544 8.37947 46.3929 8.37947 46.3929L7.7619 46.848L6.8243 44.502L6.00635 42.3832L5.75168 40.763L5.56202 39.3815L6.00635 36.4608L8.20052 34.4777L9.13241 36.6112L9.13205 36.6112Z" fill="#C89D3A"/>
<path fill-rule="evenodd" clip-rule="evenodd" d="M39.7515 4.05798L39.7515 4.11799C39.7059 4.14649 39.6656 4.18276 39.6325 4.22514C39.5947 4.27943 39.5672 4.34444 39.5404 4.36051C39.4861 4.38766 39.2314 4.46767 39.096 4.44195C38.9607 4.41623 38.6028 4.26872 38.4131 4.27943C38.0231 4.29015 37.568 4.5884 36.8472 4.45267C35.7635 4.25229 35.5089 3.51542 34.8802 3.09823C34.4516 2.80534 34.008 2.93571 33.943 2.93571L33.7969 2.93571C33.7697 2.93571 33.5694 3.16324 33.4608 3.15216C33.244 3.14145 33.2225 2.9625 33.0872 2.95178C32.7675 2.91392 32.1496 3.1143 31.8406 3.03287C31.749 3.00417 31.6657 2.95374 31.5978 2.88589C31.5298 2.81804 31.4793 2.73476 31.4506 2.64318C31.3855 2.4428 31.4398 2.18813 31.597 2.04168C31.9327 1.73308 32.2524 1.44019 32.3174 1.18445C32.2348 1.1214 32.1554 1.05416 32.0796 0.982994C34.7605 1.66606 37.3399 2.69884 39.7515 4.05476L39.7515 4.05798Z" fill="#CEB052"/>
<path fill-rule="evenodd" clip-rule="evenodd" d="M10.8986 14.8841C10.8986 14.8841 10.0535 16.011 9.76058 16.5693C9.46805 17.1447 10.6871 24.4312 10.6871 24.4312L8.23792 32.4557L8.30328 35.0674C8.30328 35.0674 8.18399 37.4787 7.90217 38.5246C7.56606 37.9231 6.52023 37.1969 6.29271 36.8122C6.18555 37.5495 5.82158 39.1043 5.87552 40.7623C5.67514 40.4537 5.19294 37.3487 5.19294 37.3487L4.71075 35.2574L4.08211 33.0357L3.38311 30.6894L2.96592 29.0692L2.72768 28.6792L2.52694 27.9966L2.33728 27.2594L1.79008 25.531L1.46862 24.1116L1.21395 21.5377C1.15855 21.3406 1.11866 21.1395 1.09465 20.9362C1.08393 20.6544 1.13251 20.4919 1.13251 20.443C1.13251 20.394 1.04036 19.8254 1.07822 19.3971C1.13251 18.9685 1.13251 18.6331 1.46862 18.3256C1.80473 18.018 2.01582 16.18 2.01582 16.18L2.61731 16.5807C2.61731 16.5807 2.49801 17.1283 2.77983 17.6266C3.06165 18.1248 3.60885 18.2281 3.91781 18.1466C4.22642 18.0816 4.84398 17.9845 5.04472 17.8109C5.23438 17.6376 5.70015 17.1012 6.12841 16.8572C6.66418 16.5357 7.53713 16.5104 8.00289 16.4022C8.47437 16.295 8.99443 15.9735 9.54199 15.6003C9.97131 15.3223 10.4246 15.0833 10.8964 14.8859L10.8986 14.8841Z" fill="#CCA847"/>
<path fill-rule="evenodd" clip-rule="evenodd" d="M10.8986 3.045C10.8986 3.045 10.8628 3.02179 10.7939 2.98392C6.94436 4.78749 3.49517 7.34402 0.649954 10.5026C0.681029 11.5991 0.721389 12.7232 0.76568 13.1397C0.857476 14.023 0.792468 14.9224 0.819615 15.4424C0.84676 15.9625 1.13929 18.0813 1.27466 18.6285C1.42111 19.1757 1.70328 19.4468 1.74614 19.4468C1.784 19.4357 2.01189 18.417 2.01189 18.1609C2.01189 17.9048 2.06618 17.2883 2.06618 17.1312C2.10404 17.1422 2.12011 17.2383 2.12011 17.2776C2.17441 17.1422 2.23941 16.9036 2.26656 16.8765C2.2937 16.8494 2.2287 17.104 2.26656 17.1583C2.30442 17.2126 2.37371 17.1855 2.35871 17.3208C2.35229 17.4011 2.33964 17.4808 2.32085 17.5591C2.32085 17.5591 2.48337 17.3208 2.60231 16.714C2.72161 16.1125 2.7216 16.0961 2.76482 16.0421C2.80269 15.9768 3.0195 15.7603 3.03057 15.6789C3.04128 15.5328 2.82983 15.3863 2.81376 15.3053C2.80304 15.1695 3.00342 14.5412 3.06843 14.2337C3.13344 13.9262 3.10629 13.3236 3.17558 13.0147C3.22987 12.7328 3.28274 12.5703 3.46812 12.4514C3.33274 12.4242 3.20273 12.3864 3.20273 12.3864C3.20273 12.3864 3.01307 11.5845 3.49526 10.9016C3.6685 10.6633 3.71171 10.5547 3.89602 10.3379C4.25927 9.93718 4.54109 9.4807 4.56823 9.18388C4.58698 9.27148 4.59963 9.36028 4.6061 9.44963C4.6061 9.44963 5.16937 8.79384 5.40797 8.41987C5.71657 7.93767 6.14483 7.96482 6.2652 7.84552C6.38557 7.72622 6.41165 7.50977 6.37236 7.33618C6.47951 7.30939 6.68096 7.27117 6.81669 6.85399C6.8817 6.63753 7.04422 6.42537 7.29889 6.27964C7.55356 6.13391 7.86252 6.08997 8.01968 6.05211C7.88431 6.01425 7.83002 6.01425 7.76501 5.97103C7.84609 5.83566 8.22006 5.62421 8.63725 5.35311C9.05443 5.09844 9.25517 4.72482 9.35804 4.48087C9.46519 4.25334 9.62342 4.1069 9.8781 4.07975C9.77094 4.01475 9.61235 3.8633 9.53127 3.81437C9.65057 3.78723 9.85274 3.78722 10.2138 3.47826C10.5932 3.16394 10.7232 3.07179 10.8968 3.04464L10.8986 3.045Z" fill="#C39D3C"/>
<path fill-rule="evenodd" clip-rule="evenodd" d="M18.4377 0.534021C18.2302 0.679452 18.0055 0.79859 17.7687 0.888704C16.9236 1.22445 16.0295 1.28946 15.6774 1.39769C15.3413 1.50484 15.0759 1.65271 14.6587 1.73379C14.6698 1.63878 14.679 1.54949 14.689 1.46519C15.919 1.07853 17.1715 0.767556 18.4395 0.534021L18.4377 0.534021Z" fill="#D2BA6B"/>
<path fill-rule="evenodd" clip-rule="evenodd" d="M2.8504 22.7625C2.8504 22.7625 3.02363 21.8252 3.33259 21.2345C3.64155 20.6437 3.97552 19.8257 3.97552 19.8257C3.9735 20.01 3.9517 20.1936 3.91051 20.3733C4.30056 20.1458 5.24887 19.5982 5.51783 19.3546C5.7725 19.1271 6.20076 18.726 6.30898 18.5363C6.05431 19.2839 5.78893 19.9557 5.74536 20.2647C6.1354 19.9829 7.95631 18.482 8.90427 17.4905L11.8574 15.1009C12.1982 14.9171 12.5492 14.7528 12.9086 14.6087C13.4176 14.3923 14.0191 14.208 14.4634 14.0344C14.3441 14.3541 14.1548 14.6362 13.8891 14.907C13.6073 15.1724 12.7622 16.0882 12.6322 16.5143C12.5129 16.9586 12.4857 17.224 12.6429 17.598C12.7893 17.5601 13.1251 17.5437 13.3526 17.4787C13.5801 17.4137 13.8241 17.1701 13.8241 17.1701C13.8241 17.1701 13.6509 18.1616 13.2769 19.0989C13.5587 19.0881 14.0409 19.0071 14.0409 19.0071C14.0409 19.0071 13.369 20.134 12.2193 20.9194C12.5714 20.8445 12.9159 20.7376 13.2487 20.6001C13.9205 20.3183 14.6574 19.9011 15.2046 19.6736C14.896 20.1022 12.7286 23.1954 11.4388 26.0782C10.153 28.9553 9.67256 29.6922 9.39075 31.2363C9.24466 32.0003 9.28359 33.1293 9.24466 34.1405C9.2068 35.1431 9.08214 36.0425 9.16322 36.644C8.82747 36.2268 7.57019 35.051 7.52698 32.4228C7.48911 29.795 8.7296 26.2457 10.0465 24.3334C9.72507 24.2412 8.89212 24.1326 8.03631 25.6192C7.18051 27.1058 7.19087 27.5209 6.8819 28.1388C6.84404 27.8298 6.85512 27.7216 6.85512 27.7216C6.85512 27.7216 5.60855 29.2332 5.01813 31.1352C4.89883 30.3169 4.54665 29.5961 5.09957 28.0952C5.59248 26.7408 6.23719 26.41 6.23719 26.41C6.23719 26.41 5.91752 26.4643 5.44639 26.7461C5.36496 26.5457 5.38103 26.3175 5.24566 26.2368C5.11029 26.1561 4.92598 26.02 4.89883 25.89C4.75274 26.1068 4.52522 26.3832 4.4545 26.589C4.50879 26.1603 4.54665 24.2862 4.34735 23.3325C3.9298 23.3704 3.5019 23.3975 3.20937 24.1508C3.40974 23.4136 3.40974 22.9696 3.27437 22.341C3.0522 22.4924 2.85183 22.7635 2.85183 22.7635L2.8504 22.7625Z" fill="#C0993A"/>
<path fill-rule="evenodd" clip-rule="evenodd" d="M16.929 52.629C16.929 52.629 17.3462 52.4557 18.056 52.4557C18.6735 52.4557 18.5003 52.694 19.4647 52.694C20.9491 52.694 26.1347 51.8367 27.0452 51.8489C27.6359 51.8596 25.0514 51.5942 25.0514 51.5942L18.446 51.5021L17.1187 51.6092L16.6254 52.6129L16.929 52.629Z" fill="#A88F33"/>
<path fill-rule="evenodd" clip-rule="evenodd" d="M34.0568 39.7168C34.0568 39.7168 34.9023 39.0721 35.2598 38.5789C35.6174 38.0856 35.807 37.7609 36.2135 37.3598C36.1181 37.3562 36.0228 37.369 35.9317 37.3977C35.9317 37.3977 35.9317 37.2905 35.9967 37.2623C35.9405 37.2686 35.8836 37.2622 35.8303 37.2437C35.7769 37.2251 35.7283 37.1949 35.6881 37.1551C35.8074 37.0901 36.1324 36.7647 35.8777 36.38C35.6881 36.0875 35.287 36.0607 35.287 36.0607C35.287 36.0607 35.3791 35.795 34.9944 35.8221C34.1654 35.86 33.2389 36.2232 32.811 36.1311C32.3824 36.0239 32.1388 35.9846 31.8355 35.4589C31.5141 34.9388 31.234 34.8574 31.234 34.8574C31.234 34.8574 31.0444 35.3399 31.0876 36.0604C30.9321 36.4487 30.8459 36.8613 30.8329 37.2794L31.1147 39.3547L32.3445 40.9098L33.9375 40.0265L34.0568 39.7179L34.0568 39.7168Z" fill="#E3C571"/>
<path fill-rule="evenodd" clip-rule="evenodd" d="M32.545 40.0258C32.545 40.0258 32.4257 39.744 31.9271 39.7172C31.9814 39.5979 31.9814 39.5815 31.965 39.4897C31.9543 39.3975 31.9382 39.2621 31.9382 39.2621C31.8833 39.2887 31.8337 39.325 31.7917 39.3693C31.7646 39.25 31.8189 39.0607 31.7917 38.925C31.775 38.8424 31.7478 38.7623 31.7107 38.6867C31.7028 38.7053 31.6937 38.7233 31.6835 38.7407C31.6728 38.7678 31.5764 38.4481 31.3096 38.2049C31.3098 38.2423 31.3006 38.2791 31.2828 38.312C31.2787 38.2441 31.2562 38.1785 31.2178 38.1224C31.2377 38.1319 31.256 38.1447 31.2717 38.1602C31.2717 38.1602 31.2449 37.303 31.0985 36.8597C31.074 36.8884 31.0522 36.9192 31.0335 36.9519C31.0335 36.9787 31.0442 36.7133 31.0713 36.5233C31.1092 36.3336 31.082 36.0682 31.082 36.0682C30.9843 36.1451 30.877 36.2089 30.7627 36.2579C30.6002 36.3232 30.3341 36.5236 30.1719 36.968C30.0779 37.2196 30.0053 37.4788 29.9551 37.7427C29.9027 37.6418 29.8666 37.5333 29.848 37.4212C29.8369 37.2859 29.5822 37.3562 29.5822 37.3562L29.5279 37.947L29.2065 39.2854L28.9139 40.1144L27.5052 42.3085L24.9599 44.2688L22.7383 43.7594L20.8638 46.3061L24.0931 48.246L27.1491 47.9263L29.9226 44.0848L32.1439 40.6005L32.545 40.0262L32.545 40.0258Z" fill="#D8B65B"/>
<path fill-rule="evenodd" clip-rule="evenodd" d="M16.5391 45.585C16.5391 45.585 16.7288 45.5471 17.276 45.2635C17.8232 44.9799 18.2025 44.8899 18.4139 44.4727C18.6254 44.0555 18.6415 43.7248 18.6415 43.7248C18.6415 43.7248 18.2675 43.8873 18.0507 43.9416C17.8232 43.9955 17.5685 43.9795 17.5956 43.8873C17.6217 43.8241 17.6579 43.7656 17.7028 43.7141C17.7028 43.7141 17.2742 43.7248 17.2856 43.5133C17.297 43.3019 17.3667 43.069 17.4478 42.9661C17.5292 42.859 17.865 42.7004 17.9028 42.5757C17.995 42.3211 17.865 42.3104 17.9139 42.1046C17.9517 41.9039 18.1303 41.5138 18.7158 40.8313C19.3173 40.1483 19.573 39.6661 19.573 39.6661C19.573 39.6661 19.8655 40.2133 20.0173 40.6848C20.1245 40.6309 20.6999 40.3112 20.6999 40.3112L22.0329 44.9546L22.0061 45.2635C22.0061 45.2635 21.8868 45.4096 21.8597 45.6807C22.0601 45.7457 22.0872 45.8 22.3529 46.0543C22.6187 46.3086 22.8351 46.618 23.2791 46.8294C23.3441 46.9487 23.4256 47.1109 23.7506 47.1762C24.0756 47.2416 24.2707 47.2952 24.2707 47.2952C24.2707 47.2952 24.0974 47.3605 24.016 47.4959C24.2167 47.4688 24.3789 47.4038 24.8179 47.4145C25.2622 47.4256 25.3111 47.4416 25.5547 47.4038C25.7983 47.3659 26.0905 47.2573 26.1994 47.6313C26.3187 47.7234 26.5734 47.642 26.7902 47.3227C27.007 47.0034 27.0827 46.7483 27.4999 46.6237C27.5293 46.4398 27.5937 46.2632 27.6896 46.1036C27.8089 45.9029 27.9986 45.7025 28.2532 45.4046C28.6543 44.9331 28.5893 44.1584 29.2287 43.5676C29.8734 42.9772 29.1215 45.2042 29.1215 45.2042L28.0921 47.6688L25.1608 50.5352L20.6092 50.8438L20.1648 48.4864L17.9432 47.7224L16.5398 45.5821L16.5391 45.585Z" fill="#D3AE4D"/>
<path fill-rule="evenodd" clip-rule="evenodd" d="M15.8182 45.0649L17.7309 47.8227L19.0693 48.8525C19.0693 48.8525 20.023 50.6077 20.088 50.662C20.1423 50.6998 21.0416 50.7973 21.616 50.8352L21.5088 50.5698C21.3835 50.5291 21.2721 50.454 21.1874 50.353C20.9327 50.0605 20.7702 49.5079 21.3499 48.9171C21.1224 48.8361 21.0284 48.81 20.8298 48.8361C21.0302 48.5975 21.4853 48.0881 21.5124 47.6438C21.5396 47.2809 21.312 47.1727 21.312 47.1727C21.312 47.1727 21.6589 46.7716 21.6749 46.1011C21.5111 46.2858 21.3319 46.4562 21.1392 46.6105C20.738 46.9319 20.1855 47.2934 19.8115 47.5209C19.8166 47.4254 19.8038 47.3298 19.7737 47.2391C19.7737 47.2391 19.075 47.8134 18.4878 47.5588C18.2224 47.4395 18.3417 47.0655 18.3417 47.0655C18.3417 47.0655 17.9785 47.2009 17.7238 46.9462C17.4691 46.6915 17.1062 46.0361 16.9219 45.7811C16.8408 45.6618 16.6294 45.4343 16.4129 45.0824C16.1172 44.5893 15.8702 44.0684 15.6757 43.5273C15.665 43.7441 15.6214 44.0473 15.2471 44.0473L15.8161 45.066L15.8182 45.0649Z" fill="#CAA13E"/>
<path fill-rule="evenodd" clip-rule="evenodd" d="M44.4924 37.2298C44.4924 37.2298 44.6278 37.5659 44.4924 38.2213C44.3571 38.8767 44.1456 39.1857 44.0753 40.1501C44.0049 41.1145 43.3763 42.3175 43.3763 42.3175L41.6371 43.1083L40.407 42.7725L40.0441 41.1252L41.5993 40.268C41.5993 40.268 41.6804 39.9051 42.1193 39.6125C42.5583 39.32 43.1652 39.0925 43.3112 38.7942C43.3986 38.6116 43.4623 38.4186 43.5009 38.2199C43.5009 38.2199 43.9452 38.312 44.2106 38.0195C44.4924 37.7213 44.4817 37.4559 44.4924 37.2284L44.4924 37.2298Z" fill="#F4EFC8"/>
<path fill-rule="evenodd" clip-rule="evenodd" d="M40.9815 37.6688C40.9815 37.6688 41.128 37.5766 41.2362 37.3473C41.3434 37.5205 41.5995 38.5503 41.6102 39.4768C41.6209 40.4033 41.6763 40.633 41.462 40.9523C41.2476 41.2716 40.4072 41.6081 40.5265 42.1832C40.6458 42.7304 41.1444 42.9579 41.7566 42.8007C42.1852 42.6936 42.5042 41.7821 42.9485 41.327C43.2846 40.9802 43.6854 41.0345 43.7936 40.8448C43.9401 40.5901 43.8047 40.3355 43.8479 40.173C43.859 40.1187 43.9944 39.8261 44.2383 39.474C44.7312 38.7642 45.5656 37.7616 45.6742 36.8622C45.6363 37.3716 45.6631 37.3823 45.5278 37.9459L45.6092 38.0813L45.0734 39.8369L44.7266 41.2834L43.9515 43.7058L42.5864 46.1818L41.2587 47.6666L39.8771 47.5745L39.7146 45.4992L38.9235 41.6031L37.2601 39.555L39.9261 37.7609L40.9826 37.6688L40.9815 37.6688Z" fill="#EBCC73"/>
<path fill-rule="evenodd" clip-rule="evenodd" d="M40.1525 36.9326C40.1525 36.9326 40.38 36.8783 40.4615 36.9215C40.5429 36.9648 40.6236 37.0137 40.5969 37.068C40.5701 37.1223 40.4236 37.2141 40.4236 37.2576C40.4206 37.297 40.4331 37.336 40.4583 37.3664C40.4836 37.3967 40.5197 37.416 40.559 37.4202C40.6836 37.4362 40.7215 37.3552 40.7215 37.3552C40.7215 37.3552 40.8408 37.4469 40.938 37.4623C40.8805 37.4693 40.8226 37.473 40.7647 37.4734C40.9145 37.5412 41.0733 37.5868 41.2362 37.6088C41.1008 37.6898 40.8351 37.9284 40.6619 37.9284C40.4886 37.9284 40.38 37.9552 40.4072 38.0474C40.4343 38.1395 40.5697 38.2749 40.7158 38.3292C40.6619 38.3942 40.6236 38.4917 40.7537 38.7578C40.8894 39.0232 40.8351 39.2021 40.7915 39.2668C40.7537 39.3482 40.6183 39.4943 40.5533 39.5865C40.4883 39.6786 40.434 39.8033 40.3258 39.8683C40.2715 39.9061 40.0982 39.9754 39.9246 40.0415C39.735 40.1065 39.5778 40.188 39.4696 40.1065C39.3503 40.0254 39.4046 39.9169 39.4046 39.9169C39.4046 39.9169 39.0306 40.0526 38.6949 39.879C38.3588 39.7168 37.5404 39.6136 37.5404 39.6136L37.2472 39.0228L39.1871 37.3594L39.9889 36.9583L40.1514 36.9315L40.1525 36.9326Z" fill="#E5C66B"/>
<path fill-rule="evenodd" clip-rule="evenodd" d="M37.4596 39.6519C37.4596 39.6519 38.0611 39.2507 38.1965 39.1047C38.1154 39.0936 37.98 39.0393 38.0343 38.9582C38.0993 38.8771 38.4894 38.5953 38.7062 38.3296C38.9337 38.0642 39.1505 37.7281 39.2263 37.5656C39.3073 37.4195 39.9253 36.9912 40.1364 36.9373C39.692 36.9373 38.798 37.4845 38.4622 37.4845C38.473 37.322 38.3701 37.1377 38.1804 37.1216C37.9908 37.1055 37.4436 37.0023 36.7067 37.4573C35.9698 37.9017 36.2134 38.2324 35.9048 38.4489C35.314 38.8393 35.0758 39.1861 34.7508 39.4025C34.4257 39.619 34.2575 39.6683 34.2575 39.6683C34.2575 39.6683 34.2468 39.8308 34.1503 39.8144C34.1239 39.8113 34.0989 39.8012 34.0779 39.7849C34.0568 39.7687 34.0406 39.747 34.031 39.7222C34.031 39.7222 33.4674 40.1233 32.7452 40.2316C32.762 40.2391 32.7755 40.2526 32.7831 40.2694C32.7831 40.2694 32.7291 40.2966 32.718 40.3237C32.718 40.3237 32.6802 40.378 32.653 40.3509C32.6259 40.3237 32.588 40.1233 32.5337 40.0419C32.4144 40.0962 32.1869 40.6055 32.1869 40.6055L31.6394 42.1714L31.6394 43.6019L32.068 43.5205L35.2826 42.1553L37.2335 40.1341L37.4611 39.6519L37.4596 39.6519Z" fill="#E6BD62"/>
<path fill-rule="evenodd" clip-rule="evenodd" d="M28.2053 46.6686C28.0314 46.7108 27.8647 46.7785 27.7106 46.8694C27.7756 46.6958 27.7756 46.5061 28.0574 46.0943C28.3392 45.6825 28.35 45.6228 28.5775 45.1949C28.805 44.7506 28.8321 44.1112 29.049 43.8298C28.9518 43.877 28.8475 43.908 28.7404 43.9216C28.7404 43.9216 28.9568 43.7319 29.049 43.5315C29.1411 43.3311 29.3036 42.914 29.7044 42.6589C30.1051 42.4039 30.6148 42.2417 31.162 41.6402C31.7096 41.0498 32.2729 40.3019 32.5551 40.0329C32.4086 40.2876 32.2082 40.7969 32.1539 41.1327C32.0996 41.4684 32.165 41.8699 32.0729 42.3139C31.9807 42.7579 31.9807 43.0779 31.5371 43.853C31.0935 44.6281 30.3341 47.3209 30.3341 47.3209L28.6978 47.8409L28.2046 46.6704L28.2053 46.6686Z" fill="#B6933F"/>
<path fill-rule="evenodd" clip-rule="evenodd" d="M29.3861 47.6602C29.3861 47.6602 29.879 46.9505 30.0144 46.3219C30.1498 45.6932 30.0255 45.7475 30.1066 45.4385C30.1551 45.2502 30.1551 45.0526 30.1066 44.8642C29.9359 45.1392 29.7021 45.3696 29.4247 45.5364C28.9586 45.8179 28.5793 46.0186 28.3532 46.2569C28.1256 46.5115 27.936 46.9287 27.4431 47.2484C27.6435 47.2755 27.9253 47.3677 27.9788 47.3555C27.7781 47.5831 27.177 47.9299 26.5701 48.3471C25.9686 48.7757 26.0065 48.9486 25.031 49.3765C25.3507 49.3222 25.5025 49.4036 25.7682 49.3765C25.6611 49.604 25.2861 49.7126 24.911 50.0862C24.536 50.4598 25.1493 51.0127 25.1493 51.0127L28.0067 49.2843L29.3883 47.6588L29.3861 47.6602Z" fill="#C49937"/>
<path fill-rule="evenodd" clip-rule="evenodd" d="M37.14 48.95L37.075 49.47L36.2567 50.7813L35.4005 53.084L35.4005 56.2322L35.4655 58.0528L35.3302 59.245L35.2273 59.624L35.1187 59.7704L34.4201 59.4075L33.4553 58.0963L33.3632 55.5657L34.3008 51.5724L36.9775 48.6517L37.14 48.95Z" fill="#DFC068"/>
<path fill-rule="evenodd" clip-rule="evenodd" d="M35.0106 59.9169C35.0106 59.9169 35.4392 59.9058 35.5306 58.1231C35.622 56.3404 35.6663 55.4032 35.7313 54.5199C35.7964 53.6365 35.9478 53.1004 36.0239 52.58C36.1 52.0596 36.1432 51.3502 36.3868 50.9166C36.4939 50.7162 36.7229 50.0876 37.2594 49.6161C37.8609 49.096 38.7595 48.7328 38.8956 48.7056C39.1342 48.6517 40.3426 48.5324 40.8355 48.2613C41.0087 48.1692 41.3069 48.0609 41.6373 47.752C42.2931 47.1616 43.1654 46.105 43.794 44.8317C44.7584 42.9297 45.7228 37.5602 45.7228 37.5602L45.506 37.923C45.506 37.923 45.4788 38.4052 44.9966 39.2507C44.5252 40.0958 44.6605 41.0441 44.0051 42.6643C43.7504 43.2818 43.4307 44.0837 43.0407 44.7667C42.4228 45.8775 41.6752 46.8312 40.9219 47.3512C39.6921 48.1963 38.3373 48.3806 38.3373 48.3806L36.8797 49.345C36.8797 49.345 36.625 49.8379 36.2889 50.4015C35.8178 51.1923 35.2174 52.0757 35.0863 53.3597C34.8855 55.2617 35.3681 56.5079 35.3409 57.6348C35.3138 58.7617 35.3031 59.5908 35.0752 59.7915C34.8473 59.9922 35.0102 59.9162 35.0102 59.9162L35.0106 59.9169Z" fill="#A88F33"/>
<path fill-rule="evenodd" clip-rule="evenodd" d="M35.0103 51.4099C35.0103 51.4099 34.3674 52.9922 34.0731 54.3956C34.0188 54.6774 33.9106 54.9588 33.8834 55.1864C33.7481 56.514 33.7102 57.0612 33.8834 57.7874C34.0188 58.3231 34.5389 58.806 34.81 59.1804C35.0753 59.5708 35.2 59.7161 35.1457 59.7983C35.0914 59.8805 34.8803 60.0148 34.6746 59.9987C34.4559 59.9923 34.2408 59.9415 34.0423 59.8494C33.8439 59.7573 33.6662 59.6258 33.5202 59.4629C33.103 58.9807 32.7726 57.3441 32.7726 57.3441L32.4251 55.1846L31.5417 52.4646L35.0096 51.4077L35.0103 51.4099Z" fill="#C99E3D"/>
<path fill-rule="evenodd" clip-rule="evenodd" d="M28.9693 53.0569C28.9693 53.0569 29.0886 53.0029 29.305 53.0569C29.2958 52.9684 29.3111 52.8791 29.3494 52.7989C29.3876 52.7186 29.4473 52.6504 29.5218 52.6018C29.7493 52.694 31.8792 52.5097 31.8792 52.5097C31.8792 52.5097 32.8708 52.6833 33.1797 53.9945C33.3962 54.8671 33.0172 56.0697 33.1419 56.8609C33.3315 58.026 33.5969 58.2539 33.6241 58.6164C33.6512 58.979 33.6783 59.0715 33.6783 59.299C33.7976 59.3261 33.868 59.364 33.9869 59.364C34.0141 59.4711 33.9602 59.5647 34.0791 59.7544C34.0141 59.7272 33.5698 59.673 33.0497 59.18C32.6211 58.7789 32.6211 58.6328 32.5564 58.5514C32.4754 58.4703 31.8196 57.9085 31.5378 57.3484C31.2559 56.7884 30.7087 55.0024 30.5841 54.7099C30.5462 54.5906 30.4648 54.4713 30.2626 54.2006C29.9483 53.8102 29.4879 53.1648 28.9678 53.0576L28.9693 53.0569Z" fill="#B58634"/>
<path fill-rule="evenodd" clip-rule="evenodd" d="M32.4797 58.5242C32.1515 57.994 31.8566 57.4438 31.5968 56.8769C31.2771 56.1565 31.0874 55.5657 30.6863 55.0835C30.9031 55.7118 31.2878 56.9473 31.5153 57.3863C31.77 57.8506 32.2901 58.3506 32.4797 58.5239L32.4797 58.5242Z" fill="#A88F33"/>
<path fill-rule="evenodd" clip-rule="evenodd" d="M36.1644 49.6161C36.1644 49.6161 36.7116 49.4807 37.7303 48.9442C38.0664 48.771 38.3857 48.6249 38.6947 48.4892C39.4973 48.1263 40.3581 47.7909 41.041 47.6059C40.9867 47.5409 40.96 47.5141 40.96 47.5141C40.96 47.5141 40.96 47.2483 40.8135 47.0969C40.8946 47.0155 41.9786 46.2786 41.6586 43.8133C41.4421 43.8944 41.1875 44.003 41.1496 44.003C41.0843 43.9919 41.0682 43.8133 40.9871 43.8133C40.906 43.8133 40.6403 43.9205 40.3585 44.2848C40.3692 44.1384 40.5317 42.6646 39.6595 41.6731C39.4969 41.8628 39.0851 42.4914 39.0851 42.4914L39.0744 42.6918C39.0744 42.6918 39.0365 43.3908 38.8086 44.0301C38.5808 44.6695 38.1368 45.141 38.1368 45.141L35.8183 48.4517L36.1651 49.6165L36.1644 49.6161Z" fill="#E6C367"/>
<path fill-rule="evenodd" clip-rule="evenodd" d="M38.3319 44.7549C38.438 44.6799 38.555 44.6215 38.6787 44.5817C38.7166 44.717 38.7708 45.1832 38.4512 45.6382C38.0772 46.1858 37.2593 46.8955 37.0317 47.4598C36.8853 47.8231 36.9503 48.7332 35.6498 49.8983C34.3493 51.0635 33.8403 51.4642 33.8403 51.4642L31.7379 52.5208L29.1534 51.5021L30.4374 46.4694L31.4343 44.112L35.3991 44.8596L38.3322 44.7549L38.3319 44.7549Z" fill="#DCBA5A"/>
<path fill-rule="evenodd" clip-rule="evenodd" d="M36.8185 46.1215L36.3252 46.739L36.3252 47.178C36.3252 47.178 35.778 47.3244 35.1876 47.9259C34.5972 48.5274 33.7789 49.6815 33.0581 49.6111C32.3373 49.5297 32.2669 48.0452 32.2398 47.6277C32.2126 47.2101 32.1205 46.2625 31.9744 45.7528C31.8119 45.2435 33.7299 43.3147 33.7299 43.3147L35.0326 42.3232L36.8185 46.1215Z" fill="#E9CE77"/>
<path fill-rule="evenodd" clip-rule="evenodd" d="M35.2921 40.9795C35.2921 40.9795 34.891 41.6081 35.185 41.7435C35.0117 42.1335 34.692 42.5454 34.692 42.5454C34.692 42.5454 34.4645 43.1086 33.7277 43.8023C32.9908 44.4959 32.5354 44.9567 32.4161 45.4225C32.3425 45.726 32.3025 46.0367 32.2968 46.349C32.2171 46.2839 32.1319 46.226 32.0421 46.1758C31.9228 46.1215 31.3596 45.6557 31.4406 44.7181C31.5217 43.7805 31.8692 43.3905 31.8692 43.3905C31.8692 43.3905 32.205 43.0547 32.4432 42.8811C32.6983 42.7079 32.7901 42.5075 33.2183 42.4911C33.1743 42.5261 33.1248 42.5536 33.0719 42.5725C33.0719 42.5725 33.5162 42.6265 33.7548 42.41C33.9934 42.1935 34.5006 41.5267 34.7553 41.326C35.0099 41.1634 35.291 40.9791 35.291 40.9791L35.2921 40.9795Z" fill="#CDAE50"/>
<path fill-rule="evenodd" clip-rule="evenodd" d="M17.2759 51.5185C17.916 51.7518 18.5888 51.8834 19.2697 51.9085C20.4076 51.9464 22.071 51.8814 23.7019 51.8707C25.4575 51.8599 27.0505 52.4721 29.2611 52.5804C29.624 52.7972 30.547 53.7455 33.428 51.7353C33.2547 51.746 31.3363 52.1796 30.6702 51.3449C29.9983 50.5159 30.188 49.1071 30.2798 48.7714C30.4534 48.0235 31.017 46.9344 31.2442 46.1704C31.4713 45.4064 31.4178 45.0049 31.5803 44.4691C31.7428 43.9334 32.1003 43.6673 31.8892 43.0497C31.6074 43.2229 31.4606 43.2229 30.9899 44.2795C30.5191 45.336 30.6159 46.0893 29.8354 46.9833C29.0714 47.8827 27.7995 49.1129 27.3159 49.4218C26.8323 49.7308 22.9922 51.7246 18.9714 49.8226C18.0017 49.9254 17.2755 51.5188 17.2755 51.5188L17.2759 51.5185Z" fill="#D2A83E"/>
<path fill-rule="evenodd" clip-rule="evenodd" d="M31.8084 52.2557C31.8123 52.2964 31.8213 52.3365 31.8352 52.375C31.8728 52.4542 31.9221 52.5273 31.9816 52.5918C31.9816 52.5918 32.9353 52.765 33.4175 52.7111C34.2629 52.6189 35.0269 51.5731 35.3845 51.0366C35.742 50.5001 36.1863 49.6715 36.6685 49.2432C36.6633 49.2849 36.6729 49.3272 36.6957 49.3625C36.6957 49.3625 36.6685 49.3246 36.7225 49.2704C36.7764 49.2161 36.7768 49.1893 36.7496 49.1632L36.6682 49.0821C36.6414 49.0821 35.8934 49.4182 34.8748 50.368C33.7911 51.3595 32.9621 51.8681 32.5284 52.0424C32.2972 52.1407 32.0555 52.2123 31.808 52.2557L31.8084 52.2557Z" fill="#C29637"/>
<path fill-rule="evenodd" clip-rule="evenodd" d="M13.3094 56.3297C13.3094 56.3297 13.483 56.1132 13.6998 55.8746C14.182 55.3653 14.8107 54.7913 15.3472 54.2005C15.8562 53.6369 16.4305 53.1979 17.0756 52.461C17.7206 51.7242 18.4686 50.9062 18.6579 50.6676C18.8311 50.429 18.9665 50.039 18.9665 49.8386C19.0586 49.9036 19.1669 49.974 19.1669 49.974C19.1213 49.8889 19.0668 49.8089 19.0044 49.7354C18.869 49.5457 18.6579 49.3068 18.5493 49.161C18.4161 48.9755 18.3205 48.7657 18.2678 48.5435C18.2028 48.5328 17.7856 48.4513 17.2652 49.3075C16.7448 50.1637 16.0626 51.1009 16.0626 51.1009L14.9789 52.7104L14.296 54.0755L13.4387 55.6035L13.3084 56.3297L13.3094 56.3297Z" fill="#AC8132"/>
<path fill-rule="evenodd" clip-rule="evenodd" d="M12.1987 57.4241C12.1987 57.4241 12.8545 56.8883 13.1092 56.5669C13.3639 56.2454 13.9664 55.4017 13.9664 55.4017L13.7496 55.4289L12.6495 56.404L12.2209 57.168L12.1991 57.4227L12.1987 57.4241Z" fill="#A88F33"/>
<path fill-rule="evenodd" clip-rule="evenodd" d="M12.3996 14.3641C12.3996 14.3641 12.4103 14.8084 12.161 15.0738C11.9063 15.3395 11.2616 15.7296 10.633 17.1926C10.0043 18.6556 9.93434 18.986 9.93434 18.986C9.93434 18.986 11.0612 18.0216 11.756 17.7941C11.5934 18.1302 11.5013 18.3684 11.4199 18.542C11.512 18.6231 11.9021 18.7153 11.9399 18.7585C11.7235 18.9753 11.6042 19.5064 11.1652 19.8586C10.6016 20.2872 9.57216 21.0237 8.77207 21.6802C7.97198 22.3367 6.39895 23.8637 6.19822 24.308C6.07892 24.1348 6.05213 24.0266 6.05213 24.0266C6.05213 24.0266 6.84293 22.9968 7.25476 22.3414C7.61802 21.7777 7.59087 21.4581 7.59087 21.4581L6.84293 21.7795C6.84293 21.7795 6.62648 20.9777 7.60694 19.7582C7.17833 19.9208 7.00545 19.8232 6.76185 19.959C7.16297 19.7039 7.71553 19.3571 8.23558 18.4038C8.74492 17.4501 9.43857 16.3393 10.6087 15.646C11.7467 14.9145 12.4025 14.3673 12.4025 14.3673L12.3996 14.3641Z" fill="#A67A2E"/>
<path fill-rule="evenodd" clip-rule="evenodd" d="M15.3363 50.9545C15.3363 50.9545 15.7806 50.0283 15.8456 49.3075C15.8563 49.1339 15.8999 48.9986 15.8999 48.7982C15.9106 48.1535 15.862 47.4327 16.007 47.0969C16.0613 47.2323 16.0885 47.3245 16.1428 47.3784C16.2239 47.1509 16.3703 46.4411 16.4896 46.1758C16.5435 46.349 16.6628 46.9505 16.6518 47.6602C16.6407 48.3699 16.625 48.5057 16.625 48.6517C16.6518 48.4353 16.7982 48.1424 16.8525 47.9692C16.9336 48.1153 17.0257 48.3049 17.1343 48.4621C17.1993 48.3549 17.2804 48.1967 17.3508 48.1153C17.3618 48.1803 17.3886 48.3539 17.4051 48.5975C17.4158 48.8793 17.4322 49.2422 17.4158 49.3182C17.389 49.4643 17.1611 50.0387 16.6789 50.5645C16.1046 51.1931 15.5138 52.4011 15.3405 52.775C15.1673 53.149 14.4304 54.7038 14.4304 54.7038L13.8668 54.7038L14.6851 52.8401C14.6851 52.8401 15.178 51.8214 15.4327 51.447C15.6874 51.0727 16.2239 50.0001 16.4624 49.5829C16.2892 49.8104 16.1428 49.9297 15.9692 50.1465C15.8013 50.2984 15.3355 50.9538 15.3355 50.9538L15.3363 50.9545Z" fill="#8C6228"/>
<path fill-rule="evenodd" clip-rule="evenodd" d="M12.1881 57.4948C12.2801 57.2114 12.4256 56.9483 12.6167 56.7197C12.9528 56.3186 13.6736 55.7825 14.0254 55.3546C14.3469 54.9374 14.9898 53.7994 14.6976 52.4503C14.5905 52.7429 14.3887 53.3226 13.8522 53.9784C13.3157 54.6341 12.7413 55.3871 12.4592 55.9721C12.1777 56.5629 12.1399 57.0287 12.1399 57.0287L12.0327 57.1641L12.0977 57.473L12.1899 57.4948L12.1881 57.4948Z" fill="#CBA94C"/>
<path fill-rule="evenodd" clip-rule="evenodd" d="M1.21574 21.5545C1.21574 21.5545 1.43255 22.1449 1.49755 22.6814C1.56256 23.2179 1.3904 23.3243 1.5897 23.9383C1.709 24.3123 1.92546 24.2598 1.97975 24.3123C2.03404 24.3648 2.0719 24.9299 2.06119 25.2388C2.05047 25.5478 2.0719 25.9485 2.12619 26.1221C2.20727 26.1871 2.26156 26.2414 2.38086 26.6422C2.51624 27.0433 2.58124 27.2437 2.64625 27.3626C2.71126 27.4816 2.90128 27.5902 2.90128 27.7094C2.90128 27.948 2.68447 28.0723 2.68447 28.1381C2.69518 28.2734 2.8577 28.1649 2.90128 28.2031C2.95521 28.2681 2.76555 28.6581 2.83591 28.7124C2.86306 28.7392 3.05272 28.5117 3.10166 28.5767C3.15595 28.6421 3.22096 29.2868 3.31847 29.7147C3.41026 30.1319 3.50813 30.4351 3.51884 30.5598C3.52956 30.6791 4.26679 32.7814 4.44538 33.2908C4.5893 33.7212 4.71044 34.1588 4.80827 34.602C4.86257 34.8567 4.90043 35.3771 4.92757 35.3228C4.95472 35.2685 4.93829 35.0031 4.98186 35.0138C5.01973 35.0249 5.1551 35.9511 5.19831 36.0975C5.23618 36.2439 5.46406 36.7404 5.51978 37.0998C5.57407 37.463 5.69301 38.4113 5.77445 39.056C5.85589 39.7007 5.89375 39.9661 5.89375 40.1276C5.88043 40.5225 5.90218 40.9177 5.95876 41.3088C6.06591 41.9917 6.28022 42.8207 6.4681 43.3026C6.83099 44.213 7.79574 46.5429 7.96826 47.1226C7.96826 47.2691 7.7786 47.1876 7.7786 47.1876C7.7786 47.1876 7.30747 46.0064 6.96065 45.0963C6.62454 44.1859 6.30487 43.384 6.22343 43.3026C6.15842 43.2215 5.64908 42.3275 5.42155 40.8644C5.19403 39.4014 5.11295 38.0524 4.97722 37.153C4.91221 36.7244 4.85792 36.2697 4.72255 35.8146C4.57646 35.3213 4.34894 34.812 4.05069 34.0319C3.79602 33.3761 3.60636 32.8289 3.50349 32.3575C3.38419 31.756 3.38419 31.3009 3.31382 31.0027C3.24846 30.748 3.15131 30.239 2.92342 29.5025C2.69554 28.766 2.36015 27.8173 2.13262 27.2269C1.68793 26.0457 1.4897 25.0595 1.42255 24.5337C1.36325 23.9919 1.16252 22.1171 1.21681 21.5538L1.21574 21.5545Z" fill="#A88F33"/>
<path fill-rule="evenodd" clip-rule="evenodd" d="M12.1609 57.5598L12.188 57.4948C12.188 57.4948 12.1069 57.4677 12.123 57.3591C12.1219 57.2105 12.1309 57.0621 12.1502 56.9148C12.1769 56.7251 12.2312 56.579 12.242 56.4597C12.242 56.205 12.2041 55.9125 12.5634 55.1864C12.6706 54.986 12.7367 54.8127 12.7909 54.6934C12.9263 54.4009 12.9535 54.3573 13.0728 54.222C12.8831 54.3291 12.2002 54.7577 11.8537 54.6934C12.0919 54.5581 12.4552 54.2923 12.6827 53.9455C12.6284 53.9348 12.4009 53.8912 12.0398 53.9455C11.4383 54.0377 10.7664 54.2545 10.176 54.2112C9.53095 54.1734 9.78562 54.986 9.78562 54.986L10.53 56.6222L11.9387 57.6134L12.1609 57.5595L12.1609 57.5598Z" fill="#BE9C44"/>
<path fill-rule="evenodd" clip-rule="evenodd" d="M8.48714 45.3032C8.48714 45.3032 9.11578 45.9318 9.37045 48.0892C9.62512 50.2565 9.57083 53.4469 9.57083 53.4469L10.0802 54.6931C10.0802 54.6931 10.1873 55.5221 10.4541 55.8307C10.721 56.1393 11.2449 56.6597 11.4835 56.9144C11.7221 57.1691 11.9929 57.5159 12.1554 57.5702C12.0743 57.7056 11.7111 58.4696 10.3188 58.4803C8.92647 58.491 8.49714 57.7163 8.35177 57.4345C8.2064 57.1527 7.54989 55.9343 7.3063 53.6126C7.07877 51.2938 7.0677 51.1202 7.10556 50.3183C7.13271 49.874 7.27915 48.8446 7.53418 47.7448C7.76706 46.8126 8.02173 45.7721 8.48785 45.301L8.48714 45.3032Z" fill="#A17C34"/>
<path fill-rule="evenodd" clip-rule="evenodd" d="M10.4584 43.4555C10.2489 43.4404 10.0396 43.4876 9.85687 43.5912C9.65649 43.6019 8.93034 43.5098 8.37242 44.2195C8.33455 44.0573 8.23668 43.618 8.49171 43.2279C8.35598 43.3637 8.15561 43.4176 8.12846 43.4555C8.11775 43.2551 7.92808 42.6375 8.72996 41.1366C8.5135 41.3749 8.25883 41.3642 8.03131 41.3913C8.02024 41.1095 7.86879 40.1615 8.26955 39.6518C8.53493 39.305 8.96856 39.4136 8.96856 39.4136C8.96221 39.4893 8.96221 39.5654 8.96856 39.6411C8.97927 39.7876 9.03356 39.9337 8.99534 40.0312C9.20487 40.1269 9.39571 40.2591 9.55898 40.4216C10.0305 40.8659 10.6427 41.6242 10.6859 42.1878C10.7402 42.8165 10.1765 42.9518 10.1765 42.9518C10.2238 42.9941 10.264 43.0435 10.2958 43.0983C10.323 43.1901 10.3501 43.3365 10.4584 43.4555Z" fill="#8C6228"/>
<path fill-rule="evenodd" clip-rule="evenodd" d="M14.6374 50.2719C14.6374 50.2719 14.6646 50.3098 14.8107 50.1365C14.7835 50.3098 14.7564 50.4726 14.7457 50.6298C14.6765 50.7753 14.587 50.9102 14.4799 51.0306C14.5614 50.8684 14.6156 50.722 14.6156 50.722C14.6156 50.722 14.4149 51.0959 14.1224 51.3235C13.922 51.486 13.6673 51.5617 13.5591 51.7135C13.4398 51.876 13.467 51.9032 13.4398 51.9303C13.4398 51.9303 13.1741 52.1035 12.7676 52.6132C12.7137 52.6782 12.6322 52.7486 12.5779 52.8136C12.4861 52.8515 12.2693 52.949 12.0147 53.0794C11.7489 53.2254 11.451 53.4258 11.2667 53.508C10.9038 53.6705 10.5188 53.6541 10.3402 53.9091C10.2048 53.947 10.0587 54.3534 10.0855 54.6999C9.88514 54.6188 8.85575 53.9795 8.50321 52.5814C8.24854 51.5899 8.70394 50.0619 8.89361 49.3247C9.08327 48.5874 9.11006 48.0406 9.3758 47.7048C9.71191 47.2602 10.7952 46.6333 11.061 46.3229C11.2885 46.0682 11.9711 45.4235 11.9443 44.9578C11.9171 44.6109 11.4892 44.422 11.3967 44.3563C11.3042 44.2905 11.3049 44.2098 11.1313 44.2491C10.9578 44.2884 10.8931 44.3684 10.8224 44.3684C10.7413 44.3577 10.7413 44.3413 10.7034 44.3413C10.676 44.3421 10.6487 44.3458 10.622 44.3523C10.622 44.3523 10.6492 43.8591 11.8032 43.7094C11.8846 43.6983 11.9657 43.6715 12.0689 43.6551C11.9332 43.7201 11.8521 43.7201 11.7057 43.9205C11.8682 43.9477 12.3343 43.9748 12.4536 44.0127C12.4158 44.0777 12.2911 44.2513 12.1882 44.3323C12.0961 44.4134 12.199 44.4395 12.28 44.3973C12.4196 44.3024 12.5536 44.1993 12.6812 44.0887C12.8165 43.9694 12.9358 43.8069 13.1526 43.6601C13.2176 43.8769 13.2069 44.2888 12.9519 44.5866C13.0173 44.5759 13.1419 44.3863 13.2609 44.4241C13.2824 44.6218 13.2696 44.8216 13.223 45.0149C13.158 45.2589 12.8058 45.6868 12.8058 45.6868L11.1046 48.7267L10.7417 51.0295L14.6374 50.2726L14.6374 50.2719Z" fill="#92723A"/>
<path fill-rule="evenodd" clip-rule="evenodd" d="M14.7292 50.1419C14.7292 50.1419 14.8213 50.0769 14.637 49.9523C14.6642 49.9144 14.7292 49.779 14.8106 49.6869C14.9024 49.5797 15.0003 49.5133 15.0381 49.4211C15.1192 49.2315 15.1842 49.1014 15.1842 49.02C15.1842 48.9386 15.2114 48.4185 15.4389 48.0828C15.5203 47.9635 15.6125 47.7631 15.6775 47.6277C15.8129 47.3895 15.9322 47.1991 15.9593 47.0919C16.0133 46.9023 16.0511 46.3822 16.0511 46.3822C16.0511 46.3822 15.9318 46.5287 15.8886 46.5826C15.954 46.4472 16.0243 46.3011 16.1272 46.1926C16.0622 46.2469 15.8725 46.3822 15.5528 46.664C15.1085 47.0377 14.4149 47.6663 13.5694 48.1642C13.8244 48.0721 14.0409 48.0721 14.2141 48.0449C14.0788 48.1803 12.8597 49.6108 12.2203 49.7462C12.1815 49.7954 12.1622 49.8572 12.166 49.9198L12.7136 49.9737L13.8244 49.7354L13.9866 50.5927L14.7292 50.143L14.7292 50.1419Z" fill="#B18E3E"/>
<path fill-rule="evenodd" clip-rule="evenodd" d="M12.9628 45.2653C12.9628 45.2653 13.1093 45.1192 13.2447 44.7559C13.3489 44.8648 13.4382 44.9869 13.5104 45.1192C13.7108 45.4549 14.0194 45.8832 14.7402 45.6393C14.7509 45.8668 14.7673 45.9861 14.7402 46.1486C14.6209 46.1754 14.258 46.4679 13.8951 46.8962C13.6401 47.1887 13.4018 47.5248 13.2393 47.9527C13.1321 48.0342 12.9468 48.1695 12.7035 48.3267C12.3567 48.5649 11.9395 48.8903 11.8745 49.2532C12.037 49.1882 12.3838 49.0257 12.9043 49.0525C12.7035 49.1446 12.3949 49.2421 12.4328 49.6433C12.3513 49.6975 12.2863 49.7354 12.2863 49.7354C12.3474 49.7558 12.4117 49.765 12.476 49.7626C12.4871 49.8004 12.5031 49.8544 12.5953 49.8276C12.6874 49.8008 12.7025 49.8004 12.7146 49.7626C12.7525 49.7515 12.8771 49.7626 12.9693 49.6972C13.0614 49.6318 13.3161 49.4157 13.4136 49.3779C13.3757 49.4429 13.3218 49.54 13.3218 49.54C13.3218 49.54 13.5872 49.5132 13.7769 49.4329C14.1237 49.3136 14.5244 49.0968 14.9309 48.8857C14.893 48.9507 14.8766 48.9928 14.8498 49.005C14.823 49.0171 14.7577 49.0318 14.7577 49.0428C14.7577 49.0539 14.7845 49.15 14.7684 49.1889C14.6469 49.4464 14.5035 49.6929 14.3398 49.9258C14.1501 50.1808 14.1123 50.5437 14.1123 50.5437L13.2832 50.9609L10.9533 51.4967L9.44139 51.4045L9.63105 50.3587L10.524 48.5328L11.288 46.8694L12.1606 45.8503L12.9625 45.2653L12.9628 45.2653Z" fill="#543E26"/>
<path fill-rule="evenodd" clip-rule="evenodd" d="M9.18624 49.7912C9.18624 49.7912 10.0967 48.6642 10.3514 48.4907C10.1889 48.8375 9.18624 50.902 8.82335 51.4763C8.90443 51.5413 9.01301 51.5413 8.75834 52.5479C8.97479 52.0389 9.05087 51.7732 9.22946 51.6378C9.40805 51.5024 9.4302 51.5456 9.55093 51.5456C9.52813 51.5869 9.51877 51.6342 9.52414 51.681C9.52414 51.681 10.2882 51.7732 10.81 51.7732C11.3318 51.7732 12.3648 51.4913 12.9395 51.2638C13.3946 51.0742 13.6492 51.0742 13.8118 50.9552C13.9743 50.8198 14.0664 50.6734 14.1479 50.6355C14.2129 50.5977 14.5215 50.5002 14.5922 50.3973C14.6572 50.2901 14.7654 50.1698 14.7654 50.1426C14.7654 50.1155 14.7926 50.0773 14.7111 50.1048C14.6844 50.1155 14.4836 50.2241 14.2561 50.3594C13.9475 50.5327 13.5735 50.733 13.3024 50.8523C12.5277 51.1613 12.2837 51.107 11.9373 51.172C11.5744 51.237 11.0539 51.3888 10.7075 51.3888C10.3607 51.3995 9.70487 51.3888 9.55307 51.3617C9.61808 51.3074 9.67237 51.2424 9.64522 51.0149C9.64522 50.9499 9.69951 50.8795 9.75238 50.7223C9.91454 50.278 10.2235 49.5411 10.3953 49.1672C10.6335 48.6582 10.9043 48.2299 11.0382 47.9645C11.1722 47.6991 11.4669 47.0001 11.7587 46.6262C12.0505 46.2522 12.203 46.0247 12.2944 45.9432C12.3859 45.8618 13.0424 45.38 12.9935 45.2064C12.8742 45.2442 12.1209 45.5278 11.574 46.1436C11.0272 46.7594 10.9182 47.1352 10.4903 47.4713C10.0624 47.8074 9.7263 48.3706 9.52593 48.8364C9.35805 49.27 9.39591 49.4054 9.18481 49.7901L9.18624 49.7912Z" fill="#806031"/>
<path fill-rule="evenodd" clip-rule="evenodd" d="M28.8065 41.3803C28.8065 41.3803 28.9258 40.8873 29.1969 40.6434C29.4623 40.4048 29.9338 40.199 29.9877 39.7979C30.0527 39.3972 29.5162 39.1964 29.5162 39.1964C29.5162 39.1964 29.8091 38.7142 29.8091 38.3513C29.8091 37.9774 29.8198 37.907 29.782 37.5495C29.8249 37.5218 29.8615 37.4853 29.8891 37.4423C29.8891 37.4423 29.8623 37.0955 29.5966 36.879C29.3308 36.6626 29.1037 36.5322 28.9683 36.5865C28.9476 36.5423 28.9295 36.497 28.914 36.4508C28.914 36.4508 28.7133 36.9601 28.5779 37.4045C28.4425 37.8595 28.3232 37.7949 28.2693 38.4071C28.2154 39.0193 27.6264 40.0705 27.6264 40.0705L27.2245 40.9688L27.88 41.4781L28.8065 41.3806L28.8065 41.3803Z" fill="#B6903C"/>
<path fill-rule="evenodd" clip-rule="evenodd" d="M27.587 40.4973C27.7222 40.3585 27.847 40.21 27.9603 40.0529C28.1335 39.8144 28.2689 39.5979 28.5236 39.5054C28.7782 39.4129 28.9408 39.4136 28.9247 39.1586C28.9086 38.9035 28.67 38.7957 28.5346 38.6657C28.3882 38.5303 28.2689 38.3028 28.3339 38.0477C28.2528 38.0856 28.1064 38.1292 27.971 38.4217C27.8356 38.7142 26.8888 40.4969 26.8888 40.4969L27.587 40.4969L27.587 40.4973Z" fill="#685026"/>
<path fill-rule="evenodd" clip-rule="evenodd" d="M23.8528 44.6099C23.8528 44.6099 23.7717 44.8263 23.8528 44.9835C23.9342 45.146 24.4271 45.2003 24.6711 45.3846C24.9258 45.5743 25.2347 45.7061 25.4894 45.6228C25.4515 45.715 25.2997 45.9157 25.4244 45.9589C25.5437 45.9968 25.9877 45.7964 26.107 45.7043C26.2263 45.6121 26.4974 45.5039 26.5513 45.4385C26.6052 45.3732 26.6977 45.2489 26.752 45.3032C26.8063 45.341 26.8331 45.4385 26.9253 45.3846C27.0174 45.3307 27.461 44.9674 27.5428 44.756C27.6246 44.5445 27.8086 44.073 28.3611 43.5369C28.9137 43.0008 29.1523 42.6536 28.9898 42.4532C28.8273 42.2528 28.7512 42.3989 28.724 42.2257C28.7032 42.0556 28.7123 41.8832 28.7512 41.7163C28.8162 41.4345 28.9244 41.1691 28.7783 41.1149C28.4044 40.9956 28.0411 41.222 27.96 41.1527C27.7975 41.0066 28.0522 40.4809 27.6675 40.378C27.2771 40.2708 26.8924 40.4701 26.8924 40.4701L25.473 41.2342L24.1075 41.9546L23.4088 43.3365L23.7835 44.4906L23.8549 44.6099L23.8528 44.6099Z" fill="#D4B968"/>
<path fill-rule="evenodd" clip-rule="evenodd" d="M25.1923 41.3099C25.1923 41.3099 25.4309 41.6728 25.138 41.9928C24.8451 42.3128 24.4283 42.4479 24.2658 42.6482C24.2967 42.6864 24.3382 42.7146 24.3851 42.7293C24.2772 42.9224 24.1126 43.0776 23.9136 43.174C23.9947 43.2551 24.1033 43.3201 24.2222 43.3201C24.488 43.3201 24.6508 43.1576 24.8944 43.1576C25.1327 43.1576 25.1598 43.2769 25.1598 43.2769C25.1598 43.2769 24.7587 43.3147 24.7969 43.4937C24.8348 43.6834 24.9041 43.6834 24.9041 43.6834C24.9041 43.6834 24.1293 44.0048 23.994 44.1763C23.8586 44.3477 23.8747 44.5502 23.8475 44.6313C23.7557 44.6313 23.2193 44.9131 23.0024 44.7938C22.7856 44.6745 22.9374 44.3495 22.9374 44.3495C22.9374 44.3495 22.2813 44.8428 21.947 45.3264C21.6544 45.2992 21.5184 45.5268 21.304 45.5268C21.0383 45.5268 20.6211 45.1639 20.54 44.3891C20.4857 43.9448 20.4047 43.6901 20.4857 42.9043C20.5236 42.46 20.5129 41.5113 20.3786 41.0406C20.2868 40.6666 20.07 40.7045 20.07 40.7045C20.1033 40.5905 20.1692 40.4888 20.2597 40.4119C20.4061 40.2766 20.4222 39.9187 20.4061 39.7833C20.3845 39.6843 20.3573 39.5866 20.3247 39.4908C20.3247 39.4908 20.4979 39.2904 20.5415 39.1546C20.5793 39.0193 20.7579 38.9271 20.8883 38.9271C21.0187 38.9271 20.9533 38.9382 21.1265 38.9271C21.2998 38.9161 21.3541 38.8893 21.4626 38.9271C21.5712 38.965 21.6523 39.0086 21.6087 39.3557C21.5709 39.7026 22.9471 40.5098 22.9471 40.5098L25.1973 41.3117L25.1923 41.3099Z" fill="#CCA849"/>
<path fill-rule="evenodd" clip-rule="evenodd" d="M27.7768 37.8856C27.7768 37.8856 27.2839 37.2298 25.2572 37.2298C24.2928 37.2298 23.9567 37.3219 23.7571 37.3762C23.5403 37.4305 22.7277 37.7498 21.9094 38.7146C21.1725 39.5868 21.335 39.9444 21.335 39.9444L21.7636 40.0094L23.1566 39.8197L27.2785 38.0642L27.7786 37.8856L27.7768 37.8856Z" fill="#585136"/>
<path fill-rule="evenodd" clip-rule="evenodd" d="M26.2653 37.723C26.2653 37.723 28.0209 37.3326 28.0209 38.4435C28.0209 39.5272 26.9372 40.6651 26.6661 40.8655C26.3843 41.0662 25.7124 41.2941 25.7124 41.2941L24.0922 41.2941L23.7836 40.4758L23.919 38.7096L26.2653 37.7234L26.2653 37.723Z" fill="#252211"/>
<path fill-rule="evenodd" clip-rule="evenodd" d="M24.645 40.963C24.645 40.963 24.9808 41.272 25.7448 40.8559C26.5088 40.4398 27.1267 39.57 27.1646 38.7803C27.2025 38.0816 26.5903 37.5612 25.6366 37.5341C24.9269 37.5073 24.4986 37.5884 24.2818 37.6412C24.3361 37.7062 24.6179 38.0584 24.6179 38.0584L24.6447 40.9627L24.645 40.963Z" fill="#C3B378"/>
<path fill-rule="evenodd" clip-rule="evenodd" d="M24.9753 40.7901C24.9753 40.7901 25.0564 40.8552 25.2968 40.7251C25.4971 40.618 25.7897 40.3347 26.0172 40.1344C26.1636 40.0151 26.2558 39.9611 26.3387 39.869C26.6748 39.4679 26.9566 38.8121 26.7937 38.487C26.6308 38.162 26.0947 37.788 24.7292 38.0427L24.9792 40.7898L24.9753 40.7901Z" fill="#E6D89C"/>
<path fill-rule="evenodd" clip-rule="evenodd" d="M25.4199 40.1179C25.4199 40.1179 25.6367 39.7818 25.6367 39.2453C25.6367 38.6981 25.3277 37.8259 24.1897 37.7609C23.3175 37.7066 22.7324 39.0178 22.0984 39.5271C21.6162 39.9172 21.3237 39.9283 21.3237 39.9283C21.3237 39.9283 21.8166 40.464 23.1332 41.158C24.4337 41.857 25.8913 41.9492 26.6825 40.8762C26.3085 40.9034 25.1002 41.2123 25.1002 41.2123L24.5094 41.0227L25.4199 40.1176L25.4199 40.1179Z" fill="#252211"/>
<path fill-rule="evenodd" clip-rule="evenodd" d="M23.7185 39.4082C23.7564 39.4893 23.7835 39.5979 23.6264 39.6247C23.4692 39.6515 23.3988 39.6357 23.3446 39.5175C23.2903 39.3993 23.2374 39.3007 23.3178 39.2518C23.3988 39.2086 23.6103 39.2518 23.7189 39.4089L23.7185 39.4082ZM23.9732 40.1722C23.9732 40.1722 24.0275 40.1344 24.0003 40.2101C23.9896 40.3019 23.9189 40.4648 23.7457 40.4265C23.5724 40.3883 23.6099 40.199 23.6385 40.1447C23.6671 40.0904 23.8117 39.9986 23.9203 40.0376C23.9341 40.0411 23.9468 40.0478 23.9575 40.0572C23.9682 40.0665 23.9765 40.0783 23.9818 40.0915C23.9871 40.1047 23.9892 40.1189 23.988 40.1331C23.9867 40.1472 23.9821 40.1609 23.9746 40.1729L23.9732 40.1722Z" fill="#6F674D"/>
<path fill-rule="evenodd" clip-rule="evenodd" d="M38.6401 39.8258C38.6401 39.8258 38.2115 39.5043 37.7136 39.5168C37.2207 39.5279 36.5867 40.0369 36.2942 40.3623C36.1209 40.5519 35.9727 40.7523 35.812 40.9095C35.6762 41.0449 35.5844 41.1099 35.5194 41.202C35.4273 41.3092 35.3298 41.5106 35.2808 41.576C35.4001 41.4838 35.5734 41.321 35.7523 41.2127C35.9256 41.1056 36.2995 40.9041 36.4513 40.8498C36.5974 40.7955 38.1147 39.9926 38.1147 39.9926L38.6401 39.8258Z" fill="#AC924C"/>
<path fill-rule="evenodd" clip-rule="evenodd" d="M37.9849 43.8294C37.9849 43.8294 37.7466 43.992 37.2859 44.0952C36.8415 44.2023 35.9475 44.2849 35.9475 44.2849L35.2106 43.9634L34.9181 42.8526L35.4539 41.6981L36.1364 41.2695L36.9115 42.5157L37.9831 43.8273L37.9849 43.8294Z" fill="#9F8E57"/>
<path fill-rule="evenodd" clip-rule="evenodd" d="M38.9496 42.8379L39.2046 42.6475C39.2046 42.6475 39.1392 42.7668 39.0853 43.1297C39.0314 43.4926 38.7492 44.3759 38.3374 44.8852C37.9255 45.3946 37.9362 45.3674 37.9362 45.3674C37.9741 45.3744 38.0131 45.3731 38.0505 45.3638C38.0878 45.3545 38.1228 45.3374 38.153 45.3135C38.0988 45.4335 37.7519 45.8621 37.4051 46.0764C37.0583 46.2908 36.9229 46.3583 36.56 46.1836C36.1971 46.0089 36.105 45.9182 35.8392 45.9289C35.5735 45.9396 35.3463 46.2215 35.3463 46.2215C35.3463 46.2215 35.292 46.0482 35.4924 45.6471C35.6928 45.246 36.4839 44.4281 36.4839 44.4281L38.1313 43.3011L38.9496 42.8368L38.9496 42.8379Z" fill="#EAC970"/>
<path fill-rule="evenodd" clip-rule="evenodd" d="M37.7306 43.9648C37.7306 43.9648 36.5384 43.8023 36.1755 44.138C36.1647 44.1002 36.1212 44.1002 36.1212 44.073C36.1241 44.0526 36.1336 44.0336 36.1483 44.0191C36.1088 44.0254 36.069 44.029 36.029 44.0298C35.9813 44.0156 35.9322 44.0065 35.8826 44.0027C35.8426 44.0035 35.8027 44.0072 35.7633 44.0137C35.767 43.9868 35.7762 43.9609 35.7902 43.9376C35.8042 43.9143 35.8227 43.894 35.8447 43.878C35.7904 43.878 35.7376 43.8673 35.7376 43.8241C35.7376 43.7809 35.7268 43.6505 35.7918 43.6233C35.8457 43.6085 35.903 43.6124 35.9544 43.6344C35.9501 43.5318 35.9222 43.4316 35.8729 43.3415C35.7658 43.1411 35.5372 42.9129 35.23 42.9786C35.23 42.9786 35.0678 42.5886 35.7504 41.7217C35.8422 41.6024 35.9401 41.4399 36.059 41.3045C36.106 41.2021 36.1419 41.0949 36.1662 40.9848C36.1662 40.9848 35.0118 41.4292 34.6814 42.4425C34.3453 43.4612 34.2803 44.4634 34.3453 45.4007C34.3563 45.6664 34.3995 45.8557 34.4646 45.9915C34.6271 46.3276 35.0825 46.2733 35.2664 46.0836C35.5322 45.8179 35.9765 45.1571 36.5941 44.702C37.2227 44.247 37.2495 44.1663 37.7321 43.9648L37.7306 43.9648Z" fill="#D7BC6B"/>
<path fill-rule="evenodd" clip-rule="evenodd" d="M39.1609 42.5018C39.1609 42.5018 39.3885 42.3664 39.5078 41.8589C39.6271 41.3388 39.4006 40.7048 39.2695 40.5044C39.1384 40.304 38.8409 39.7565 38.2237 39.7293C38.0709 39.7302 37.9198 39.7615 37.7794 39.8215C37.5639 39.9203 37.3618 40.0459 37.1779 40.1955C36.9121 40.3958 36.6957 40.5691 36.7228 40.5855C36.7878 40.6127 38.3591 41.9132 38.3591 41.9132L38.9498 42.5725L39.1613 42.5011L39.1609 42.5018Z" fill="#585136"/>
<path fill-rule="evenodd" clip-rule="evenodd" d="M37.6757 40.3455C37.6757 40.3455 37.356 40.3722 37.1664 40.4915C36.9767 40.6108 38.2772 41.9003 38.2772 41.9003L38.1851 40.5073L37.6757 40.3455Z" fill="#453A25"/>
<path fill-rule="evenodd" clip-rule="evenodd" d="M39.0581 42.5996C39.0581 42.5996 39.2206 42.2907 39.2206 42.2092C39.2477 41.9438 39.1663 41.1095 39.1013 40.8441C39.0363 40.5623 38.6841 40.1344 38.2287 40.1344C37.9472 40.1344 37.5568 40.3076 37.5568 40.3508C37.5568 40.4051 37.958 40.458 38.0662 40.6598C38.1312 40.7669 38.1583 41.0334 38.1733 41.3027C38.184 41.4759 38.184 41.6656 38.119 41.7313C37.9726 41.8938 37.9458 42.36 37.9458 42.36L37.4258 43.3261L38.1098 43.3261L38.9281 42.8168L39.0581 42.5996Z" fill="#84754B"/>
<path fill-rule="evenodd" clip-rule="evenodd" d="M39.2582 42.3014C39.2582 42.3014 38.7224 43.0111 38.2395 43.174C37.7566 43.3369 37.5405 43.239 37.5405 43.239L37.8223 42.5182L38.2234 42.0739L38.1963 41.8464C38.1963 41.8464 38.2616 41.2449 37.8605 40.8277C37.4594 40.4105 37.1615 40.4266 36.9879 40.4266C36.8143 40.4266 36.3161 40.573 36.0614 41.1745C35.8339 41.7378 35.6442 42.4604 36.0993 43.1847C36.544 43.9055 37.3294 43.9334 37.4812 43.9334C37.633 43.9334 38.8249 43.8737 39.2582 42.3025L39.2582 42.3014Z" fill="#252211"/>
<path fill-rule="evenodd" clip-rule="evenodd" d="M25.5014 39.8904C25.7018 39.9826 25.5121 40.5459 25.3117 40.7195C25.1114 40.893 24.8567 41.0931 24.412 41.1206C24.2498 41.1313 24.0927 41.0284 24.1195 40.9198C24.1573 40.7195 24.4391 40.4376 24.6938 40.2373C25.046 39.9608 25.2739 39.7876 25.5014 39.8904Z" fill="#F7F7E7"/>
<path fill-rule="evenodd" clip-rule="evenodd" d="M36.3382 42.9625C36.1918 42.9732 36.0021 42.8554 35.9643 42.6968C35.9264 42.5235 36.0564 42.1767 36.3382 42.1767C36.5658 42.1767 36.6851 42.4585 36.6851 42.5396C36.6825 42.6063 36.6639 42.6714 36.6308 42.7293C36.6201 42.7457 36.5929 42.9354 36.3382 42.9625Z" fill="#F8F6DE"/>
<path fill-rule="evenodd" clip-rule="evenodd" d="M38.4511 42.8379C38.4511 42.8379 38.825 42.6647 38.9983 42.3021C39.122 42.0344 39.1595 41.7348 39.1054 41.4449C39.0783 41.3095 38.9429 40.9738 38.8507 40.8545C38.7586 40.7352 38.6339 40.6537 38.5418 40.6648C38.4496 40.6759 38.2603 40.9195 38.2603 41.0656C38.2603 41.2116 38.2493 41.8296 38.0707 42.1657C37.9135 42.5014 38.45 42.8375 38.45 42.8375L38.4511 42.8379Z" fill="#D4C38B"/>
<path fill-rule="evenodd" clip-rule="evenodd" d="M38.3969 42.865C38.4619 42.8272 38.5701 42.7729 38.5433 42.7025C38.5162 42.6375 38.2886 42.5954 38.2072 42.4368C38.115 42.2743 38.115 42.101 38.1422 42.0196C38.0714 42.0532 38.0072 42.0992 37.9525 42.1553C37.8332 42.2907 37.6871 42.4746 37.5625 42.4746C37.481 42.4746 37.4 42.4368 37.3239 42.4368C37.2046 42.4368 37.0856 42.4746 37.0692 42.5993C37.0424 42.7618 37.2967 42.9083 37.4432 42.8811C37.416 42.9883 37.3782 43.1465 37.4975 43.2551C37.6168 43.3637 37.9904 43.1736 38.0718 43.1194C38.1533 43.0651 38.3969 42.8647 38.3969 42.8647L38.3969 42.865Z" fill="#E2D59D"/>
<path fill-rule="evenodd" clip-rule="evenodd" d="M29.7872 31.481L28.9853 31.7178L28.7578 31.5553C28.7578 31.5553 28.5957 31.2084 28.3406 31.1652C28.4221 30.992 28.6335 30.8438 28.6224 30.7209C28.6114 30.598 28.5031 30.5041 28.5031 30.5041C28.5031 30.5041 29.2239 29.3122 27.8041 28.111C28.1402 27.9756 28.5682 27.7895 28.7957 27.6823C28.6335 27.6445 28.2867 27.5752 28.1402 27.4437C27.9938 27.3123 27.9938 27.2705 27.8584 27.1891C27.7231 27.1076 27.642 26.9994 27.6688 26.9508C27.7609 27.0051 28.0699 27.1673 28.1238 27.0158C28.1778 26.8644 29.4622 26.9237 29.4622 26.9237L31.6296 26.5065C31.6296 26.5065 31.5485 26.7233 31.776 26.9237C32.0414 27.1619 32.3664 26.913 32.7132 27.1784C33.1683 27.5252 33.1847 27.9263 33.3308 28.0777C33.1847 28.1699 32.8865 28.3053 32.1768 28.3992C32.2039 28.4535 32.2961 28.616 32.2418 28.7621C32.1768 28.9518 31.906 29.0711 31.9871 29.2979C31.8678 29.325 31.8139 29.325 31.5156 29.699C31.2338 30.073 31.0606 30.154 30.8438 30.1812C30.6269 30.2083 30.4969 30.1812 30.0958 30.5551C29.8144 30.8205 29.9062 31.0481 29.9062 31.0481C29.9062 31.0481 29.7222 31.1077 29.7869 31.4817L29.7872 31.481Z" fill="#CBAC5A"/>
<path fill-rule="evenodd" clip-rule="evenodd" d="M32.1548 31.3606C32.144 31.4149 32.1005 31.442 31.8079 31.4149C31.5154 31.3877 29.6623 31.5881 29.1584 31.6152C28.649 31.6531 26.8556 31.6263 25.983 31.442C25.1104 31.2577 24.2275 31.0409 23.7996 30.9327C23.3709 30.8134 23.2359 30.7705 23.2524 30.7162C23.2631 30.6619 23.3595 30.6091 23.4149 30.6241C23.4688 30.6348 24.8886 31.0684 25.3272 31.1598C25.7658 31.2513 27.2835 31.4959 28.1132 31.4813C28.888 31.4702 29.1969 31.492 29.8524 31.4163C30.5081 31.3349 31.5918 31.2266 31.9169 31.2699C32.2383 31.3077 32.1719 31.3077 32.1555 31.362L32.1548 31.3606Z" fill="#D6BC6F"/>
<path fill-rule="evenodd" clip-rule="evenodd" d="M27.7931 27.1137C27.7931 27.1137 26.6823 26.5122 26.2812 25.7753C25.9887 25.2281 26.4544 24.957 26.4544 24.957C26.4544 24.957 25.8258 24.957 25.9072 24.6102C25.9451 24.3937 26.9909 23.8087 27.6899 23.4997C28.3996 23.1908 28.3725 23.2068 28.7193 23.1529C29.0554 23.0986 29.9766 23.26 30.1663 22.9904C30.3559 22.7207 30.2734 22.4428 30.2205 22.3996C30.1663 22.3617 29.7273 22.3074 29.7273 22.3074C29.7273 22.3074 29.8194 22.0528 30.7295 22.0256C31.6396 21.9985 31.8675 21.9338 31.9218 21.836C31.9761 21.7442 31.7486 21.7981 31.331 21.7288C30.9138 21.6638 30.3288 21.6217 30.3288 21.6217C30.3288 21.6217 30.5184 21.4591 31.0113 21.3291C31.575 21.183 32.4583 21.0473 32.7237 20.8848C32.5883 20.7926 32.3876 20.6573 32.2951 20.6466C32.5226 20.5923 32.8426 20.473 32.8966 20.4297C32.8155 20.3755 32.7069 20.3104 32.7069 20.3104C32.7069 20.3104 33.1623 19.7632 33.4277 19.6275C33.6931 19.4918 35.2211 18.7824 35.7469 18.9178C37.0581 19.2646 37.2206 20.7005 37.5403 20.8087C38.0225 20.9712 38.25 20.6466 38.6783 20.8741C38.4886 21.0095 38.3854 21.0905 38.185 21.1827C38.4018 21.2898 39.5233 22.001 39.5233 22.001C39.6406 22.2566 39.7708 22.5061 39.9134 22.7486C40.1302 23.1225 40.4492 23.6212 40.6885 24.0601C41.2085 25.0245 41.2357 25.4689 41.7072 26.0161C41.6257 26.1232 41.3443 26.1082 41.3443 26.1082L37.3938 24.8077L30.3891 24.6048L28.5675 27.2055L27.7928 27.1133L27.7931 27.1137Z" fill="#DFC677"/>
<path fill-rule="evenodd" clip-rule="evenodd" d="M38.1696 23.1475C38.1273 23.1005 38.078 23.0602 38.0235 23.0282C37.8877 22.9361 37.6874 22.8275 37.552 22.6653C37.4977 22.7464 37.3623 22.8928 37.1234 22.6653C36.8844 22.4378 36.5876 22.6 36.4029 22.546C36.2133 22.4807 36.2026 22.4539 36.2026 22.4539C36.2026 22.4539 36.0954 22.546 35.8557 22.6435C35.7093 22.6978 35.5361 22.7357 35.3464 22.7896C35.1732 22.8275 34.9835 22.8818 34.8531 22.8818C34.7338 22.8007 34.3059 22.346 32.5882 23.0171C30.9681 23.6458 30.5944 23.7162 30.3233 23.619C30.2962 23.684 30.2691 23.8087 29.8519 23.7922C29.8519 23.9655 30.1987 24.5562 30.1987 24.5562L32.1114 25.2117L33.1576 25.2117L36.2947 24.6373L38.0331 23.6454L38.1685 23.1454L38.1696 23.1475Z" fill="#C4A859"/>
<path fill-rule="evenodd" clip-rule="evenodd" d="M39.2151 24.2473C39.2151 24.2473 39.1772 23.9548 38.7436 23.6458C38.315 23.3372 38.1803 23.1529 38.1803 23.1529C38.1803 23.1529 38.0989 23.2601 38.0339 23.3694C37.9689 23.4887 37.9146 23.624 37.8064 23.6619C37.5896 23.7541 37.0966 23.5808 36.9881 23.608C36.8959 23.6348 36.9231 23.8244 36.8255 23.8244C36.598 23.8355 36.4519 23.6783 36.3705 23.6783C36.2891 23.6783 36.089 23.689 36.0619 23.7323C36.0347 23.7755 36.024 24.2255 35.7151 24.4423C35.379 24.6806 34.9671 24.5777 34.8578 24.5234C34.8578 24.4423 34.8471 24.2416 34.6303 24.2309C34.4135 24.2202 34.3921 24.258 34.2017 24.193C34.0113 24.128 33.7845 24.2037 33.6816 23.8844C33.5895 23.9112 33.3727 23.9384 33.427 24.2473C33.3198 24.3284 33.2262 24.3827 32.9983 24.7024C32.9441 24.7834 32.8523 24.8756 32.7815 24.9949C32.5919 24.9949 32.3643 25.0328 32.0611 24.7674C32.1533 24.7024 32.2075 24.6602 32.2343 24.5941C32.155 24.5156 32.0826 24.4304 32.0179 24.3395C31.9364 24.2323 31.8821 24.1009 31.7793 24.0737C31.5518 24.0087 31.1778 24.1009 30.7606 24.0737C30.3595 24.0466 30.0237 23.9005 29.8773 23.8083C29.823 23.8351 29.823 23.8462 29.6876 23.8191C29.5523 23.7919 29.4494 23.7812 29.5955 23.9544C29.5144 23.9166 29.4222 23.8351 29.3408 23.9166C29.2594 23.998 29.1947 24.1169 28.9672 24.1441C28.7397 24.1712 28.6582 24.1334 28.5661 24.3716C28.4468 24.6641 28.8586 24.6642 28.8586 24.6642C28.8586 24.6642 28.6689 24.8377 28.4575 25.0653C28.2028 25.3035 27.9103 25.6125 27.8399 25.9918C27.7206 26.6908 28.4032 26.7826 28.4032 26.7826L31.7139 25.7639L35.7615 25.9647L39.2129 24.247L39.2151 24.2473Z" fill="#927D49"/>
<path fill-rule="evenodd" clip-rule="evenodd" d="M42.1898 33.8108C42.1898 33.8108 42.2969 33.6755 42.363 33.3558C42.4291 33.0361 42.4009 33.074 42.4552 32.8465C42.5095 32.6189 43.1763 30.354 42.9263 29.59C42.6763 28.826 42.2434 28.5442 41.9726 27.9266C41.9183 27.7913 41.8655 27.7098 41.8373 27.5905C41.7451 27.1898 41.8262 26.8808 41.718 26.4797C41.6801 26.3443 41.5822 26.1872 41.4361 26.0246C41.1147 25.6889 40.5907 25.3692 40.3646 25.1417C40.0453 24.8056 39.5899 24.1226 39.0102 24.058C38.7012 24.0201 38.2622 24.1501 37.8993 24.3666C37.5779 24.5673 37.3793 24.8488 37.0421 25.0095C36.8039 25.1288 36.5492 25.172 36.3217 25.2263C35.8502 25.3185 35.4219 25.3335 35.1672 25.2806C34.7772 25.1992 33.856 24.9174 33.3456 24.9174C32.9468 24.9238 32.5502 24.9784 32.1644 25.0799C31.3897 25.3074 30.4524 25.6978 29.8345 25.871C29.4716 25.9782 29.1791 26.0064 28.8809 26.0714C28.3715 26.1907 27.9436 26.3532 27.6997 26.6622C27.8622 26.8519 28.0625 27.1444 29.1466 27.1337C30.3764 27.1065 31.7962 26.424 32.4952 26.3154C33.1942 26.2068 33.4974 26.115 34.2779 26.3968C35.0429 26.6815 35.0683 26.8697 35.0683 26.8697C35.0683 26.8697 35.8716 27.4316 36.2077 28.8639C36.5438 30.2962 36.2077 31.3399 35.3351 32.3318C35.1076 32.5864 35.1619 32.814 35.1619 32.814C35.1619 32.814 34.5875 33.5887 34.7447 34.3141C34.9179 35.0349 36.0288 34.8885 36.0288 34.8885L42.1894 33.8108L42.1898 33.8108Z" fill="#6E6342"/>
<path fill-rule="evenodd" clip-rule="evenodd" d="M41.2632 31.3995C41.311 31.3097 41.3335 31.2086 41.3282 31.107C41.3175 30.9609 41.2739 30.7712 40.8353 30.343C40.4614 29.9694 40.5428 29.5522 40.5428 29.5522C40.5428 29.5522 40.3546 29.5143 39.8438 29.7533C39.4427 29.9429 39.308 29.6068 39.308 29.6068C39.1913 29.668 39.0647 29.7084 38.934 29.7261C38.8157 29.737 38.7011 29.7736 38.5983 29.8333C38.5983 29.8333 38.1268 29.3511 37.715 29.1235C37.341 28.9228 37.1242 28.7874 36.9399 28.9228C36.7667 29.0421 36.7667 29.2861 36.7777 29.3943C36.8207 29.4942 36.8751 29.5888 36.9399 29.6761C37.0592 29.8493 37.2489 30.0501 37.2614 30.2119C37.2885 30.5855 36.9796 31.0302 37.0449 31.1384C37.1103 31.2466 37.3535 31.2738 37.955 31.057C38.5779 30.8512 41.2657 31.3984 41.2657 31.3984L41.2632 31.3995Z" fill="#39331F"/>
<path fill-rule="evenodd" clip-rule="evenodd" d="M39.844 28.9775C39.844 28.9775 40.1526 29.27 40.0444 30.6898C39.9134 30.6917 39.7825 30.679 39.6543 30.6519C39.6543 30.6519 39.4861 29.5518 39.844 28.9775Z" fill="#292311"/>
<path fill-rule="evenodd" clip-rule="evenodd" d="M42.0433 34.8945C42.0003 34.9264 41.9603 34.9623 41.924 35.0017C42.0312 34.8013 42.5259 33.9994 42.1248 32.7368C41.7236 31.4799 40.716 30.5426 39.4752 30.499C38.2343 30.4555 37.5821 31.0627 36.8363 31.9728C36.5438 32.3357 36.2077 32.7911 35.9098 33.0997C35.4655 33.5822 35.1186 33.7176 35.1186 34.1834C35.1186 35.137 36.0941 35.5653 37.53 35.9932C38.9658 36.4211 40.261 36.3682 40.9328 36.0754C41.5883 35.756 41.8701 35.4199 42.0437 34.8942L42.0433 34.8945Z" fill="#252211"/>
<path fill-rule="evenodd" clip-rule="evenodd" d="M37.4326 28.5495L37.3255 28.6038C37.3255 28.6038 37.2987 29.0324 37.1251 29.021C36.9519 28.9939 36.8704 28.766 36.8869 28.6849C36.8976 28.6038 36.9408 28.4681 37.1144 28.4845C37.3419 28.4792 37.4337 28.5495 37.4337 28.5495L37.4326 28.5495Z" fill="#3F3824"/>
<path fill-rule="evenodd" clip-rule="evenodd" d="M37.9148 30.3701C37.9148 30.3701 37.8076 30.408 37.6766 30.278C37.5694 30.278 37.1022 30.3323 36.9558 30.2401C36.8093 30.1479 36.7661 30.0669 36.7661 30.0669C36.7661 30.0669 37.3133 29.9476 37.6115 30.0669C37.9148 30.1697 37.9148 30.3701 37.9148 30.3701Z" fill="#2D2815"/>
<path fill-rule="evenodd" clip-rule="evenodd" d="M35.5034 30.289C35.5034 30.3162 35.7959 30.5165 36.1048 30.5819C36.1591 30.5926 36.1702 30.5548 36.212 30.5548C36.2391 30.5655 36.2499 30.6469 36.2499 30.6469L36.4256 30.5544C36.4256 30.5544 36.4527 30.5165 36.3606 30.4472C36.2795 30.3822 36.1438 30.328 36.1059 30.2197C36.0681 30.1115 36.0681 30.0736 36.0516 30.0572C36.0409 30.0465 35.8512 30.0572 35.7591 30.1115C35.6669 30.1658 35.4934 30.2544 35.5044 30.2901L35.5034 30.289Z" fill="#82764F"/>
<path fill-rule="evenodd" clip-rule="evenodd" d="M38.2396 29.1889C38.2396 29.1889 38.1857 29.5625 37.8224 29.5789C37.4488 29.6061 37.3781 29.2432 37.3781 29.2432L37.5949 29.0264C37.5949 29.0317 37.7574 29.2593 38.2378 29.1889L38.2396 29.1889Z" fill="#2D2816"/>
<path fill-rule="evenodd" clip-rule="evenodd" d="M35.8827 30.7983C35.8827 30.7983 36.0834 30.5815 36.5274 30.5165C36.5652 30.5708 36.6467 30.679 36.5274 30.8523C36.4081 31.0255 36.2727 31.0798 36.1373 31.0259C36.0776 31.0162 36.0219 30.9896 35.9768 30.9493C35.9316 30.909 35.899 30.8566 35.8827 30.7983Z" fill="#574F35"/>
<path fill-rule="evenodd" clip-rule="evenodd" d="M35.0647 30.5327C35.0536 30.587 35.0915 30.5977 35.0647 30.6248C35.0379 30.652 34.8911 30.7059 34.864 30.6791C34.8532 30.668 34.864 30.6248 34.864 30.5719C34.864 30.5191 34.864 30.4648 34.8911 30.4259C34.929 30.3716 35.0372 30.3444 35.0915 30.3605C35.1458 30.3766 35.1565 30.4527 35.1565 30.4677C35.1297 30.4784 35.0647 30.5055 35.0647 30.5327ZM34.1396 31.1177C34.1396 31.1449 34.0474 31.1992 33.9932 31.1992C33.9121 31.1992 33.9121 31.1342 33.901 31.1177C33.8742 31.107 33.8742 31.1288 33.8471 31.0799C33.8199 31.0309 33.7817 30.9445 33.8092 30.8902C33.8367 30.8359 33.9446 30.7984 33.9714 30.8091C34.0092 30.8363 34.1285 31.0799 34.1396 31.1177Z" fill="#82764F"/>
<path fill-rule="evenodd" clip-rule="evenodd" d="M36.0018 30.4079C36.0018 30.4079 35.8825 30.3811 35.72 30.2454C35.7743 30.2076 35.8557 30.1643 35.8557 30.1643C35.8557 30.1643 35.8665 30.289 36.0018 30.4083L36.0018 30.4079Z" fill="#6E6342"/>
<path fill-rule="evenodd" clip-rule="evenodd" d="M36.2672 31.6003C36.2943 31.627 36.1861 31.692 36.1211 31.6813C36.0561 31.6706 36.029 31.627 35.9586 31.6163C35.8882 31.6056 35.8772 31.6435 35.8514 31.6706C35.8257 31.6978 35.7321 31.6813 35.7161 31.6706C35.7061 31.6587 35.697 31.6461 35.6889 31.6328C35.6878 31.6534 35.6824 31.6735 35.6731 31.692C35.6639 31.7104 35.6509 31.7267 35.635 31.7399C35.6142 31.7552 35.5902 31.7656 35.5649 31.7703C35.5395 31.775 35.5134 31.7739 35.4885 31.7671C35.4778 31.7292 35.4235 31.5938 35.4343 31.5667C35.445 31.5395 35.6075 31.5013 35.635 31.5288C35.6078 31.4634 35.4885 31.3281 35.4725 31.3013C35.4564 31.2745 35.5918 31.2091 35.6457 31.2198C35.7214 31.2252 36.1875 31.4963 36.2686 31.5992L36.2672 31.6003ZM35.5575 32.4996C35.5675 32.5269 35.5867 32.5499 35.6118 32.5646C35.6496 32.5754 35.7743 32.5646 35.7743 32.4996C35.7743 32.4346 35.6671 32.071 35.5468 31.8817C35.411 31.692 35.3192 31.5352 35.2271 31.4917C35.1982 31.4785 35.1653 31.4768 35.1351 31.4868C35.105 31.4969 35.0798 31.518 35.0646 31.546C35.0539 31.5731 35.0267 31.7735 35.0374 32.245C35.0481 32.7164 35.0646 33.1715 35.0917 33.1986C35.1189 33.2258 35.2271 33.2254 35.2649 33.1715C35.3028 33.1176 35.5468 32.5807 35.5578 32.4996L35.5575 32.4996Z" fill="#585136"/>
<path fill-rule="evenodd" clip-rule="evenodd" d="M36.04 29.7254C36.04 29.7254 36.2297 29.8447 36.414 29.7633C36.5872 29.6818 36.5765 29.3622 36.5765 29.3622C36.5376 29.3469 36.4954 29.3414 36.4539 29.3461C36.4123 29.3509 36.3725 29.3657 36.3379 29.3893C36.2186 29.4704 36.0672 29.6058 36.04 29.7251L36.04 29.7254Z" fill="#574F35"/>
<path fill-rule="evenodd" clip-rule="evenodd" d="M35.6823 29.2971C35.693 29.4043 35.7894 29.4043 35.7894 29.4597C35.7828 29.4861 35.7675 29.5096 35.7459 29.5263C35.7243 29.543 35.6978 29.552 35.6705 29.5518C35.6162 29.5518 35.5633 29.4868 35.4969 29.4447C35.4319 29.4068 35.3344 29.3375 35.3237 29.255C35.3129 29.1725 35.4308 28.9464 35.5619 28.9464C35.693 28.9464 35.6541 29.1903 35.6812 29.2986L35.6823 29.2971ZM34.6364 29.4436C34.6364 29.4436 34.8533 29.3786 34.8372 29.4436C34.8211 29.5086 34.7718 29.5247 34.7015 29.5247C34.6657 29.5621 34.6176 29.5853 34.5661 29.59C34.5366 29.5915 34.5077 29.5818 34.485 29.5629C34.485 29.5629 34.3386 29.6279 34.2953 29.59C34.2521 29.5522 34.2843 29.5522 34.2575 29.5086C34.2234 29.4602 34.201 29.4046 34.1921 29.3461C34.1921 29.3029 34.3546 29.2107 34.485 29.2268C34.6364 29.2593 34.6097 29.4164 34.6364 29.4436ZM33.3742 29.6875C33.3742 29.6875 33.3092 29.6497 33.3631 29.6061C33.401 29.5682 33.5906 29.499 33.7535 29.4868C33.916 29.4868 34.0621 29.46 34.0621 29.514C34.0621 29.5679 33.9267 29.6765 33.8456 29.7036C33.8294 29.724 33.8087 29.7404 33.7852 29.7517C33.7617 29.7629 33.736 29.7687 33.7099 29.7686C33.6449 29.7686 33.3906 29.7958 33.3199 29.8065C33.2549 29.8176 33.2006 29.7797 33.2388 29.7254C33.2549 29.6875 33.3742 29.6875 33.3742 29.6875ZM33.0002 31.3606C33.0002 31.3606 33.0816 31.1874 33.1734 31.1874C33.2656 31.1981 33.2656 31.2252 33.2656 31.2524C33.2656 31.2902 33.1734 31.3877 33.1845 31.4149C33.2113 31.4149 33.2767 31.4149 33.2656 31.4799C33.2656 31.5342 33.1734 31.5992 33.0924 31.587C33.0311 31.6374 32.9548 31.6659 32.8755 31.6681C32.7834 31.6681 32.7023 31.6413 32.7023 31.587C32.7023 31.5328 32.8095 31.4138 32.8488 31.3863C32.892 31.3431 32.9463 31.3149 33.0002 31.3595L33.0002 31.3606ZM34.2357 28.1584C34.2357 28.1584 34.3428 28.1474 34.3428 28.0934C34.3428 28.0663 34.3161 28.0663 34.2778 28.0824C34.2558 28.0836 34.234 28.0873 34.2128 28.0934C34.2021 28.0824 34.2021 28.0284 34.1207 28.0284C34.0538 28.0375 33.9894 28.0595 33.931 28.0934C33.866 28.1202 33.8117 28.1477 33.8117 28.2006C33.8389 28.2927 33.8932 28.3363 33.9742 28.3363C34.0158 28.339 34.0572 28.3295 34.0935 28.3092C34.0935 28.3092 34.1207 28.3635 34.2128 28.3092C34.305 28.2549 34.2943 28.2549 34.2671 28.2277C34.2185 28.1845 34.2346 28.1563 34.2346 28.1563L34.2357 28.1584ZM34.8479 27.5948C34.8479 27.622 34.7125 27.6763 34.6747 27.6598C34.6368 27.6491 34.5286 27.4434 34.5286 27.4216C34.5286 27.3944 34.664 27.3294 34.7182 27.3294C34.7725 27.3294 34.8643 27.4216 34.8643 27.4366C34.8643 27.4473 34.7993 27.4634 34.7993 27.4744C34.7832 27.5012 34.8479 27.5666 34.8479 27.5937L34.8479 27.5948ZM35.2765 28.386C35.2494 28.3967 35.2494 28.4238 35.2115 28.451C35.1997 28.4589 35.1862 28.4639 35.172 28.4658C35.1579 28.4676 35.1436 28.4662 35.1301 28.4617C35.1205 28.4787 35.1073 28.4934 35.0914 28.5047C35.0754 28.5161 35.0572 28.5237 35.0379 28.5271C34.9729 28.5378 34.9186 28.5271 34.9308 28.4999C34.9308 28.4185 34.8765 28.3645 34.8765 28.2995C34.8765 28.2345 34.9143 28.1531 35.0497 28.0988C35.1851 28.0609 35.3694 28.0609 35.3965 28.0717C35.4237 28.0824 35.4508 28.191 35.4237 28.2452C35.3965 28.2995 35.3208 28.3588 35.2772 28.386L35.2765 28.386Z" fill="#82764F"/>
<path fill-rule="evenodd" clip-rule="evenodd" d="M35.1041 28.3492C35.1041 28.3492 35.1963 28.2949 35.1963 28.2677C35.2044 28.2415 35.208 28.2141 35.207 28.1867C35.207 28.1706 35.0877 28.1974 35.0716 28.2138C35.0662 28.2245 35.1041 28.321 35.1041 28.3492Z" fill="#6E6342"/>
<path fill-rule="evenodd" clip-rule="evenodd" d="M35.9098 28.6038C35.8558 28.5928 35.7637 28.6038 35.6933 28.5767C35.639 28.5496 35.6012 28.4953 35.6555 28.4303C35.7097 28.3653 35.7626 28.2677 35.883 28.2842C36.0183 28.2949 36.1484 28.3653 36.1484 28.4195C36.1506 28.4539 36.1461 28.4883 36.1349 28.5209C36.1237 28.5535 36.1062 28.5835 36.0834 28.6092C36.0291 28.6524 36.0023 28.6253 35.9101 28.6038L35.9098 28.6038Z" fill="#585136"/>
<path fill-rule="evenodd" clip-rule="evenodd" d="M35.9748 28.5495C35.9748 28.5495 36.1481 28.4142 36.1916 28.3488C36.2459 28.2838 36.5113 27.948 36.5924 27.8777C36.5655 27.9252 36.5348 27.9704 36.5006 28.013C36.6078 27.9445 36.6881 27.8412 36.7281 27.7205C36.7931 27.5198 36.3649 27.4115 36.0834 27.3301C35.8019 27.2487 35.693 27.223 35.693 27.223C35.7966 27.3787 35.8856 27.5437 35.9587 27.7159C36.0659 27.9705 36.1213 27.9977 36.0509 28.117C35.9966 28.2363 35.9152 28.3174 35.9152 28.4095C35.9477 28.4952 35.9748 28.5495 35.9748 28.5495Z" fill="#574F35"/>
<path fill-rule="evenodd" clip-rule="evenodd" d="M42.1519 28.1213C42.1124 28.1141 42.072 28.1141 42.0326 28.1213C41.9515 28.1324 41.106 28.4428 40.2227 28.387C39.5615 28.3471 38.9061 28.2394 38.2668 28.0656C37.156 27.7731 35.7744 27.1933 34.8804 26.8626C34.6421 26.7708 34.4089 26.6079 34.2374 26.5433C33.5545 26.2775 33.5277 26.2775 33.1266 26.2072C32.6551 26.1421 32.1729 26.2993 31.669 26.4075C31.0514 26.5433 29.9948 26.6083 29.0683 26.7436C28.7687 26.7852 28.4732 26.8522 28.185 26.944C28.185 26.944 28.9219 26.2072 30.6885 25.9418C31.4026 25.8333 32.1282 25.8242 32.8448 25.9146C33.4084 25.9689 33.782 26.0504 34.0639 26.1314C34.3835 26.2236 35.0393 26.4675 35.8465 26.6672C36.4102 26.8137 37.0388 26.9219 37.7593 27.0573C39.5366 27.3826 41.4654 27.7563 42.1526 28.1192L42.1519 28.1213Z" fill="#252211"/>
<path fill-rule="evenodd" clip-rule="evenodd" d="M44.146 31.4699C44.5746 31.107 45.0293 30.7602 45.4733 30.4244L46.8117 29.3961C47.2667 29.0603 47.711 28.7135 48.1664 28.3774C48.6218 28.0413 49.0765 27.722 49.5594 27.413C49.1308 27.7759 48.6761 28.112 48.2211 28.4424C47.766 28.7728 47.2942 29.0968 46.8552 29.4318L45.5169 30.4616C45.0565 30.7973 44.6121 31.1441 44.146 31.4692L44.146 31.4699ZM46.5138 27.677C46.5138 27.677 46.0316 28.0781 45.4301 28.6414C44.6825 29.34 43.7667 30.2344 43.4741 30.3965L46.5141 27.6766L46.5138 27.677Z" fill="#CFB66C"/>
<path fill-rule="evenodd" clip-rule="evenodd" d="M46.5139 27.6773C46.2753 27.9155 46.0206 28.1484 45.766 28.3763L45.3759 28.712C45.2566 28.8192 45.1209 28.9396 45.002 29.0589C44.7637 29.2971 44.5305 29.5521 44.2922 29.7957C44.1742 29.9182 44.0493 30.034 43.9183 30.1426C43.8528 30.2005 43.78 30.2498 43.7018 30.289C43.6365 30.3269 43.5661 30.3962 43.4743 30.4083C43.5282 30.3269 43.5932 30.289 43.6475 30.2186C43.7125 30.1643 43.7668 30.0993 43.8208 30.0454C43.9401 29.9261 44.0754 29.8179 44.1947 29.7093C44.4494 29.4925 44.7148 29.2807 44.9695 29.0539C45.2241 28.8271 45.4624 28.5824 45.7174 28.3549C45.9935 28.1216 46.2482 27.8941 46.5139 27.6762L46.5139 27.6773ZM43.2736 29.8447C43.2736 29.8447 45.0398 28.1159 45.4031 27.8344L43.2736 29.8447Z" fill="#CFB66C"/>
<path fill-rule="evenodd" clip-rule="evenodd" d="M43.2737 29.8447C43.4326 29.6608 43.6029 29.4871 43.7837 29.3246L44.3195 28.8153C44.4927 28.6421 44.6556 28.4685 44.8396 28.2952C45.0292 28.1327 45.2025 27.9738 45.4032 27.8238L44.8831 28.3331C44.7096 28.5063 44.5199 28.6524 44.3356 28.826L43.8155 29.3354C43.6369 29.5139 43.4633 29.6875 43.2737 29.8447ZM43.1926 28.9075C43.3554 28.4531 43.5473 28.0096 43.767 27.5798C44.222 26.6694 44.9046 25.5317 45.2028 24.9517L43.1926 28.9075Z" fill="#CFB66C"/>
<path fill-rule="evenodd" clip-rule="evenodd" d="M43.1922 28.9071C43.1922 28.7067 43.2465 28.5331 43.3115 28.3599C43.3748 28.1865 43.4471 28.0165 43.5279 27.8505C43.6093 27.688 43.7015 27.5144 43.7937 27.3573C43.8858 27.2001 43.994 27.0379 44.0755 26.8751L44.6227 25.9107C44.8123 25.5892 44.9966 25.266 45.197 24.957C45.0616 25.3038 44.8773 25.6289 44.7038 25.9485C44.5141 26.27 44.3409 26.5915 44.168 26.924C44.0836 27.0897 44.0076 27.2596 43.9405 27.433C43.8594 27.6066 43.7783 27.7691 43.7129 27.9263C43.6319 28.0995 43.5668 28.2624 43.4854 28.4192C43.3936 28.5874 43.3175 28.7499 43.1929 28.9071L43.1922 28.9071Z" fill="#CFB66C"/>
<path fill-rule="evenodd" clip-rule="evenodd" d="M41.2633 24.4641C41.2633 24.4641 41.7991 23.7544 41.7455 22.855C41.5994 23.3261 41.4151 24.0469 41.2633 24.4641ZM40.754 23.7526C40.754 23.7526 40.9436 21.8238 41.1008 20.8755C40.8786 21.9717 40.8354 21.8795 40.754 23.7526ZM37.205 20.7615C37.205 20.7615 38.0069 18.4041 38.0233 17.7491C37.8497 18.4227 37.514 19.7989 37.205 20.7633L37.205 20.7615Z" fill="#DEC270"/>
<path fill-rule="evenodd" clip-rule="evenodd" d="M35.3302 24.6098C35.3302 24.6098 34.0297 22.4642 33.0542 20.633C33.3182 21.5545 33.9254 23.2447 35.3302 24.6098Z" fill="#CBAF59"/>
<path fill-rule="evenodd" clip-rule="evenodd" d="M31.8351 21.4513C31.121 20.1891 30.4771 18.8885 29.9063 17.5555C30.0145 18.4767 30.3074 20.0533 31.8351 21.4513Z" fill="#E3C677"/>
<path fill-rule="evenodd" clip-rule="evenodd" d="M21.5619 18.2878C21.3455 18.4231 20.9172 19.1603 20.5432 19.3443C20.1696 19.534 19.8878 19.5718 19.5517 19.9458C19.2159 20.3362 19.1231 20.5744 18.3869 20.883C17.3572 21.3277 18.0655 21.9021 18.0655 21.9021C17.952 22.0135 17.8307 22.1166 17.7026 22.2107C17.4368 22.4111 17.1282 22.655 17.155 23.0833C17.1929 23.8037 17.3282 24.8495 17.919 25.4564C17.3447 25.5757 16.2449 25.6568 15.5616 25.83C14.7708 26.0307 14.4076 26.3126 14.4076 26.3126C14.4076 26.3126 14.8626 27.0873 14.1257 27.8674C13.3889 28.6474 12.7874 29.1136 12.343 29.9862C12.8524 30.0512 13.6289 30.3219 15.6105 29.569C15.5036 29.5186 15.4003 29.4608 15.3016 29.3957C15.3016 29.3957 16.5206 29.0596 16.965 28.6857C17.7401 28.0302 17.8376 27.4938 18.6773 27.0926C19.517 26.6915 20.3625 26.8001 21.0611 26.4751C21.7598 26.15 21.863 25.8736 22.118 25.7543C22.0637 25.6893 22.1287 25.581 22.0259 25.4889C22.0909 25.3967 22.4702 24.7792 22.8549 24.7792C22.817 24.6327 22.492 24.5245 22.492 24.5245C22.492 24.5245 22.7302 24.3509 23.3371 24.3077C23.0285 23.9862 22.7356 23.6358 21.9284 23.1265C21.9934 22.9911 22.2645 22.7904 22.1559 22.5357C22.0366 22.281 21.7273 21.9342 20.4925 21.6524C21.1211 21.6256 21.8576 21.4792 22.8499 21.6145C23.8414 21.7338 24.004 21.8042 24.6162 21.6524C24.5512 21.5874 24.3779 21.5874 24.2261 21.4142C24.3886 21.4034 25.4073 21.5335 25.7541 21.0781C26.117 20.6069 26.2742 19.8319 26.2471 19.3118C26.4367 19.2196 26.621 19.0571 26.5289 18.721C26.4367 18.3849 25.9545 18.2767 25.6456 18.0656C25.337 17.8381 25.3098 17.757 25.0169 17.8109C24.7083 17.8759 24.2533 18.1845 23.9875 18.1845C23.7218 18.1845 23.5325 17.9841 23.5325 17.9841C23.5325 17.9841 22.8117 18.331 22.7413 18.266C22.6763 18.201 22.7306 17.7838 22.6602 17.7188C22.5888 17.6698 21.7769 18.152 21.5601 18.2878L21.5619 18.2878Z" fill="#ECD592"/>
</svg>
