<svg width="257" height="70" viewBox="0 0 257 70" fill="none" xmlns="http://www.w3.org/2000/svg">
<path d="M88.8633 54.8744C88.8645 54.8754 88.8668 54.8754 88.8691 54.8765C88.8668 54.8754 88.8656 54.8754 88.8644 54.8744H88.8633ZM94.9541 56.8934C92.6819 55.6741 90.6434 55.3818 88.8691 54.8765C90.9532 55.5948 92.9834 56.2682 94.9541 56.8934ZM98.3449 59.3782C99.8562 60.8063 100.822 62.304 101.442 63.6989C102.827 64.0051 104.758 64.246 106.099 64.246C111.77 64.246 115.356 61.8019 115.356 61.8019C109.705 61.1028 102.803 59.3835 94.9541 56.8934C96.0329 57.4726 97.1644 58.2594 98.3449 59.3782Z" fill="url(#paint0_linear_1028:8785)"/>
<path d="M88.8633 54.8743C98.0539 58.1117 107.126 60.802 115.356 61.8018C115.356 61.8018 114.039 58.9071 110.509 56.4855C108.485 57.0358 106.459 57.2499 104.534 57.2499C97.8365 57.2499 92.3336 54.6602 92.2062 54.6002C91.3681 54.7876 90.0906 54.9268 88.8633 54.8743Z" fill="url(#paint1_linear_1028:8785)"/>
<path d="M92.2053 54.6002C94.3501 54.1185 96.6212 53.2631 99.7841 53.2631C101.19 53.2631 102.772 53.4323 104.596 53.8787C107.037 54.475 108.977 55.4363 110.508 56.4855C120.116 53.6849 123.135 46.9608 123.135 46.9608C113.647 48.0442 103.215 50.8062 92.2053 54.6002Z" fill="url(#paint2_linear_1028:8785)"/>
<path d="M95.3564 52.4902C94.4085 53.3498 93.4301 54.0906 92.197 54.5959L92.2052 54.6002C103.342 50.7687 113.784 48.0185 123.135 46.9608C123.135 46.9608 119.935 44.794 114.833 44.3187C107.473 51.6873 95.7585 52.4655 95.3564 52.4902Z" fill="url(#paint3_linear_1028:8785)"/>
<path d="M111.185 29.8224C108.658 41.2505 97.4094 48.466 97.1101 48.6566C96.7268 50.0344 96.2546 51.3094 95.3557 52.4902C104.73 42.1069 113.639 33.5447 121.191 27.9007C121.191 27.9007 121.061 27.8943 120.821 27.8943C119.616 27.8943 115.612 28.042 111.185 29.8224Z" fill="url(#paint4_linear_1028:8785)"/>
<path d="M95.3557 52.4902H95.3569C97.9879 50.0986 100.37 46.7767 107.232 44.9664C109.25 44.4354 112.367 44.0746 114.833 44.3187C121.727 37.7198 119.758 31.6883 121.191 27.9007C111.938 34.8539 103.456 43.2588 95.3557 52.4902Z" fill="url(#paint5_linear_1028:8785)"/>
<path d="M97.1108 48.6566C98.1733 44.8283 98.379 40.2078 104.035 34.6377C106.361 32.3478 108.784 30.8704 111.186 29.8224C111.502 18.9038 107.778 17.1599 106.791 9.97007C102.625 22.2033 99.4649 35.0906 97.1108 48.6566Z" fill="url(#paint6_linear_1028:8785)"/>
<path d="M98.0753 17.374C103.041 30.1896 96.4939 43.5972 96.356 43.8766C96.8749 45.4567 97.2326 46.9887 97.1099 48.6566C99.3096 35.6954 102.595 22.8038 106.79 9.97007C106.79 9.97007 101.935 12.0962 98.0753 17.374Z" fill="url(#paint7_linear_1028:8785)"/>
<path d="M96.3547 43.8701C94.91 39.4712 92.1001 34.7522 94.0953 26.0979C94.9159 22.5394 96.3793 19.7206 98.0753 17.374C92.1972 6.12997 84.6651 6.63741 80.7168 -7.62939e-06C83.7172 14.6387 89.1102 29.2507 96.3547 43.8701ZM96.3559 43.8765V43.8744C96.3559 43.8733 96.3547 43.8712 96.3547 43.8701C96.3547 43.8722 96.3559 43.8744 96.3559 43.8765Z" fill="url(#paint8_linear_1028:8785)"/>
<path d="M92.4798 39.5162C88.1645 35.9224 82.2747 32.7621 78.6069 23.0394C77.0991 19.042 76.7005 15.3593 76.8711 12.1604C64.0934 4.17093 58.781 9.04943 48.2112 4.36684C62.3857 17.7209 77.1844 29.3182 92.4798 39.5162Z" fill="url(#paint9_linear_1028:8785)"/>
<path d="M52.3275 18.5987C72.2667 21.3147 85.4583 36.9512 85.8311 37.3023C88.1992 37.737 90.4036 38.3376 92.4795 39.5162C78.257 30.0568 62.9663 18.102 48.2108 4.36684C48.2108 4.36684 47.8987 11.0278 52.3275 18.5987Z" fill="url(#paint10_linear_1028:8785)"/>
<path d="M32.076 38.4819C39.1849 35.7777 46.5182 34.8677 53.1701 34.8677C66.9016 34.8677 77.7368 38.7463 77.7368 38.7463L77.7204 38.756C80.2486 37.9295 82.8844 37.0634 85.6732 37.2872C63.3121 35.327 40.9674 32.0329 18.6694 26.5549C18.6694 26.5549 22.7113 33.3647 32.076 38.4819ZM85.8404 37.3022C85.7842 37.2968 85.7293 37.2915 85.6732 37.2872C85.7293 37.2925 85.7842 37.2968 85.8404 37.3022Z" fill="url(#paint11_linear_1028:8785)"/>
<path d="M18.6694 26.555C40.5186 32.0159 63.45 35.3871 85.8322 37.3023C79.1663 36.0808 71.2076 36.1889 61.1696 28.4895C57.053 25.3325 54.2489 21.8799 52.3285 18.5987C51.1819 18.4499 50.0738 18.3814 48.9962 18.3814C38.4263 18.3814 30.8359 24.9663 18.6694 26.555Z" fill="url(#paint12_linear_1028:8785)"/>
<path d="M0 62.3521C30.1327 57.9885 59.6319 49.3374 77.7197 38.756C71.6534 40.7387 64.2547 44.5948 52.592 43.9974C43.4458 43.5296 37.3585 41.2857 32.0753 38.482C13.9852 47.4393 14.3779 56.7584 0 62.3521Z" fill="url(#paint13_linear_1028:8785)"/>
<path d="M61.1702 28.4895C71.2094 36.1825 79.1622 36.0851 85.8327 37.3023C76.4329 26.9244 63.6552 20.0225 52.3291 18.5987C54.3091 22.0213 57.4065 25.6033 61.1702 28.4895Z" fill="url(#paint14_linear_1028:8785)"/>
<path d="M101.442 63.6989C100.822 62.3039 99.8563 60.8062 98.3449 59.3781C94.6724 55.902 91.4815 55.6215 88.8645 54.8743C88.8598 54.8732 88.8563 54.8743 88.8528 54.8732C88.8528 54.8732 93.5001 61.82 101.442 63.6989Z" fill="url(#paint15_linear_1028:8785)"/>
<path d="M92.2053 54.6002C92.369 54.6773 101.446 58.9488 110.507 56.4855C108.977 55.4363 107.037 54.475 104.596 53.8787C102.772 53.4322 101.189 53.2631 99.7841 53.2631C96.62 53.2631 94.349 54.1185 92.2053 54.6002Z" fill="url(#paint16_linear_1028:8785)"/>
<path d="M107.232 44.9664C100.37 46.7767 97.9879 50.0986 95.3557 52.4902C95.759 52.4645 107.473 51.6884 114.833 44.3187C114.221 44.263 113.572 44.232 112.892 44.232C111.172 44.232 109.253 44.4332 107.232 44.9664Z" fill="url(#paint17_linear_1028:8785)"/>
<path d="M104.035 34.6377C98.379 40.2078 98.1721 44.8283 97.1108 48.6566C97.3727 48.496 108.659 41.2505 111.186 29.8224C108.848 30.8308 106.361 32.3478 104.035 34.6377Z" fill="url(#paint18_linear_1028:8785)"/>
<path d="M94.0959 26.099C92.0996 34.7555 94.913 39.4745 96.3565 43.8755C96.4944 43.5971 103.041 30.1896 98.0758 17.374C96.4044 19.6628 94.9165 22.5394 94.0959 26.099Z" fill="url(#paint19_linear_1028:8785)"/>
<path d="M78.6079 23.0393C82.2757 32.762 88.1655 35.9234 92.4809 39.5161C92.4855 39.5204 92.4914 39.5226 92.4961 39.5258C92.4961 39.5258 90.3384 22.3156 76.8722 12.1614C76.7015 15.3592 77.1001 19.0419 78.6079 23.0393Z" fill="url(#paint20_linear_1028:8785)"/>
<path d="M32.0759 38.482C36.175 40.7087 41.1859 42.6143 47.3527 43.5029C62.3781 45.6665 70.2678 41.1926 77.7203 38.756C77.725 38.7528 77.7308 38.7496 77.7367 38.7464C77.7367 38.7464 66.9003 34.8678 53.17 34.8667C46.5169 34.8667 39.186 35.7778 32.0759 38.482Z" fill="url(#paint21_linear_1028:8785)"/>
<path d="M76.8711 12.1604C90.3373 22.3146 92.495 39.5258 92.495 39.5258L92.4798 39.5162C94.0308 40.8094 95.3879 42.1444 96.3557 43.8755C89.4233 29.8299 84.3038 15.174 80.7166 2.67029e-05C78.7786 2.80059 77.0978 7.78079 76.8711 12.1604Z" fill="url(#paint22_linear_1028:8785)"/>
<path d="M77.1563 39.073C77.3445 38.9681 77.5315 38.8621 77.7197 38.7561C77.5315 38.8567 77.3433 38.9616 77.1563 39.073ZM0 62.3521C14.0576 69.6693 25.441 70.0001 33.8695 68.526C58.9516 64.4975 67.6011 44.7501 77.1563 39.073C55.3037 51.3201 28.3783 58.0282 0 62.3521Z" fill="url(#paint23_linear_1028:8785)"/>
<g opacity="0.75">
<g opacity="0.75">
<g opacity="0.75">
<g opacity="0.75">
<g opacity="0.75">
<path opacity="0.75" d="M56.6899 12.0148C68.6133 21.7119 80.5448 31.2772 92.4436 39.2057C92.4763 39.3749 92.4857 39.5269 92.4857 39.5269C92.4857 39.5269 91.4711 38.9906 90.8435 38.7079C79.3503 30.9614 67.8267 21.7493 56.6899 12.0148Z" fill="url(#paint24_linear_1028:8785)"/>
</g>
</g>
</g>
</g>
</g>
<g opacity="0.75">
<g opacity="0.75">
<g opacity="0.75">
<g opacity="0.75">
<g opacity="0.75">
<path opacity="0.75" d="M83.1497 9.36307C86.8771 21.2151 91.1995 32.8306 96.4967 43.5961C96.423 43.7438 96.3576 43.8744 96.3576 43.8744C96.3576 43.8744 95.8643 43.0019 95.3535 42.3703C90.3439 31.9827 86.2424 21.1252 83.1497 9.36307Z" fill="url(#paint25_linear_1028:8785)"/>
</g>
</g>
</g>
</g>
</g>
<g opacity="0.75">
<g opacity="0.75">
<g opacity="0.75">
<g opacity="0.75">
<g opacity="0.75">
<path opacity="0.75" d="M97.1166 48.6576C97.1166 48.6576 97.1493 47.844 97.1038 47.2092C99.2217 35.1794 102.375 22.7 106.476 10.1231C106.562 10.0792 106.791 9.96791 106.791 9.96791C106.791 9.96791 106.841 10.3051 106.875 10.5214C102.691 23.4012 99.4999 36.1718 97.3995 48.4606C97.2475 48.572 97.1166 48.6576 97.1166 48.6576Z" fill="url(#paint26_linear_1028:8785)"/>
</g>
</g>
</g>
</g>
</g>
<g opacity="0.75">
<g opacity="0.75">
<g opacity="0.75">
<g opacity="0.75">
<g opacity="0.75">
<path opacity="0.75" d="M114.012 33.9043C107.524 39.7324 102.851 44.3347 95.702 52.4666C95.5185 52.4773 95.3643 52.4944 95.3643 52.4944C95.3643 52.4944 95.937 51.6455 96.1661 51.2044C102.994 43.5136 110.616 36.3698 117.186 31.0331" fill="url(#paint27_linear_1028:8785)"/>
</g>
</g>
</g>
</g>
</g>
<g opacity="0.75">
<g opacity="0.75">
<g opacity="0.75">
<g opacity="0.75">
<g opacity="0.75">
<path opacity="0.75" d="M119.034 47.5389C111.321 48.7572 102.647 51.2666 92.5187 54.7405C92.4451 54.7084 92.209 54.6078 92.209 54.6078C92.209 54.6078 93.0307 54.2341 93.5625 53.8894C103.181 50.6446 111.482 48.1866 119.034 47.5389Z" fill="url(#paint28_linear_1028:8785)"/>
</g>
</g>
</g>
</g>
</g>
<path d="M102.445 69.5847C102.445 69.5847 102.875 66.9169 101.442 63.6988C93.4996 61.82 88.8523 54.8732 88.8523 54.8732L88.8628 54.8743C87.9196 54.6045 87.05 54.2769 86.261 53.7149C91.1643 59.8256 96.6087 65.5455 102.445 69.5847Z" fill="url(#paint29_linear_1028:8785)"/>
<path d="M101.443 63.6989C100.822 62.304 99.8565 60.8063 98.3452 59.3782C94.6727 55.9021 91.4818 55.6216 88.8647 54.8744C88.86 54.8733 88.8565 54.8744 88.853 54.8733C88.853 54.8733 93.5003 61.8201 101.443 63.6989Z" fill="url(#paint30_linear_1028:8785)"/>
<path d="M102.442 69.5847C97.4145 65.978 91.8906 60.9968 86.6016 54.521C89.152 60.9004 88.6073 67.8558 102.442 69.5847Z" fill="url(#paint31_linear_1028:8785)"/>
<path d="M86.602 54.521C90.2465 58.9841 93.8769 62.5769 97.3823 65.6162C93.5099 62.2258 90.6018 58.7807 86.7131 54.0061C86.5518 53.9087 86.4828 53.8648 86.2607 53.7149C86.3823 53.9825 86.4957 54.2512 86.602 54.521ZM98.488 66.5604C98.121 66.2521 97.7516 65.9374 97.3823 65.6162C97.7423 65.9309 98.1093 66.2457 98.488 66.5604Z" fill="url(#paint32_linear_1028:8785)"/>
<g opacity="0.75">
<g opacity="0.75">
<g opacity="0.75">
<g opacity="0.75">
<g opacity="0.75">
<path opacity="0.75" d="M109.674 60.8812C103.876 59.9531 97.1297 58.0239 89.0881 55.202C88.9268 55.0039 88.8613 54.8765 88.8613 54.8765C88.8613 54.8765 89.2821 54.8872 89.5954 54.8829C97.4909 57.6428 104.021 59.7325 109.674 60.8812Z" fill="url(#paint33_linear_1028:8785)"/>
</g>
</g>
</g>
</g>
</g>
<g opacity="0.75">
<g opacity="0.75">
<g opacity="0.75">
<g opacity="0.75">
<g opacity="0.75">
<path opacity="0.75" d="M144.252 27.0614C139.8 31.1455 133.843 35.1622 126.076 39.316C125.708 39.3856 125.143 39.5697 125.143 39.5697C125.143 39.5697 125.456 39.2207 125.637 39.0323C133.364 34.9107 139.296 30.9293 143.731 26.8858C144.006 26.7723 144.362 26.6471 144.362 26.6471C144.362 26.6471 144.301 26.8698 144.252 27.0614Z" fill="url(#paint34_linear_1028:8785)"/>
</g>
</g>
</g>
</g>
</g>
<path d="M137.851 32.1122C134.054 34.8153 129.87 37.0828 125.165 39.5654C131.721 37.6994 138.599 39.0601 142.396 32.0886C143.144 30.7162 143.768 29.0376 144.238 26.9575C142.335 28.7303 140.194 30.4464 137.851 32.1122Z" fill="url(#paint35_linear_1028:8785)"/>
<path d="M132.958 29.7003C128.195 32.032 127.641 35.2211 126.623 37.4072V37.4083C126.257 38.194 125.827 38.9167 125.134 39.5579C127.614 38.2551 130.043 36.8965 132.37 35.4855C132.439 33.3573 132.753 31.2601 133.699 29.3684C133.457 29.468 133.212 29.5772 132.958 29.7003ZM126.623 37.4125C126.623 37.4136 126.623 37.4147 126.622 37.4158L126.623 37.4125Z" fill="url(#paint36_linear_1028:8785)"/>
<path d="M133.699 29.3684C132.752 31.2601 132.439 33.3573 132.37 35.4855C136.908 32.7321 141.049 29.7795 144.353 26.6396C139.262 28.7089 136.901 28.0548 133.699 29.3684Z" fill="url(#paint37_linear_1028:8785)"/>
<path d="M76.5376 39.1576C62.6997 47.0186 42.0989 54.0222 19.7378 58.7765C41.4724 55.4374 61.4712 47.9072 75.1549 40.4679C76.0081 39.7967 76.8579 39.2143 77.7181 38.7572C77.3254 38.8857 76.9327 39.0206 76.5376 39.1576Z" fill="url(#paint38_linear_1028:8785)"/>
<path d="M83.4872 37.3247C84.2563 37.2476 85.0359 37.2273 85.8296 37.3022L85.5572 37.0196C66.5846 35.3784 49.0111 32.4237 31.8853 29.5782C47.9112 32.9312 65.1306 35.6728 83.4872 37.3247Z" fill="url(#paint39_linear_1028:8785)"/>
<path d="M138.746 33.304V40.48H147.698V41.584H138.746V49H137.522V32.2H148.754V33.304H138.746ZM165.527 49L161.519 43.384C160.927 43.464 160.383 43.504 159.887 43.504H155.087V49H153.863V32.2H159.887C161.999 32.2 163.655 32.704 164.855 33.712C166.055 34.704 166.655 36.088 166.655 37.864C166.655 39.192 166.311 40.312 165.623 41.224C164.951 42.12 163.983 42.752 162.719 43.12L166.919 49H165.527ZM159.887 42.424C161.679 42.424 163.047 42.032 163.991 41.248C164.935 40.448 165.407 39.32 165.407 37.864C165.407 36.408 164.935 35.288 163.991 34.504C163.047 33.704 161.679 33.304 159.887 33.304H155.087V42.424H159.887ZM182.729 44.272H172.985L170.849 49H169.529L177.257 32.2H178.481L186.209 49H184.889L182.729 44.272ZM182.273 43.24L177.857 33.544L173.465 43.24H182.273ZM195.45 40.72L191.682 44.584V49H190.458V32.2H191.682V43L202.17 32.2H203.658L196.266 39.832L204.162 49H202.674L195.45 40.72ZM210.835 33.304H204.787V32.2H218.107V33.304H212.059V49H210.835V33.304ZM231.891 44.272H222.147L220.011 49H218.691L226.419 32.2H227.643L235.371 49H234.051L231.891 44.272ZM231.435 43.24L227.019 33.544L222.627 43.24H231.435ZM239.621 32.2H240.845V47.896H250.517V49H239.621V32.2Z" fill="black"/>
<defs>
<linearGradient id="paint0_linear_1028:8785" x1="90.5918" y1="59.5605" x2="115.271" y2="59.5605" gradientUnits="userSpaceOnUse">
<stop stop-color="#00C4A5"/>
<stop offset="0.199095" stop-color="#00C4A5"/>
<stop offset="0.821742" stop-color="#36F9BA"/>
<stop offset="0.864997" stop-color="#36F9BA"/>
<stop offset="1" stop-color="#36F9BA"/>
</linearGradient>
<linearGradient id="paint1_linear_1028:8785" x1="115.366" y1="60.3706" x2="96.0844" y2="53.8134" gradientUnits="userSpaceOnUse">
<stop stop-color="#27F9B5"/>
<stop offset="0.0649574" stop-color="#27F9B5"/>
<stop offset="1" stop-color="#00B5AA"/>
</linearGradient>
<linearGradient id="paint2_linear_1028:8785" x1="123.607" y1="49.7592" x2="101.094" y2="56.0904" gradientUnits="userSpaceOnUse">
<stop stop-color="#16F6E3"/>
<stop offset="0.216166" stop-color="#16F6E3"/>
<stop offset="0.245692" stop-color="#16F6E3"/>
<stop offset="0.974" stop-color="#028FBD"/>
<stop offset="1" stop-color="#028FBD"/>
</linearGradient>
<linearGradient id="paint3_linear_1028:8785" x1="118.252" y1="45.8914" x2="93.0736" y2="56.2003" gradientUnits="userSpaceOnUse">
<stop stop-color="#2EF4E5"/>
<stop offset="0.0389605" stop-color="#2EF4E5"/>
<stop offset="1" stop-color="#0495B6"/>
</linearGradient>
<linearGradient id="paint4_linear_1028:8785" x1="114.108" y1="31.2087" x2="97.4471" y2="53.6204" gradientUnits="userSpaceOnUse">
<stop stop-color="#01EEFF"/>
<stop offset="0.178819" stop-color="#01EEFF"/>
<stop offset="0.189069" stop-color="#01EEFF"/>
<stop offset="1" stop-color="#0773D8"/>
</linearGradient>
<linearGradient id="paint5_linear_1028:8785" x1="117.89" y1="34.0202" x2="101.229" y2="56.432" gradientUnits="userSpaceOnUse">
<stop stop-color="#05E9F5"/>
<stop offset="0.00090939" stop-color="#05E9F5"/>
<stop offset="0.143672" stop-color="#05E9F5"/>
<stop offset="0.850942" stop-color="#0674E5"/>
<stop offset="1" stop-color="#0674E5"/>
</linearGradient>
<linearGradient id="paint6_linear_1028:8785" x1="107.276" y1="20.4891" x2="103.286" y2="49.0052" gradientUnits="userSpaceOnUse">
<stop stop-color="#11B1FF"/>
<stop offset="0.150546" stop-color="#11B1FF"/>
<stop offset="0.161174" stop-color="#11B1FF"/>
<stop offset="0.891617" stop-color="#0778E8"/>
<stop offset="1" stop-color="#0778E8"/>
</linearGradient>
<linearGradient id="paint7_linear_1028:8785" x1="101.432" y1="19.6715" x2="97.4417" y2="48.1876" gradientUnits="userSpaceOnUse">
<stop stop-color="#26CDFF"/>
<stop offset="0.848313" stop-color="#1056E7"/>
<stop offset="0.860656" stop-color="#1056E7"/>
<stop offset="1" stop-color="#1056E7"/>
</linearGradient>
<linearGradient id="paint8_linear_1028:8785" x1="85.448" y1="-0.481876" x2="96.696" y2="37.7773" gradientUnits="userSpaceOnUse">
<stop stop-color="#2794FF"/>
<stop offset="0.0917245" stop-color="#2794FF"/>
<stop offset="0.892275" stop-color="#1030E6"/>
<stop offset="0.906725" stop-color="#1030E6"/>
<stop offset="1" stop-color="#1030E6"/>
</linearGradient>
<linearGradient id="paint9_linear_1028:8785" x1="57.4747" y1="6.69967" x2="90.1289" y2="34.2007" gradientUnits="userSpaceOnUse">
<stop stop-color="#3C3FFF"/>
<stop offset="0.575529" stop-color="#3D8CFC"/>
<stop offset="0.585917" stop-color="#3D8CFC"/>
<stop offset="1" stop-color="#3D8CFC"/>
</linearGradient>
<linearGradient id="paint10_linear_1028:8785" x1="52.2608" y1="12.8901" x2="84.9151" y2="40.3911" gradientUnits="userSpaceOnUse">
<stop stop-color="#60A9FF"/>
<stop offset="0.0284187" stop-color="#60A9FF"/>
<stop offset="1" stop-color="#383CFB"/>
</linearGradient>
<linearGradient id="paint11_linear_1028:8785" x1="14.7973" y1="29.7299" x2="80.4977" y2="44.2051" gradientUnits="userSpaceOnUse">
<stop stop-color="#A195FB"/>
<stop offset="0.0494025" stop-color="#A195FB"/>
<stop offset="1" stop-color="#5D1FF7"/>
</linearGradient>
<linearGradient id="paint12_linear_1028:8785" x1="25.7206" y1="23.5079" x2="77.6893" y2="29.9075" gradientUnits="userSpaceOnUse">
<stop stop-color="#9974FF"/>
<stop offset="0.812519" stop-color="#4219EE"/>
<stop offset="0.865162" stop-color="#4219EE"/>
<stop offset="1" stop-color="#4219EE"/>
</linearGradient>
<linearGradient id="paint13_linear_1028:8785" x1="3.15912" y1="60.98" x2="59.2623" y2="32.7089" gradientUnits="userSpaceOnUse">
<stop stop-color="#7F1EF2"/>
<stop offset="1e-05" stop-color="#7F1EF2"/>
<stop offset="1" stop-color="#9E39FE"/>
</linearGradient>
<linearGradient id="paint14_linear_1028:8785" x1="53.107" y1="19.765" x2="82.9058" y2="39.9055" gradientUnits="userSpaceOnUse">
<stop stop-color="#476BFD"/>
<stop offset="0.0284187" stop-color="#476BFD"/>
<stop offset="1" stop-color="#5632FA"/>
</linearGradient>
<linearGradient id="paint15_linear_1028:8785" x1="101.158" y1="63.6959" x2="89.5335" y2="52.6098" gradientUnits="userSpaceOnUse">
<stop stop-color="#82FAA1"/>
<stop offset="1" stop-color="#74E1F9"/>
</linearGradient>
<linearGradient id="paint16_linear_1028:8785" x1="93.3997" y1="55.2567" x2="110.449" y2="55.2567" gradientUnits="userSpaceOnUse">
<stop stop-color="#029AC5"/>
<stop offset="0.935043" stop-color="#00C3C4"/>
<stop offset="1" stop-color="#00C3C4"/>
</linearGradient>
<linearGradient id="paint17_linear_1028:8785" x1="96.3993" y1="51.3366" x2="113.202" y2="43.5668" gradientUnits="userSpaceOnUse">
<stop stop-color="#0673BF"/>
<stop offset="0.125165" stop-color="#0673BF"/>
<stop offset="0.98908" stop-color="#05E9F5"/>
<stop offset="1" stop-color="#05E9F5"/>
</linearGradient>
<linearGradient id="paint18_linear_1028:8785" x1="97.6779" y1="46.8058" x2="108.139" y2="30.658" gradientUnits="userSpaceOnUse">
<stop stop-color="#0273D8"/>
<stop offset="0.120453" stop-color="#0273D8"/>
<stop offset="0.131861" stop-color="#0273D8"/>
<stop offset="0.915943" stop-color="#07DDFF"/>
<stop offset="1" stop-color="#07DDFF"/>
</linearGradient>
<linearGradient id="paint19_linear_1028:8785" x1="97.0716" y1="18.5796" x2="96.4323" y2="39.9837" gradientUnits="userSpaceOnUse">
<stop stop-color="#0B92FD"/>
<stop offset="0.0157816" stop-color="#0B92FD"/>
<stop offset="0.890108" stop-color="#1157F6"/>
<stop offset="1" stop-color="#1157F6"/>
</linearGradient>
<linearGradient id="paint20_linear_1028:8785" x1="76.6676" y1="13.2675" x2="89.4469" y2="39.7194" gradientUnits="userSpaceOnUse">
<stop stop-color="#2670FE"/>
<stop offset="0.01773" stop-color="#2670FE"/>
<stop offset="1" stop-color="#2732F4"/>
</linearGradient>
<linearGradient id="paint21_linear_1028:8785" x1="36.5265" y1="39.4721" x2="71.7011" y2="39.4721" gradientUnits="userSpaceOnUse">
<stop stop-color="#7A34F8"/>
<stop offset="0.249368" stop-color="#7A34F8"/>
<stop offset="1" stop-color="#5A26E8"/>
</linearGradient>
<linearGradient id="paint22_linear_1028:8785" x1="78.2582" y1="3.33273" x2="84.9575" y2="26.9273" gradientUnits="userSpaceOnUse">
<stop stop-color="#4FC5FF"/>
<stop offset="0.10582" stop-color="#4FC5FF"/>
<stop offset="0.112194" stop-color="#4FC5FF"/>
<stop offset="1" stop-color="#2630F5"/>
</linearGradient>
<linearGradient id="paint23_linear_1028:8785" x1="3.33989" y1="53.9917" x2="64.3543" y2="53.9917" gradientUnits="userSpaceOnUse">
<stop stop-color="#BE6DFF"/>
<stop offset="0.0539496" stop-color="#BE6DFF"/>
<stop offset="0.769841" stop-color="#9A31FE"/>
<stop offset="0.771468" stop-color="#9A31FE"/>
<stop offset="1" stop-color="#7213F2"/>
</linearGradient>
<linearGradient id="paint24_linear_1028:8785" x1="56.9587" y1="11.733" x2="89.2959" y2="42.6773" gradientUnits="userSpaceOnUse">
<stop stop-color="#8DAFF8"/>
<stop offset="0.133006" stop-color="#8DAFF8"/>
<stop offset="1" stop-color="#2C3BFF"/>
</linearGradient>
<linearGradient id="paint25_linear_1028:8785" x1="82.1252" y1="9.73938" x2="94.8542" y2="44.4259" gradientUnits="userSpaceOnUse">
<stop stop-color="#BAD4FB"/>
<stop offset="0.855905" stop-color="#2267F4"/>
<stop offset="0.95513" stop-color="#2267F4"/>
<stop offset="1" stop-color="#2267F4"/>
</linearGradient>
<linearGradient id="paint26_linear_1028:8785" x1="105.179" y1="9.74285" x2="99.6835" y2="49.0172" gradientUnits="userSpaceOnUse">
<stop stop-color="#2AAEF5"/>
<stop offset="0.473348" stop-color="#97E1F7"/>
<stop offset="0.502358" stop-color="#97E1F7"/>
<stop offset="0.887304" stop-color="#0098E3"/>
<stop offset="1" stop-color="#0098E3"/>
</linearGradient>
<linearGradient id="paint27_linear_1028:8785" x1="117.169" y1="31.0877" x2="97.1682" y2="53.9295" gradientUnits="userSpaceOnUse">
<stop stop-color="#A7E6F6"/>
<stop offset="0.612934" stop-color="#A7E6F6"/>
<stop offset="0.618551" stop-color="#A7E6F6"/>
<stop offset="0.929729" stop-color="#21AFD1"/>
<stop offset="0.930975" stop-color="#21AFD1"/>
<stop offset="1" stop-color="#21AFD1"/>
</linearGradient>
<linearGradient id="paint28_linear_1028:8785" x1="118.939" y1="47.4824" x2="92.7469" y2="55.2364" gradientUnits="userSpaceOnUse">
<stop stop-color="#86EECC"/>
<stop offset="1" stop-color="#4BDBD2"/>
</linearGradient>
<linearGradient id="paint29_linear_1028:8785" x1="103.779" y1="68.1841" x2="87.3673" y2="52.5528" gradientUnits="userSpaceOnUse">
<stop stop-color="#8CFB73"/>
<stop offset="0.0904874" stop-color="#8CFB73"/>
<stop offset="1" stop-color="#73F385"/>
</linearGradient>
<linearGradient id="paint30_linear_1028:8785" x1="89.6753" y1="59.2861" x2="101.402" y2="59.2861" gradientUnits="userSpaceOnUse">
<stop stop-color="#00D784"/>
<stop offset="0.935043" stop-color="#00F18F"/>
<stop offset="1" stop-color="#00F18F"/>
</linearGradient>
<linearGradient id="paint31_linear_1028:8785" x1="86.6024" y1="62.0533" x2="102.441" y2="62.0533" gradientUnits="userSpaceOnUse">
<stop stop-color="#BCFB81"/>
<stop offset="0.0904874" stop-color="#BCFB81"/>
<stop offset="1" stop-color="#2EEE2D"/>
</linearGradient>
<linearGradient id="paint32_linear_1028:8785" x1="85.9959" y1="54.0109" x2="97.42" y2="67.3218" gradientUnits="userSpaceOnUse">
<stop stop-color="#77FB8D"/>
<stop offset="0.0580924" stop-color="#77FB8D"/>
<stop offset="0.649395" stop-color="#C1FDC1"/>
<stop offset="0.895431" stop-color="#72FA8D"/>
<stop offset="0.901269" stop-color="#72FA8D"/>
<stop offset="1" stop-color="#72FA8D"/>
</linearGradient>
<linearGradient id="paint33_linear_1028:8785" x1="88.8664" y1="55.2642" x2="109.328" y2="61.5753" gradientUnits="userSpaceOnUse">
<stop stop-color="#29CF95"/>
<stop offset="1" stop-color="#ADFCC7"/>
</linearGradient>
<linearGradient id="paint34_linear_1028:8785" x1="125.509" y1="39.8185" x2="143.131" y2="25.6414" gradientUnits="userSpaceOnUse">
<stop stop-color="#63EDFB"/>
<stop offset="0.59714" stop-color="#94FFD6"/>
<stop offset="1" stop-color="#94FFD6"/>
</linearGradient>
<linearGradient id="paint35_linear_1028:8785" x1="125.424" y1="33.2615" x2="145.58" y2="33.2615" gradientUnits="userSpaceOnUse">
<stop stop-color="#25FCBE"/>
<stop offset="0.853142" stop-color="#18FFC4"/>
<stop offset="0.878207" stop-color="#18FFC4"/>
<stop offset="1" stop-color="#18FFC4"/>
</linearGradient>
<linearGradient id="paint36_linear_1028:8785" x1="125.25" y1="34.4635" x2="134.302" y2="34.4635" gradientUnits="userSpaceOnUse">
<stop stop-color="#18DEDD"/>
<stop offset="0.0285414" stop-color="#18DEDD"/>
<stop offset="1" stop-color="#21EBBB"/>
</linearGradient>
<linearGradient id="paint37_linear_1028:8785" x1="132.532" y1="31.0632" x2="145.196" y2="31.0632" gradientUnits="userSpaceOnUse">
<stop stop-color="#15E5B4"/>
<stop offset="0.0285414" stop-color="#15E5B4"/>
<stop offset="1" stop-color="#4CF9C8"/>
</linearGradient>
<linearGradient id="paint38_linear_1028:8785" x1="19.9912" y1="58.3594" x2="76.6249" y2="37.9419" gradientUnits="userSpaceOnUse">
<stop stop-color="#9132EB"/>
<stop offset="0.68454" stop-color="#C082FF"/>
<stop offset="0.686141" stop-color="#C082FF"/>
<stop offset="1" stop-color="#9B50FA"/>
</linearGradient>
<linearGradient id="paint39_linear_1028:8785" x1="31.9654" y1="29.162" x2="84.6622" y2="39.4222" gradientUnits="userSpaceOnUse">
<stop stop-color="#BBB8FB"/>
<stop offset="0.0644731" stop-color="#BBB8FB"/>
<stop offset="1" stop-color="#6B4DFF"/>
</linearGradient>
</defs>
</svg>
