<svg width="332" height="432" viewBox="0 0 332 432" fill="none" xmlns="http://www.w3.org/2000/svg">
<rect width="332" height="432" rx="24" fill="#F9F9F9"/>
<g opacity="0.5" clip-path="url(#clip0_1075_6679)">
<path d="M177.74 209.68C178.426 210.179 179.199 210.546 180.02 210.76C180.02 210.76 184.02 217.25 190.79 219.01C191.518 220.743 191.813 222.627 191.65 224.5C186.59 220.73 181.93 215.39 177.74 209.68Z" fill="#CCCCCC"/>
<path d="M180.02 210.76C182.26 211.46 185.02 211.76 188.13 214.97C189.263 216.12 190.163 217.479 190.78 218.97C192.092 219.277 193.433 219.448 194.78 219.48C197.589 219.519 200.346 218.722 202.7 217.19C196.65 216.38 188.93 214.07 180.04 210.72" fill="#C2C2C2"/>
<path d="M202.63 217.23C201.682 215.246 200.256 213.528 198.48 212.23C196.82 212.711 195.099 212.95 193.37 212.94C189.72 212.883 186.125 212.041 182.83 210.47C181.891 210.677 180.93 210.761 179.97 210.72C187.83 213.79 195.59 216.3 202.63 217.23Z" fill="#CCCCCC"/>
<path d="M182.83 210.51C184.921 209.794 187.102 209.374 189.31 209.26C190.702 209.272 192.087 209.463 193.43 209.83C195.254 210.313 196.968 211.142 198.48 212.27C206.7 209.65 209.29 203.37 209.29 203.37C201.17 204.37 192.29 206.96 182.83 210.51Z" fill="#C2C2C2"/>
<path d="M209.29 203.37C207.154 201.989 204.713 201.151 202.18 200.93C195.89 207.82 185.87 208.54 185.52 208.56C184.753 209.39 183.837 210.069 182.82 210.56C192.35 206.93 201.29 204.36 209.29 203.37Z" fill="#CCCCCC"/>
<path d="M207.62 185.57C204.659 185.554 201.728 186.164 199.02 187.36C196.9 198.04 187.28 204.78 187.02 204.93C186.745 206.206 186.237 207.42 185.52 208.51C193.54 198.84 201.16 190.84 207.62 185.57Z" fill="#CCCCCC"/>
<path d="M185.52 208.53C187.77 206.3 189.81 203.2 195.68 201.53C197.794 200.949 199.994 200.742 202.18 200.92C208.08 194.76 206.4 189.12 207.62 185.59C199.484 192.478 192.078 200.185 185.52 208.59" fill="#C2C2C2"/>
<path d="M187.02 204.93C187.93 201.36 188.11 197.04 192.95 191.84C194.679 189.962 196.754 188.434 199.06 187.34C199.33 177.14 196.15 175.51 195.3 168.8C191.671 180.627 188.904 192.702 187.02 204.93Z" fill="#C2C2C2"/>
<path d="M187.02 204.93C187.083 203.416 186.866 201.904 186.38 200.47C186.49 200.21 192.1 187.68 187.85 175.71C189.728 172.829 192.286 170.456 195.3 168.8C191.719 180.64 188.952 192.712 187.02 204.93Z" fill="#CCCCCC"/>
<path d="M186.38 200.49C185.14 196.38 182.73 191.97 184.44 183.88C185.044 180.97 186.201 178.203 187.85 175.73C182.85 165.23 176.37 165.73 173 159.5C175.795 173.655 180.287 187.421 186.38 200.5" fill="#C2C2C2"/>
<path d="M183.02 196.42C179.33 193.06 174.29 190.11 171.15 181.03C170.006 177.767 169.504 174.314 169.67 170.86C158.77 163.4 154.23 167.93 145.19 163.58C156.839 175.587 169.495 186.574 183.02 196.42Z" fill="#C2C2C2"/>
<path d="M145.19 163.58C145.246 168.252 146.455 172.838 148.71 176.93C165.77 179.41 177.02 194.02 177.37 194.35C179.364 194.69 181.279 195.391 183.02 196.42C169.539 186.519 156.887 175.536 145.19 163.58Z" fill="#CCCCCC"/>
<path d="M177.38 194.35C174.94 194.09 172.64 194.92 170.38 195.71C163.633 193.331 156.534 192.104 149.38 192.08C143.216 192.014 137.1 193.162 131.38 195.46C126.7 192.74 122.761 188.911 119.91 184.31C138.752 189.256 157.976 192.615 177.38 194.35Z" fill="#CCCCCC"/>
<path d="M119.91 184.31C131.38 182.68 138.1 175.37 148.71 176.88C150.614 180.416 153.18 183.553 156.27 186.12C164.86 193.31 171.67 193.21 177.37 194.35C157.964 192.654 138.74 189.295 119.91 184.31Z" fill="#C2C2C2"/>
<path d="M170.43 195.71C165.24 197.56 158.91 201.16 148.93 200.6C142.741 200.379 136.707 198.608 131.38 195.45C115.9 203.82 116.24 212.52 103.94 217.75C129.72 213.67 154.96 205.59 170.43 195.71Z" fill="#C2C2C2"/>
<path d="M148.71 176.93C158.4 178.26 169.33 184.7 177.37 194.4C171.67 193.26 164.86 193.35 156.27 186.17C153.193 183.592 150.628 180.457 148.71 176.93Z" fill="#B0B0B0"/>
<path d="M180.02 210.76C180.02 210.76 184.02 217.25 190.79 219.01C190.173 217.518 189.273 216.16 188.14 215.01C184.94 211.72 182.21 211.46 180.02 210.76Z" fill="url(#paint0_linear_1075_6679)"/>
<path d="M180.02 210.76C180.02 210.76 184.02 217.25 190.79 219.01C190.173 217.518 189.273 216.16 188.14 215.01C184.94 211.72 182.21 211.46 180.02 210.76Z" fill="#B0B0B0"/>
<path d="M182.83 210.51C182.97 210.58 190.73 214.57 198.48 212.27C196.968 211.141 195.254 210.313 193.43 209.83C188.35 208.48 185.47 209.86 182.83 210.51Z" fill="#B0B0B0"/>
<path d="M202.18 200.93C199.994 200.72 197.789 200.927 195.68 201.54C189.81 203.23 187.77 206.33 185.52 208.54C185.87 208.51 195.89 207.79 202.18 200.93Z" fill="#B0B0B0"/>
<path d="M199.02 187.36C196.713 188.453 194.638 189.981 192.91 191.86C188.07 197.06 187.91 201.38 186.98 204.95C187.25 204.8 196.9 198.04 199.02 187.36Z" fill="#B0B0B0"/>
<path d="M187.85 175.73C186.199 178.22 185.041 181.004 184.44 183.93C182.73 192.02 185.14 196.43 186.38 200.54C186.49 200.23 192.1 187.7 187.85 175.73Z" fill="#B0B0B0"/>
<path d="M169.71 170.86C169.544 174.314 170.046 177.767 171.19 181.03C174.33 190.11 179.37 193.03 183.06 196.42C183.06 196.42 181.23 180.35 169.71 170.86Z" fill="#B0B0B0"/>
<path d="M131.38 195.45C135.396 197.836 139.833 199.428 144.45 200.14C157.31 202.14 164.06 197.98 170.45 195.71C170.45 195.71 150.02 187.71 131.38 195.45Z" fill="#B0B0B0"/>
<path d="M186.38 200.49C180.483 187.335 175.998 173.591 173 159.49C171.04 162.972 169.914 166.86 169.71 170.85C181.23 180.34 183.07 196.42 183.07 196.42C184.42 197.559 185.546 198.939 186.39 200.49" fill="#CCCCCC"/>
<path d="M103.94 217.75C115.94 224.58 125.71 224.89 132.94 223.51C154.82 219.68 162.18 200.74 170.45 195.71C151.7 207.1 128.43 213.67 103.94 217.75Z" fill="#CCCCCC"/>
<path d="M178.02 210.43C180.2 216.43 179.74 222.89 191.57 224.5C186.459 220.421 181.904 215.691 178.02 210.43Z" fill="#C2C2C2"/>
<path d="M222.29 189.34C218.902 191.958 215.337 194.337 211.62 196.46C217.23 194.71 223.14 195.99 226.39 189.46C227.136 187.842 227.684 186.14 228.02 184.39C226.214 186.158 224.301 187.811 222.29 189.34Z" fill="#CCCCCC"/>
<path d="M218.31 187.25C214.24 189.43 213.76 192.4 212.89 194.45C212.599 195.192 212.168 195.871 211.62 196.45C213.74 195.23 215.82 193.96 217.81 192.64C217.803 190.68 218.191 188.738 218.95 186.93C218.74 187.03 218.53 187.13 218.31 187.25Z" fill="#B0B0B0"/>
<path d="M228.02 184.39C223.67 186.32 221.64 185.71 218.91 186.94C218.151 188.748 217.763 190.69 217.77 192.65C221.472 190.271 224.908 187.502 228.02 184.39Z" fill="#C2C2C2"/>
<path d="M188.2 221.68C184.4 218.22 181.76 214.83 178.13 209.95L177.74 209.68C177.84 209.93 177.94 210.18 178.03 210.43C181.06 214.491 184.465 218.257 188.2 221.68Z" fill="#E0E0E0"/>
<path d="M197.77 216.37C191.747 215.159 185.851 213.384 180.16 211.07C180.085 210.972 180.019 210.868 179.96 210.76H180.59C186.178 213.031 191.919 214.905 197.77 216.37Z" fill="#E0E0E0"/>
<path d="M152.44 170.73C162.64 179.79 172.85 188.73 183.03 196.13C183.039 196.23 183.039 196.33 183.03 196.43C183.03 196.43 182.17 195.93 181.63 195.66C171.387 187.97 161.638 179.643 152.44 170.73Z" fill="#E0E0E0"/>
<path d="M175.08 168.25C178.122 179.174 181.938 189.868 186.5 200.25C186.43 200.39 186.38 200.51 186.38 200.51C186.122 200.023 185.835 199.552 185.52 199.1C181.11 189.155 177.615 178.829 175.08 168.25Z" fill="#E0E0E0"/>
<path d="M201.48 191.17C195.886 196.601 190.655 202.393 185.82 208.51H185.53C185.53 208.51 186.02 207.72 186.21 207.3C191.713 200.563 197.731 194.264 204.21 188.46" fill="#E0E0E0"/>
<path d="M205.78 203.93C199.18 205.07 191.78 207.41 183.09 210.66L182.83 210.53C183.229 210.33 183.617 210.106 183.99 209.86C192.21 206.81 199.32 204.52 205.78 203.93Z" fill="#E0E0E0"/>
<path d="M120.83 214.41C137.52 211.559 153.572 205.77 168.24 197.31C168.921 196.712 169.654 196.177 170.43 195.71L169.43 196.08C157.58 203.42 139.96 209.93 120.83 214.41Z" fill="#E0E0E0"/>
<path d="M131.22 187.13C145.768 190.48 160.514 192.899 175.37 194.37C176.035 194.3 176.705 194.3 177.37 194.37L177.14 194.11C160.91 192.55 145.87 189.79 131.22 187.13Z" fill="#E0E0E0"/>
<path d="M193.47 175.21C190.786 184.924 188.715 194.796 187.27 204.77L187.02 204.93C187.02 204.93 187.02 204.17 187.02 203.57C188.416 193.961 190.573 184.478 193.47 175.21Z" fill="#E0E0E0"/>
<path d="M224.53 187.65C220.744 190.849 216.693 193.719 212.42 196.23C212.152 196.293 211.888 196.373 211.63 196.47C211.63 196.47 211.89 196.14 212.05 195.97C216.437 193.553 220.611 190.769 224.53 187.65Z" fill="#B3B3B3"/>
</g>
<path d="M91.9276 254.864L96.1491 261.932V266.5H97.8991V261.932L102.121 254.864H100.126L97.0866 260.153H96.9616L93.9219 254.864H91.9276ZM105.896 266.676C108.357 266.676 109.964 264.875 109.964 262.176C109.964 259.46 108.357 257.659 105.896 257.659C103.436 257.659 101.828 259.46 101.828 262.176C101.828 264.875 103.436 266.676 105.896 266.676ZM105.902 265.25C104.294 265.25 103.544 263.847 103.544 262.17C103.544 260.5 104.294 259.08 105.902 259.08C107.499 259.08 108.249 260.5 108.249 262.17C108.249 263.847 107.499 265.25 105.902 265.25ZM117.389 262.881C117.395 264.364 116.293 265.068 115.338 265.068C114.287 265.068 113.56 264.307 113.56 263.119V257.773H111.861V263.324C111.861 265.489 113.048 266.614 114.724 266.614C116.037 266.614 116.929 265.92 117.332 264.989H117.423V266.5H119.094V257.773H117.389V262.881ZM121.376 266.5H123.075V261.17C123.075 260.028 123.956 259.205 125.161 259.205C125.513 259.205 125.911 259.267 126.047 259.307V257.682C125.876 257.659 125.541 257.642 125.325 257.642C124.303 257.642 123.428 258.222 123.109 259.159H123.018V257.773H121.376V266.5ZM141.28 254.864H139.541V263.409H139.433L133.513 254.864H131.888V266.5H133.643V257.966H133.751L139.666 266.5H141.28V254.864ZM143.841 266.5H145.597V261.426H150.54V259.92H145.597V256.375H151.057V254.864H143.841V266.5ZM152.642 256.375H156.267V266.5H158.017V256.375H161.648V254.864H152.642V256.375ZM167.736 266.5H169.435V257.773H167.736V266.5ZM168.594 256.426C169.179 256.426 169.668 255.972 169.668 255.415C169.668 254.858 169.179 254.398 168.594 254.398C168.003 254.398 167.52 254.858 167.52 255.415C167.52 255.972 168.003 256.426 168.594 256.426ZM178.26 259.903C177.908 258.545 176.845 257.659 174.959 257.659C172.987 257.659 171.589 258.699 171.589 260.244C171.589 261.483 172.339 262.307 173.976 262.67L175.453 262.994C176.294 263.182 176.686 263.557 176.686 264.102C176.686 264.778 175.964 265.307 174.851 265.307C173.834 265.307 173.18 264.869 172.976 264.011L171.334 264.261C171.618 265.807 172.902 266.676 174.862 266.676C176.97 266.676 178.43 265.557 178.43 263.977C178.43 262.744 177.646 261.983 176.044 261.614L174.658 261.295C173.697 261.068 173.283 260.744 173.288 260.153C173.283 259.483 174.01 259.006 174.976 259.006C176.033 259.006 176.521 259.591 176.72 260.176L178.26 259.903ZM184.533 266.5H186.232V261.119C186.232 259.943 187.055 259.125 188.021 259.125C188.964 259.125 189.618 259.75 189.618 260.699V266.5H191.311V260.938C191.311 259.886 191.953 259.125 193.061 259.125C193.959 259.125 194.697 259.625 194.697 260.807V266.5H196.396V260.648C196.396 258.653 195.283 257.659 193.703 257.659C192.447 257.659 191.504 258.261 191.084 259.193H190.993C190.612 258.239 189.811 257.659 188.646 257.659C187.493 257.659 186.635 258.233 186.271 259.193H186.163V257.773H184.533V266.5ZM198.673 266.5H200.372V257.773H198.673V266.5ZM199.531 256.426C200.116 256.426 200.605 255.972 200.605 255.415C200.605 254.858 200.116 254.398 199.531 254.398C198.94 254.398 198.457 254.858 198.457 255.415C198.457 255.972 198.94 256.426 199.531 256.426ZM204.357 261.318C204.357 259.926 205.209 259.131 206.391 259.131C207.544 259.131 208.243 259.886 208.243 261.153V266.5H209.942V260.949C209.942 258.79 208.754 257.659 206.97 257.659C205.658 257.659 204.8 258.267 204.396 259.193H204.288V257.773H202.658V266.5H204.357V261.318ZM216.294 257.773H214.504V255.682H212.805V257.773H211.527V259.136H212.805V264.29C212.8 265.875 214.01 266.642 215.351 266.614C215.891 266.608 216.254 266.506 216.453 266.432L216.146 265.028C216.033 265.051 215.822 265.102 215.55 265.102C214.999 265.102 214.504 264.92 214.504 263.938V259.136H216.294V257.773ZM218.173 266.5H219.872V257.773H218.173V266.5ZM219.031 256.426C219.616 256.426 220.105 255.972 220.105 255.415C220.105 254.858 219.616 254.398 219.031 254.398C218.44 254.398 217.957 254.858 217.957 255.415C217.957 255.972 218.44 256.426 219.031 256.426ZM223.857 261.318C223.857 259.926 224.709 259.131 225.891 259.131C227.044 259.131 227.743 259.886 227.743 261.153V266.5H229.442V260.949C229.442 258.79 228.254 257.659 226.47 257.659C225.158 257.659 224.3 258.267 223.896 259.193H223.788V257.773H222.158V266.5H223.857V261.318ZM235.379 269.955C237.601 269.955 239.317 268.938 239.317 266.693V257.773H237.652V259.188H237.527C237.226 258.648 236.624 257.659 234.999 257.659C232.891 257.659 231.339 259.324 231.339 262.102C231.339 264.886 232.925 266.369 234.987 266.369C236.589 266.369 237.209 265.466 237.516 264.909H237.624V266.625C237.624 267.994 236.686 268.585 235.396 268.585C233.982 268.585 233.43 267.875 233.129 267.375L231.669 267.977C232.129 269.045 233.294 269.955 235.379 269.955ZM235.362 264.96C233.845 264.96 233.055 263.795 233.055 262.08C233.055 260.403 233.828 259.102 235.362 259.102C236.845 259.102 237.641 260.312 237.641 262.08C237.641 263.881 236.828 264.96 235.362 264.96Z" fill="black"/>
<defs>
<linearGradient id="paint0_linear_1075_6679" x1="190.477" y1="219.015" x2="179.703" y2="209.598" gradientUnits="userSpaceOnUse">
<stop stop-color="#82FAA1"/>
<stop offset="1" stop-color="#74E1F9"/>
</linearGradient>
<clipPath id="clip0_1075_6679">
<rect width="124.12" height="65" fill="white" transform="translate(103.94 159.5)"/>
</clipPath>
</defs>
</svg>
